<svg width="566" height="350" viewBox="0 0 566 350" fill="none" xmlns="http://www.w3.org/2000/svg">
<g clip-path="url(#clip0)">
<path opacity="0.3" d="M484.51 5.90234H395.62V227.73H484.51V5.90234Z" fill="white"/>
<path d="M484.51 228.581H395.62C395.415 228.581 395.219 228.5 395.075 228.355C394.93 228.21 394.849 228.013 394.849 227.808V5.90263C394.849 5.69743 394.93 5.50063 395.075 5.35553C395.219 5.21042 395.415 5.12891 395.62 5.12891H484.51C484.715 5.12891 484.911 5.21042 485.055 5.35553C485.2 5.50063 485.281 5.69743 485.281 5.90263V227.746C485.29 227.852 485.276 227.96 485.241 228.061C485.206 228.162 485.151 228.255 485.078 228.333C485.006 228.412 484.918 228.474 484.82 228.517C484.722 228.56 484.617 228.582 484.51 228.581ZM396.391 227.034H483.739V6.67636H396.391V227.034Z" fill="#E4E5E7"/>
<path opacity="0.3" d="M385.706 5.90234H296.815V227.73H385.706V5.90234Z" fill="white"/>
<path d="M385.705 228.581H296.815C296.611 228.581 296.415 228.5 296.27 228.355C296.126 228.21 296.044 228.013 296.044 227.808V5.90263C296.044 5.69743 296.126 5.50063 296.27 5.35553C296.415 5.21042 296.611 5.12891 296.815 5.12891H385.705C385.91 5.12891 386.106 5.21042 386.251 5.35553C386.395 5.50063 386.476 5.69743 386.476 5.90263V227.746C386.485 227.852 386.471 227.96 386.437 228.061C386.402 228.162 386.346 228.255 386.274 228.333C386.201 228.412 386.113 228.474 386.016 228.517C385.918 228.56 385.812 228.582 385.705 228.581ZM297.586 227.034H384.935V6.67636H297.586V227.034Z" fill="#E4E5E7"/>
<path opacity="0.3" d="M286.901 5.90234H198.011V227.73H286.901V5.90234Z" fill="white"/>
<path d="M286.916 228.581H198.011C197.808 228.577 197.614 228.495 197.47 228.35C197.326 228.206 197.244 228.012 197.24 227.808V5.90263C197.244 5.69867 197.326 5.50416 197.47 5.35991C197.614 5.21566 197.808 5.13287 198.011 5.12891H286.916C287.12 5.13287 287.313 5.21566 287.457 5.35991C287.601 5.50416 287.683 5.69867 287.687 5.90263V227.746C287.694 227.852 287.678 227.958 287.643 228.058C287.607 228.159 287.551 228.25 287.479 228.329C287.407 228.407 287.32 228.469 287.224 228.513C287.127 228.556 287.022 228.579 286.916 228.581ZM198.782 227.034H286.145V6.67636H198.782V227.034Z" fill="#E4E5E7"/>
<path opacity="0.3" d="M188.112 5.90234H99.2217V227.73H188.112V5.90234Z" fill="white"/>
<path d="M188.112 228.581H99.2217C99.0172 228.581 98.8211 228.5 98.6765 228.355C98.532 228.21 98.4507 228.013 98.4507 227.808V5.90263C98.4507 5.69743 98.532 5.50063 98.6765 5.35553C98.8211 5.21042 99.0172 5.12891 99.2217 5.12891H188.112C188.316 5.12891 188.512 5.21042 188.657 5.35553C188.802 5.50063 188.883 5.69743 188.883 5.90263V227.746C188.891 227.852 188.878 227.96 188.843 228.061C188.808 228.162 188.752 228.255 188.68 228.333C188.608 228.412 188.52 228.474 188.422 228.517C188.324 228.56 188.219 228.582 188.112 228.581ZM99.9926 227.034H187.341V6.67636H99.9926V227.034Z" fill="#E4E5E7"/>
<path d="M336.858 80.1955C336.65 80.195 336.45 80.1115 336.303 79.9634C336.161 79.8162 336.081 79.6192 336.081 79.4141C336.081 79.209 336.161 79.012 336.303 78.8647L372.677 43.5518C372.747 43.4798 372.831 43.4225 372.924 43.3834C373.016 43.3443 373.116 43.3242 373.216 43.3242C373.317 43.3242 373.416 43.3443 373.509 43.3834C373.602 43.4225 373.685 43.4798 373.756 43.5518C373.828 43.6237 373.885 43.7093 373.925 43.8036C373.964 43.8979 373.984 43.999 373.984 44.1012C373.984 44.2033 373.964 44.3044 373.925 44.3987C373.885 44.493 373.828 44.5786 373.756 44.6505L337.398 80.0253C337.324 80.0886 337.238 80.1362 337.145 80.1655C337.053 80.1947 336.955 80.2049 336.858 80.1955Z" fill="#E4E5E7"/>
<path d="M228.386 76.5126C228.232 76.5135 228.081 76.4681 227.953 76.3822C227.825 76.2963 227.725 76.1738 227.667 76.0305C227.609 75.8873 227.595 75.7299 227.627 75.5786C227.659 75.4273 227.736 75.2891 227.846 75.1818L264.204 39.7915C264.275 39.7124 264.362 39.6487 264.458 39.6047C264.555 39.5606 264.659 39.5369 264.765 39.5353C264.871 39.5336 264.977 39.5539 265.075 39.5949C265.172 39.6359 265.261 39.6967 265.334 39.7735C265.408 39.8504 265.464 39.9416 265.501 40.0415C265.538 40.1414 265.553 40.2478 265.547 40.354C265.541 40.4603 265.513 40.5641 265.465 40.659C265.417 40.754 265.35 40.8379 265.268 40.9057L228.91 76.296C228.77 76.4337 228.582 76.5114 228.386 76.5126Z" fill="#E4E5E7"/>
<path d="M330.028 115.152C329.873 115.15 329.722 115.102 329.596 115.013C329.469 114.924 329.371 114.798 329.317 114.653C329.262 114.508 329.252 114.349 329.288 114.198C329.324 114.047 329.404 113.911 329.519 113.806L359.092 86.8649C359.249 86.7539 359.441 86.7043 359.632 86.7255C359.823 86.7466 359.999 86.8371 360.128 86.9798C360.257 87.1225 360.33 87.3076 360.332 87.5002C360.334 87.6928 360.266 87.8797 360.141 88.0255L330.552 114.951C330.409 115.082 330.221 115.154 330.028 115.152Z" fill="#E4E5E7"/>
<path d="M415.402 56.814C415.283 56.8129 415.165 56.7844 415.058 56.7308C414.952 56.6771 414.858 56.5998 414.786 56.5046C414.663 56.3404 414.61 56.134 414.639 55.9309C414.668 55.7278 414.776 55.5445 414.94 55.4213L453.271 26.5922C453.435 26.4691 453.641 26.4163 453.843 26.4453C454.045 26.4743 454.228 26.5828 454.351 26.747C454.469 26.9125 454.52 27.1178 454.491 27.3198C454.462 27.5217 454.357 27.7047 454.196 27.8302L415.865 56.6129C415.738 56.7311 415.575 56.8021 415.402 56.814Z" fill="#E4E5E7"/>
<path d="M234.816 141.815C234.705 141.818 234.594 141.796 234.493 141.751C234.392 141.705 234.302 141.637 234.23 141.552C234.158 141.482 234.101 141.397 234.062 141.304C234.023 141.211 234.003 141.111 234.003 141.011C234.003 140.91 234.023 140.81 234.062 140.717C234.101 140.624 234.158 140.54 234.23 140.469L264.112 114.302C264.266 114.176 264.463 114.116 264.661 114.133C264.859 114.15 265.043 114.243 265.174 114.393C265.305 114.543 265.374 114.737 265.366 114.937C265.357 115.136 265.273 115.324 265.129 115.462L235.248 141.63C235.124 141.732 234.974 141.796 234.816 141.815Z" fill="#E4E5E7"/>
<path d="M434.568 110.278C434.447 110.279 434.327 110.25 434.219 110.193C434.112 110.137 434.02 110.054 433.951 109.954C433.829 109.789 433.776 109.583 433.805 109.38C433.834 109.177 433.942 108.993 434.106 108.87L457.542 91.6936C457.624 91.6336 457.717 91.5905 457.816 91.5666C457.915 91.5427 458.017 91.5385 458.117 91.5543C458.217 91.5701 458.313 91.6056 458.4 91.6587C458.487 91.7118 458.562 91.7815 458.622 91.8638C458.681 91.9461 458.724 92.0394 458.748 92.1384C458.772 92.2373 458.776 92.34 458.76 92.4406C458.745 92.5412 458.709 92.6377 458.656 92.7246C458.604 92.8115 458.534 92.887 458.452 92.947L435.015 110.124C434.889 110.226 434.731 110.281 434.568 110.278Z" fill="#E4E5E7"/>
<path d="M115.874 39.1105C115.743 39.1117 115.614 39.0779 115.5 39.0127C115.387 38.9474 115.292 38.853 115.227 38.7391C115.173 38.654 115.137 38.5591 115.121 38.4598C115.104 38.3606 115.107 38.2591 115.13 38.1611C115.153 38.0632 115.195 37.9708 115.254 37.8894C115.313 37.808 115.388 37.7391 115.473 37.6869L143.227 20.7577C143.403 20.651 143.614 20.6188 143.814 20.6681C144.013 20.7174 144.185 20.8443 144.291 21.0208C144.398 21.1972 144.43 21.4089 144.381 21.6091C144.331 21.8094 144.205 21.9818 144.029 22.0885L116.275 39.0022C116.154 39.0759 116.015 39.1135 115.874 39.1105Z" fill="#E4E5E7"/>
<path d="M316.999 41.1846C316.892 41.1863 316.785 41.1651 316.687 41.1224C316.589 41.0797 316.5 41.0165 316.428 40.937C316.356 40.865 316.299 40.7795 316.259 40.6852C316.22 40.5909 316.2 40.4898 316.2 40.3876C316.2 40.2855 316.22 40.1843 316.259 40.0901C316.299 39.9958 316.356 39.9102 316.428 39.8383L331.955 25.71C332.025 25.638 332.109 25.5807 332.202 25.5416C332.295 25.5026 332.394 25.4824 332.495 25.4824C332.595 25.4824 332.695 25.5026 332.787 25.5416C332.88 25.5807 332.964 25.638 333.034 25.71C333.107 25.7819 333.164 25.8675 333.203 25.9618C333.242 26.0561 333.262 26.1572 333.262 26.2594C333.262 26.3615 333.242 26.4626 333.203 26.5569C333.164 26.6512 333.107 26.7368 333.034 26.8087L317.538 40.9215C317.471 40.9993 317.388 41.0627 317.295 41.1079C317.202 41.1531 317.102 41.1791 316.999 41.1846Z" fill="#E4E5E7"/>
<path d="M517.229 298.619H71.9456C71.7412 298.619 71.5451 298.537 71.4005 298.392C71.2559 298.247 71.1747 298.05 71.1747 297.845C71.1747 297.64 71.2559 297.443 71.4005 297.298C71.5451 297.153 71.7412 297.071 71.9456 297.071H517.229C517.434 297.071 517.63 297.153 517.774 297.298C517.919 297.443 518 297.64 518 297.845C518 298.05 517.919 298.247 517.774 298.392C517.63 298.537 517.434 298.619 517.229 298.619Z" fill="#E4E5E7"/>
<path d="M472.375 120.26C467.488 118.403 379.106 113.668 373.694 120.26C356.872 140.748 358.907 199.567 358.907 199.567L465.036 193.207C465.036 193.207 477.279 122.055 472.375 120.26Z" fill="white"/>
<path d="M358.907 200.294C358.814 200.296 358.72 200.279 358.633 200.244C358.546 200.21 358.466 200.158 358.399 200.093C358.246 199.952 358.152 199.758 358.136 199.551C357.912 188.851 358.277 178.147 359.231 167.488C361.359 144.4 366.031 128.337 373.108 119.718C378.937 112.599 467.518 117.551 472.653 119.486C473.825 119.934 476.292 120.863 471.311 157.476C468.891 175.287 465.838 193.067 465.807 193.284C465.776 193.456 465.687 193.613 465.555 193.728C465.424 193.844 465.257 193.91 465.082 193.918L358.954 200.294H358.907ZM407.246 117.629C390.285 117.629 376.161 118.433 374.296 120.724C358.877 139.463 359.509 191.643 359.663 198.715L464.388 192.433C470.155 158.791 474.596 123.029 472.098 120.94C468.598 119.656 434.306 117.629 407.246 117.629Z" fill="#E4E5E7"/>
<path d="M465.036 124.097C465.036 124.097 449.54 128.136 446.287 191.597L465.036 124.097Z" fill="white"/>
<path d="M446.287 192.371C446.185 192.365 446.086 192.339 445.995 192.295C445.904 192.25 445.822 192.188 445.755 192.112C445.687 192.036 445.636 191.947 445.602 191.851C445.569 191.755 445.556 191.653 445.562 191.551C448.815 128.26 464.234 123.463 464.897 123.339C464.998 123.314 465.104 123.309 465.207 123.324C465.31 123.34 465.409 123.375 465.499 123.429C465.588 123.483 465.666 123.554 465.728 123.638C465.791 123.722 465.836 123.818 465.861 123.92C465.886 124.021 465.891 124.127 465.876 124.23C465.861 124.334 465.825 124.433 465.771 124.523C465.718 124.613 465.647 124.691 465.563 124.754C465.479 124.816 465.384 124.861 465.283 124.887C465.082 124.887 450.265 130.117 447.104 191.675C447.081 191.873 446.983 192.055 446.832 192.184C446.68 192.314 446.485 192.38 446.287 192.371Z" fill="#E4E5E7"/>
<path d="M508.964 172.27H214.555V184.897H508.964V172.27Z" fill="white"/>
<path d="M508.98 185.685H214.555C214.352 185.681 214.158 185.599 214.015 185.454C213.871 185.31 213.788 185.116 213.784 184.912V172.269C213.788 172.065 213.871 171.87 214.015 171.726C214.158 171.582 214.352 171.499 214.555 171.495H509.057C509.26 171.499 509.454 171.582 509.598 171.726C509.742 171.87 509.824 172.065 509.828 172.269V184.912C509.826 185.019 509.802 185.126 509.758 185.224C509.714 185.322 509.65 185.41 509.571 185.482C509.491 185.555 509.398 185.61 509.296 185.645C509.195 185.68 509.087 185.694 508.98 185.685ZM215.326 184.138H508.286V173.043H215.326V184.138Z" fill="#E4E5E7"/>
<path d="M502.997 184.912H220.553V317.56H502.997V184.912Z" fill="white"/>
<path d="M502.982 318.334H220.553C220.349 318.334 220.153 318.252 220.008 318.107C219.864 317.962 219.782 317.765 219.782 317.56V184.912C219.782 184.707 219.864 184.51 220.008 184.365C220.153 184.22 220.349 184.139 220.553 184.139H502.982C503.186 184.139 503.383 184.22 503.527 184.365C503.672 184.51 503.753 184.707 503.753 184.912V317.56C503.753 317.765 503.672 317.962 503.527 318.107C503.383 318.252 503.186 318.334 502.982 318.334ZM221.324 316.786H502.211V185.686H221.324V316.786Z" fill="#E4E5E7"/>
<path d="M326.79 172.269H261.136L266.841 152.864H332.495L326.79 172.269Z" fill="white"/>
<path d="M326.79 173.043H261.136C261.016 173.046 260.897 173.019 260.789 172.965C260.682 172.911 260.589 172.831 260.519 172.734C260.447 172.637 260.399 172.526 260.377 172.408C260.356 172.29 260.362 172.168 260.396 172.053L266.101 152.648C266.15 152.488 266.248 152.348 266.381 152.248C266.514 152.148 266.675 152.093 266.841 152.09H332.495C332.615 152.088 332.734 152.115 332.841 152.169C332.949 152.223 333.041 152.302 333.112 152.4C333.187 152.494 333.238 152.606 333.259 152.725C333.281 152.844 333.272 152.966 333.235 153.081L327.53 172.486C327.485 172.648 327.389 172.791 327.255 172.891C327.121 172.992 326.957 173.046 326.79 173.043ZM262.169 171.496H326.204L331.462 153.638H267.427L262.169 171.496Z" fill="#E4E5E7"/>
<path d="M332.495 152.864L337.799 172.269H326.79L332.495 152.864Z" fill="#E4E5E7"/>
<path d="M337.799 173.043H326.79C326.67 173.046 326.551 173.019 326.443 172.965C326.336 172.911 326.243 172.832 326.173 172.734C326.098 172.64 326.047 172.528 326.026 172.409C326.004 172.29 326.012 172.168 326.05 172.053L331.755 152.648C331.812 152.491 331.914 152.354 332.049 152.255C332.183 152.156 332.344 152.099 332.51 152.091C332.677 152.093 332.839 152.15 332.97 152.253C333.101 152.357 333.194 152.501 333.235 152.663L338.539 172.068C338.573 172.183 338.58 172.304 338.558 172.421C338.537 172.539 338.488 172.65 338.416 172.745C338.344 172.84 338.25 172.916 338.143 172.968C338.036 173.02 337.918 173.046 337.799 173.043ZM327.823 171.496H336.781L332.464 155.696L327.823 171.496Z" fill="#E4E5E7"/>
<path d="M175.515 188.982C174.998 190.71 174.295 192.375 173.418 193.949C172.451 195.751 171.123 197.331 169.517 198.592C166.895 200.573 162.162 201.424 160.265 197.957C159.695 196.758 159.395 195.448 159.386 194.12C159.386 185.083 161.483 175.55 162.47 166.436C162.484 166.054 162.578 165.679 162.748 165.337C163.012 164.969 163.361 164.672 163.765 164.47L171.675 159.828C173.387 169.902 178.568 178.661 175.515 188.982Z" fill="white"/>
<path d="M164.521 201.191C164.045 201.193 163.569 201.147 163.102 201.052C162.358 200.9 161.655 200.586 161.045 200.131C160.435 199.677 159.932 199.093 159.571 198.421C158.944 197.117 158.607 195.691 158.585 194.243C158.737 188.226 159.319 182.227 160.327 176.293C160.79 173.043 161.283 169.685 161.607 166.435C161.597 165.887 161.752 165.349 162.052 164.89C162.351 164.432 162.782 164.075 163.287 163.867L171.182 159.224C171.292 159.157 171.416 159.117 171.545 159.109C171.673 159.101 171.802 159.125 171.919 159.178C172.036 159.232 172.139 159.313 172.217 159.416C172.296 159.518 172.348 159.638 172.369 159.766C172.953 162.703 173.694 165.606 174.589 168.463C176.594 175.318 178.475 181.786 176.27 189.214C175.743 191.002 175.019 192.725 174.111 194.352C173.097 196.28 171.695 197.977 169.995 199.334C168.408 200.512 166.494 201.161 164.521 201.191ZM171.028 161.143L164.089 165.244C163.808 165.384 163.556 165.579 163.349 165.816C163.245 166.066 163.192 166.335 163.195 166.606C162.856 169.871 162.378 173.244 161.9 176.509C160.91 182.357 160.333 188.268 160.173 194.197C160.189 195.397 160.463 196.579 160.975 197.663C161.223 198.134 161.573 198.543 162 198.859C162.427 199.175 162.92 199.39 163.442 199.489C164.424 199.638 165.426 199.586 166.388 199.336C167.35 199.086 168.252 198.643 169.039 198.034C170.571 196.819 171.828 195.289 172.724 193.547C173.576 192.03 174.253 190.42 174.744 188.75C176.825 181.771 174.99 175.519 173.063 168.896C172.323 166.389 171.598 163.82 171.028 161.143Z" fill="#4F4F4F"/>
<path d="M175.931 201.021H150.012C149.807 201.021 149.611 200.939 149.467 200.794C149.322 200.649 149.241 200.452 149.241 200.247V195.605C149.241 193.404 150.111 191.292 151.66 189.734C153.21 188.176 155.312 187.299 157.505 187.295H168.514C170.708 187.299 172.81 188.176 174.359 189.734C175.909 191.292 176.779 193.404 176.779 195.605V200.247C176.779 200.356 176.757 200.463 176.714 200.562C176.67 200.661 176.607 200.751 176.527 200.823C176.447 200.896 176.352 200.952 176.25 200.986C176.147 201.02 176.038 201.032 175.931 201.021ZM150.783 199.473H175.145V195.589C175.145 193.803 174.438 192.089 173.181 190.824C171.924 189.559 170.218 188.846 168.437 188.842H157.49C155.71 188.846 154.004 189.559 152.746 190.824C151.489 192.089 150.783 193.803 150.783 195.589V199.473Z" fill="white"/>
<path d="M168.514 187.264C170.708 187.268 172.81 188.145 174.359 189.703C175.909 191.261 176.779 193.372 176.779 195.574V200.216C176.779 200.421 176.698 200.618 176.553 200.763C176.409 200.908 176.212 200.99 176.008 200.99H150.012C149.807 200.99 149.611 200.908 149.467 200.763C149.322 200.618 149.241 200.421 149.241 200.216V195.574C149.241 193.372 150.111 191.261 151.66 189.703C153.21 188.145 155.312 187.268 157.505 187.264H168.514ZM150.86 199.458H175.222V195.574C175.222 193.787 174.515 192.073 173.258 190.808C172.001 189.543 170.295 188.831 168.514 188.827H157.567C155.787 188.831 154.081 189.543 152.823 190.808C151.566 192.073 150.86 193.787 150.86 195.574V199.458ZM168.514 185.67H157.567C154.951 185.674 152.443 186.719 150.594 188.575C148.744 190.432 147.703 192.948 147.699 195.574V200.216C147.703 200.845 147.955 201.448 148.4 201.891C148.845 202.335 149.446 202.584 150.073 202.584H176.008C176.635 202.584 177.237 202.335 177.682 201.891C178.126 201.448 178.378 200.845 178.383 200.216V195.574C178.378 192.948 177.337 190.432 175.488 188.575C173.638 186.719 171.13 185.674 168.514 185.67ZM152.448 197.864V195.574C152.448 194.211 152.987 192.904 153.947 191.941C154.907 190.977 156.209 190.436 157.567 190.436H168.514C169.872 190.436 171.174 190.977 172.134 191.941C173.094 192.904 173.634 194.211 173.634 195.574V197.864H152.448Z" fill="#4F4F4F"/>
<path d="M172.631 186.274C171.201 189.98 168.53 193.072 165.076 195.017C164.879 195.168 164.649 195.27 164.405 195.313C164.16 195.356 163.909 195.34 163.673 195.265C163.025 194.909 163.179 193.949 163.442 193.268C164.372 190.835 165.644 188.547 167.219 186.475C167.219 186.475 162.794 182.421 165.215 179.187" fill="white"/>
<path d="M164.074 196.085C163.805 196.091 163.539 196.027 163.303 195.899C162.409 195.419 162.177 194.351 162.701 192.912C163.577 190.631 164.743 188.472 166.171 186.49C164.983 185.191 162.285 181.709 164.629 178.645C164.756 178.477 164.944 178.366 165.152 178.337C165.36 178.308 165.571 178.363 165.739 178.49C165.907 178.617 166.017 178.806 166.046 179.015C166.075 179.224 166.02 179.436 165.893 179.604C163.95 182.219 167.759 185.794 167.79 185.794C167.94 185.928 168.034 186.114 168.054 186.315C168.074 186.515 168.018 186.716 167.898 186.877C166.373 188.886 165.138 191.1 164.228 193.454C164.07 193.764 164.021 194.118 164.089 194.46C164.089 194.46 164.228 194.46 164.737 194.228C168.022 192.374 170.562 189.43 171.922 185.902C171.998 185.704 172.149 185.543 172.343 185.456C172.537 185.369 172.757 185.363 172.955 185.438C173.053 185.474 173.142 185.529 173.218 185.6C173.294 185.671 173.356 185.757 173.399 185.852C173.442 185.947 173.466 186.05 173.469 186.154C173.472 186.258 173.455 186.362 173.418 186.459C171.919 190.336 169.129 193.573 165.523 195.62C165.09 195.903 164.59 196.063 164.074 196.085Z" fill="#4F4F4F"/>
<path d="M204.626 198.452H121.317C117.485 198.452 114.379 201.57 114.379 205.416V254.547C114.379 258.393 117.485 261.511 121.317 261.511H204.626C208.458 261.511 211.564 258.393 211.564 254.547V205.416C211.564 201.57 208.458 198.452 204.626 198.452Z" fill="white"/>
<path d="M204.61 262.315H121.348C119.303 262.315 117.342 261.5 115.896 260.049C114.451 258.598 113.638 256.63 113.638 254.578V205.369C113.638 203.317 114.451 201.349 115.896 199.898C117.342 198.447 119.303 197.632 121.348 197.632H204.61C206.655 197.632 208.616 198.447 210.062 199.898C211.507 201.349 212.32 203.317 212.32 205.369V254.485C212.332 255.509 212.141 256.525 211.76 257.475C211.378 258.424 210.812 259.288 210.095 260.016C209.377 260.745 208.523 261.323 207.582 261.718C206.641 262.112 205.63 262.315 204.61 262.315ZM121.348 199.257C119.712 199.257 118.143 199.909 116.987 201.07C115.83 202.23 115.18 203.805 115.18 205.446V254.563C115.18 256.204 115.83 257.779 116.987 258.939C118.143 260.1 119.712 260.752 121.348 260.752H204.61C206.246 260.752 207.815 260.1 208.971 258.939C210.128 257.779 210.778 256.204 210.778 254.563V205.369C210.778 203.727 210.128 202.153 208.971 200.992C207.815 199.831 206.246 199.179 204.61 199.179L121.348 199.257Z" fill="#4F4F4F"/>
<path d="M170.843 65.7582C170.843 65.7582 174.189 151.75 179.308 169.778L159.263 177.515C159.263 177.515 154.637 85.0859 158.477 75.1512C162.316 65.2166 170.843 65.7582 170.843 65.7582Z" fill="#E67E22"/>
<path d="M94.0255 168.819L89.3998 322.821C89.3998 322.821 92.4836 326.628 102.583 326.628C112.682 326.628 116.09 321.506 116.09 321.506L132.311 206.592C132.311 206.592 150.197 304.36 151.461 319.696C151.461 319.696 166.88 324.585 175.376 317.777C175.376 317.777 166.464 225.873 166.232 199.923C165.956 182.688 164.809 165.479 162.794 148.361H97.4177L94.0255 168.819Z" fill="#4F4F4F"/>
<path d="M156.518 156.052L97.4177 160.694C99.2063 144.25 101.144 127.827 103.231 111.423C105.189 96.0882 105.112 78.2925 114.379 65.1546C118.495 59.3052 126.467 52.0322 134.038 53.7963C141.346 55.4985 149.842 61.4407 156.518 65.1082V156.052Z" fill="white"/>
<path d="M97.4177 161.53C97.3069 161.528 97.1976 161.504 97.0968 161.457C96.996 161.411 96.9058 161.345 96.8319 161.262C96.758 161.179 96.702 161.082 96.6675 160.976C96.633 160.87 96.6207 160.759 96.6313 160.648C98.4508 143.873 100.394 127.285 102.429 111.377C102.799 108.483 103.092 105.574 103.4 102.494C104.726 89.2637 106.083 75.5687 113.715 64.7365C118.341 58.2218 126.436 51.2427 134.207 53.0687C139.804 54.3686 146.049 58.0825 151.569 61.3631C153.45 62.4773 155.223 63.5295 156.889 64.458C157.015 64.524 157.122 64.624 157.195 64.747C157.269 64.8699 157.307 65.011 157.305 65.1544V156.052C157.309 156.252 157.236 156.446 157.101 156.593C156.966 156.74 156.779 156.829 156.58 156.841L97.4794 161.483L97.4177 161.53ZM131.663 54.3686C124.879 54.3686 118.156 61.2083 115.026 65.665C107.625 76.1568 106.284 89.6196 104.988 102.649C104.68 105.744 104.387 108.669 104.017 111.578C102.013 127.176 100.101 143.425 98.312 159.859L155.717 155.309V65.6341C154.175 64.752 152.494 63.7771 150.767 62.7403C145.34 59.5216 139.203 55.8696 133.806 54.6162C133.104 54.4525 132.385 54.3694 131.663 54.3686Z" fill="#4F4F4F"/>
<path d="M138.925 64.9688L134.161 68.3113L137.337 70.0599L132.326 123.354L137.63 130.333L143.675 121.172L140.483 70.4932L143.042 67.7387L138.925 64.9688Z" fill="#4F4F4F"/>
<path d="M147.421 56.8135C147.421 56.8135 152.17 164.516 151.739 171.325L170.596 169.778C170.596 169.778 166.171 121.079 167.867 103.624C167.867 103.624 176.779 74.2223 170.843 65.7268C164.906 57.2313 147.421 56.8135 147.421 56.8135Z" fill="#E67E22"/>
<path d="M124.57 52.1714C124.57 52.1714 101.041 57.2316 84.9129 69.1934C68.7847 81.1552 48 111.47 48 118.867C48 126.264 82.3688 156.006 82.3688 156.006L91.7127 141.754C91.7127 141.754 72.6086 118.99 75.1527 112.6C77.6969 106.209 94.6731 93.2408 94.6731 93.2408C94.6731 93.2408 96.8009 113.017 95.9529 120.259C95.1049 127.501 86.7015 168.401 87.7192 179.48L104.433 175.473C104.433 175.473 105.713 157.599 111.649 144.678C117.586 131.757 123.537 121.126 126.96 100.684C130.383 80.2422 124.57 52.1714 124.57 52.1714Z" fill="#E67E22"/>
<path d="M121.502 30.507C120.385 27.0352 119.494 23.4944 118.835 19.9069C118.194 16.2876 118.809 12.5573 120.577 9.33778C121.288 8.03374 122.426 7.01677 123.799 6.45951C124.477 6.19144 125.22 6.13821 125.928 6.30698C126.637 6.47576 127.277 6.85844 127.762 7.40346C128.714 6.02871 130.005 4.92508 131.509 4.20023C135.026 2.22732 139.016 1.26368 143.042 1.41481C146.403 1.50292 149.632 2.74868 152.186 4.94301C154.211 7.20737 155.487 10.0454 155.84 13.0671C156.493 15.8034 156.619 18.6398 156.21 21.4234C154.93 28.3869 148.593 30.5224 142.549 32.0854C139.831 32.9008 136.994 33.2461 134.161 33.1067C132.745 33.0216 131.361 32.6549 130.087 32.0279C128.814 31.401 127.678 30.5263 126.744 29.4547" fill="white"/>
<path d="M135.641 33.9114C135.148 33.9114 134.639 33.9114 134.099 33.9114C132.577 33.82 131.088 33.4254 129.72 32.7506C128.351 32.0757 127.13 31.1342 126.128 29.9808C125.995 29.8145 125.934 29.6022 125.957 29.3904C125.98 29.1786 126.086 28.9847 126.251 28.8512C126.332 28.7857 126.425 28.7369 126.525 28.7077C126.624 28.6785 126.729 28.6694 126.832 28.6809C126.935 28.6924 127.035 28.7243 127.126 28.7748C127.217 28.8253 127.297 28.8933 127.361 28.975C128.23 29.9609 129.286 30.764 130.466 31.3378C131.646 31.9116 132.929 32.2445 134.238 32.3175C136.978 32.4545 139.721 32.1196 142.349 31.3271C148.316 29.7796 154.236 27.7215 155.439 21.2996C155.81 18.607 155.685 15.8689 155.069 13.2219C154.745 10.3518 153.55 7.65085 151.646 5.48461C149.22 3.42932 146.17 2.26174 142.996 2.17306C139.113 2.03074 135.265 2.96789 131.879 4.8811C130.492 5.54151 129.301 6.55522 128.425 7.82127C128.351 7.92664 128.253 8.01262 128.139 8.07196C128.025 8.13131 127.898 8.16229 127.77 8.16229C127.641 8.16229 127.515 8.13131 127.401 8.07196C127.287 8.01262 127.189 7.92664 127.115 7.82127C126.731 7.40591 126.231 7.11702 125.68 6.9927C125.13 6.86838 124.555 6.91448 124.031 7.12491C122.853 7.63348 121.876 8.52081 121.255 9.64726C119.621 12.7226 119.078 16.264 119.714 19.6902C120.127 22.3141 120.745 24.9012 121.564 27.4275C121.826 28.356 122.103 29.269 122.35 30.1975C122.385 30.3953 122.344 30.5991 122.237 30.7686C122.13 30.9381 121.963 31.0612 121.769 31.1135C121.576 31.1659 121.37 31.1438 121.193 31.0516C121.015 30.9594 120.878 30.8038 120.808 30.6153C120.562 29.7023 120.299 28.7893 120.037 27.8763C119.201 25.2771 118.562 22.6183 118.125 19.9224C117.452 16.1341 118.077 12.2285 119.899 8.84259C120.718 7.43136 121.99 6.34043 123.507 5.74768C124.182 5.49436 124.909 5.40713 125.625 5.49328C126.341 5.57943 127.026 5.83646 127.623 6.24286C128.614 5.10419 129.819 4.17334 131.17 3.50387C134.817 1.45246 138.957 0.451116 143.135 0.610129C146.685 0.712738 150.092 2.03462 152.787 4.35497C154.922 6.74278 156.278 9.72887 156.673 12.9124C157.337 15.752 157.463 18.6919 157.043 21.5781C155.686 28.9285 149.333 31.1878 142.796 32.8591C140.465 33.5107 138.061 33.8643 135.641 33.9114Z" fill="#4F4F4F"/>
<path d="M146.265 45.2851L147.421 58.129C147.421 58.129 146.08 66.5162 137.63 64.9688C135.139 64.4871 132.785 63.4556 130.74 61.9488C128.694 60.4421 127.009 58.4977 125.804 56.2566L124.57 32.6734C124.57 32.6734 130.553 29.0214 127.978 15.6514C134.954 18.2008 142.486 18.8156 149.78 17.4309C149.78 17.4309 154.406 31.8068 153.743 38.3371C153.08 44.8673 146.265 45.2851 146.265 45.2851Z" fill="white"/>
<path d="M139.635 65.9594C138.916 65.9517 138.199 65.8844 137.492 65.7582C134.883 65.2559 132.42 64.1719 130.285 62.5863C128.15 61.0007 126.398 58.9539 125.156 56.5973C125.136 56.5004 125.136 56.4001 125.156 56.3033L123.799 32.7201C123.791 32.575 123.822 32.4303 123.89 32.3019C123.958 32.1736 124.06 32.0666 124.185 31.9928C124.185 31.9928 129.643 28.3717 127.269 15.8218C127.238 15.6797 127.248 15.5318 127.297 15.3949C127.346 15.2581 127.432 15.1379 127.546 15.0481C127.659 14.9559 127.795 14.897 127.94 14.8779C128.084 14.8588 128.231 14.8802 128.363 14.9398C135.2 17.3961 142.564 17.9888 149.703 16.6575C149.894 16.6249 150.091 16.6614 150.257 16.7606C150.424 16.8598 150.55 17.0152 150.613 17.1991C150.798 17.8026 155.239 31.8071 154.622 38.4302C154.419 40.3581 153.565 42.1583 152.202 43.5319C150.839 44.9056 149.048 45.77 147.128 45.9817L148.223 58.0828C148.231 58.1445 148.231 58.2069 148.223 58.2685C147.752 60.7228 146.41 62.9222 144.445 64.4583C143.038 65.4527 141.355 65.9779 139.635 65.9594ZM126.59 56.0402C127.755 58.1314 129.36 59.9428 131.293 61.3485C133.226 62.7541 135.442 63.7203 137.784 64.1798C138.751 64.4175 139.756 64.4536 140.738 64.2859C141.719 64.1182 142.656 63.7503 143.489 63.2049C145.085 61.9204 146.177 60.1119 146.573 58.0983L145.432 45.3473C145.421 45.2418 145.432 45.1351 145.464 45.034C145.496 44.9328 145.548 44.8393 145.617 44.7592C145.76 44.5981 145.958 44.4983 146.172 44.4807C146.419 44.4807 152.34 44.0319 152.91 38.2909C153.45 32.782 150.058 21.2689 149.179 18.3752C142.417 19.5201 135.48 19.0213 128.949 16.9205C130.661 27.7527 126.667 31.9928 125.341 33.076L126.59 56.0402Z" fill="#4F4F4F"/>
<path d="M146.928 52.0014C146.928 52.0014 143.644 52.8525 139.774 49.5255C135.903 46.1984 136.104 44.1094 136.104 44.1094C139.28 45.6549 142.885 46.0697 146.327 45.2854L146.928 52.0014Z" fill="#4F4F4F"/>
<path d="M145.849 52.8678C143.377 52.7796 141.022 51.7955 139.218 50.0978C135.163 46.6006 135.256 44.2794 135.287 44.0318C135.3 43.9062 135.343 43.7857 135.414 43.6809C135.484 43.5761 135.579 43.4902 135.69 43.4306C135.801 43.3711 135.925 43.3398 136.051 43.3394C136.177 43.339 136.301 43.3695 136.412 43.4283C139.426 44.8732 142.834 45.2654 146.095 44.5425C146.202 44.5139 146.314 44.5088 146.423 44.5275C146.532 44.5462 146.636 44.5883 146.727 44.6508C146.817 44.7162 146.892 44.7995 146.947 44.8954C147.003 44.9912 147.038 45.0976 147.051 45.2079L147.653 51.9393C147.666 52.1191 147.616 52.298 147.512 52.4449C147.408 52.5918 147.256 52.6976 147.082 52.744C146.678 52.8366 146.263 52.8782 145.849 52.8678ZM137.229 45.4555C137.988 46.7979 138.999 47.9802 140.205 48.9373C141.777 50.4462 143.859 51.3029 146.034 51.3358L145.586 46.2292C142.781 46.7043 139.901 46.4376 137.229 45.4555Z" fill="#4F4F4F"/>
<path d="M139.681 26.2822C139.681 26.2822 143.998 33.4005 142.857 34.5456C141.716 35.6907 138.679 34.7777 138.679 34.7777" fill="white"/>
<path d="M140.945 35.9076C140.099 35.8939 139.259 35.7638 138.447 35.5207C138.253 35.4567 138.091 35.319 137.996 35.137C137.901 34.9549 137.88 34.7428 137.939 34.5458C137.999 34.3517 138.133 34.1892 138.312 34.0937C138.491 33.9981 138.7 33.9771 138.895 34.0352C139.974 34.3601 141.747 34.5613 142.302 34.0352C142.503 33.4162 140.992 29.9654 139.033 26.7157C138.98 26.6306 138.944 26.5357 138.927 26.4364C138.911 26.3372 138.914 26.2356 138.937 26.1377C138.96 26.0398 139.002 25.9474 139.061 25.866C139.12 25.7845 139.194 25.7157 139.28 25.6634C139.367 25.6101 139.464 25.5746 139.564 25.5589C139.665 25.5433 139.768 25.5478 139.867 25.5723C139.966 25.5967 140.059 25.6406 140.141 25.7014C140.223 25.7622 140.292 25.8387 140.344 25.9265C142.456 29.3928 144.692 33.8185 143.428 35.1339C142.734 35.7093 141.842 35.9873 140.945 35.9076Z" fill="#4F4F4F"/>
<path d="M140.097 40.5963H139.974C138.768 40.5385 137.587 40.2342 136.503 39.702C135.418 39.1698 134.453 38.421 133.668 37.5014C133.596 37.4308 133.539 37.3466 133.5 37.2536C133.461 37.1606 133.441 37.0607 133.441 36.9598C133.441 36.8589 133.461 36.7591 133.5 36.6661C133.539 36.5731 133.596 36.4888 133.668 36.4182C133.739 36.3457 133.825 36.2881 133.918 36.2489C134.012 36.2096 134.113 36.1893 134.215 36.1893C134.317 36.1893 134.418 36.2096 134.511 36.2489C134.605 36.2881 134.691 36.3457 134.762 36.4182C135.41 37.1756 136.205 37.7926 137.099 38.2316C137.992 38.6706 138.965 38.9224 139.959 38.9715C142.269 38.8576 144.461 37.9064 146.126 36.2944C146.27 36.1527 146.464 36.0732 146.666 36.0732C146.868 36.0732 147.061 36.1527 147.205 36.2944C147.278 36.3663 147.335 36.4519 147.374 36.5462C147.413 36.6405 147.433 36.7416 147.433 36.8438C147.433 36.9459 147.413 37.047 147.374 37.1413C147.335 37.2356 147.278 37.3212 147.205 37.3931C145.286 39.2682 142.769 40.4027 140.097 40.5963Z" fill="#4F4F4F"/>
<path d="M135.122 25.1054C135.141 24.0629 134.791 23.2111 134.34 23.2028C133.888 23.1945 133.507 24.0328 133.488 25.0753C133.469 26.1178 133.819 26.9696 134.271 26.9779C134.722 26.9862 135.103 26.1479 135.122 25.1054Z" fill="#4F4F4F"/>
<path d="M146.981 24.4608C147 23.4184 146.649 22.5665 146.198 22.5582C145.747 22.5499 145.366 23.3883 145.347 24.4308C145.327 25.4733 145.678 26.3251 146.129 26.3334C146.58 26.3417 146.962 25.5033 146.981 24.4608Z" fill="#4F4F4F"/>
<path d="M129.751 28.9593C128.935 27.7353 127.887 26.6838 126.667 25.8644C126.042 25.3638 125.277 25.0716 124.478 25.0288C123.828 25.0606 123.201 25.281 122.674 25.6633C121.88 26.1841 121.203 26.8664 120.688 27.666C120.172 28.4657 119.83 29.3649 119.683 30.3056C119.529 31.1815 119.604 32.0823 119.898 32.9208C120.418 34.2466 121.391 35.3436 122.643 36.0157C123.875 36.68 125.178 37.1993 126.529 37.5632" fill="white"/>
<path d="M126.59 38.2441C126.514 38.2591 126.435 38.2591 126.359 38.2441C124.936 37.8915 123.56 37.3721 122.258 36.6966C120.863 35.9466 119.772 34.7317 119.174 33.2613C118.828 32.2951 118.738 31.2554 118.912 30.2438C119.061 29.1732 119.437 28.1472 120.014 27.2344C120.591 26.3216 121.356 25.5433 122.258 24.9515C122.915 24.486 123.69 24.2176 124.493 24.1777C125.442 24.2361 126.35 24.5814 127.099 25.1681C128.387 26.0635 129.488 27.2045 130.337 28.5261C130.394 28.6135 130.433 28.7112 130.452 28.8137C130.471 28.9162 130.47 29.0215 130.448 29.1235C130.427 29.2255 130.385 29.3223 130.327 29.4083C130.268 29.4943 130.193 29.5679 130.106 29.6248C130.019 29.6817 129.921 29.7208 129.819 29.7399C129.717 29.7591 129.612 29.7578 129.511 29.7363C129.409 29.7147 129.312 29.6733 129.227 29.6143C129.141 29.5554 129.068 29.48 129.011 29.3927C128.284 28.2601 127.354 27.2735 126.266 26.4834C125.787 26.0685 125.187 25.819 124.555 25.7716C124.055 25.8113 123.575 25.9879 123.167 26.2823C122.466 26.7463 121.87 27.3521 121.416 28.0609C120.962 28.7698 120.66 29.566 120.531 30.3985C120.4 31.1449 120.464 31.9125 120.716 32.6268C121.181 33.75 122.027 34.6712 123.106 35.2266C124.302 35.8663 125.57 36.3599 126.883 36.6966C126.984 36.725 127.078 36.7734 127.16 36.8389C127.242 36.9043 127.311 36.9856 127.361 37.0778C127.411 37.1701 127.442 37.2715 127.453 37.3761C127.464 37.4807 127.454 37.5864 127.423 37.687C127.373 37.8641 127.262 38.0174 127.109 38.1196C126.956 38.2217 126.772 38.2658 126.59 38.2441Z" fill="#4F4F4F"/>
<path d="M83.9878 153.592C83.9878 153.592 91.0497 158.389 93.8097 159.132C96.5697 159.874 106.299 153.236 108.596 152.942C110.894 152.648 117.57 155.402 118.526 154.133C119.482 152.865 115.874 150.187 112.158 149.228C112.158 149.228 120.13 151.688 121.41 151.472C122.689 151.255 124.493 150.621 122.951 148.594C121.41 146.566 114.779 145.081 114.779 145.081C114.779 145.081 124.555 148.176 124.971 146.628C125.388 145.081 121.471 141.738 116.691 141.088C116.691 141.088 125.665 143.75 125.002 141.088C124.339 138.427 113.623 136.446 108.319 138.117C103.015 139.789 95.367 144.508 94.3031 144.307C93.2392 144.106 91.6818 141.769 91.6818 141.769L83.9878 153.592Z" fill="white"/>
<path d="M94.3031 159.998C94.0685 160.002 93.8346 159.971 93.6092 159.905C90.7567 159.132 83.8336 154.443 83.5407 154.242C83.4531 154.185 83.3776 154.112 83.3184 154.026C83.2593 153.94 83.2178 153.843 83.1963 153.741C83.1748 153.639 83.1737 153.533 83.1931 153.431C83.2125 153.328 83.252 153.23 83.3094 153.143L91.0188 141.367C91.0909 141.257 91.1894 141.166 91.3052 141.104C91.421 141.042 91.5505 141.01 91.6818 141.011C91.8105 141.015 91.9365 141.048 92.0511 141.107C92.1656 141.166 92.2659 141.249 92.3449 141.351C93.0079 142.326 94.0409 143.471 94.4881 143.549C95.9931 142.97 97.4562 142.288 98.8671 141.506C101.847 139.915 104.939 138.544 108.118 137.405C113.421 136.207 118.966 136.749 123.938 138.953C124.372 139.141 124.763 139.417 125.087 139.763C125.41 140.109 125.66 140.518 125.819 140.964C125.899 141.235 125.904 141.522 125.833 141.794C125.763 142.067 125.619 142.315 125.418 142.512C124.866 142.921 124.193 143.134 123.507 143.115C124.22 143.642 124.841 144.285 125.341 145.019C125.552 145.286 125.702 145.596 125.781 145.928C125.861 146.259 125.869 146.603 125.804 146.938C125.758 147.097 125.679 147.246 125.573 147.374C125.467 147.502 125.335 147.606 125.187 147.68C124.634 147.9 124.035 147.975 123.445 147.897L123.661 148.16C123.97 148.492 124.185 148.901 124.285 149.344C124.386 149.787 124.367 150.249 124.231 150.683C123.907 151.518 122.998 152.06 121.564 152.307C120.573 152.307 119.586 152.166 118.634 151.89C118.973 152.227 119.236 152.633 119.405 153.081C119.5 153.336 119.531 153.61 119.496 153.88C119.461 154.149 119.361 154.406 119.205 154.629C118.372 155.727 116.321 155.278 113.037 154.474C111.639 154.051 110.194 153.807 108.735 153.746C107.001 154.361 105.332 155.149 103.755 156.099C99.4838 158.358 96.2613 159.998 94.3031 159.998ZM85.0517 153.36C87.8536 155.33 90.8504 157.005 93.9947 158.358C95.3516 158.729 99.9001 156.3 102.907 154.69C104.639 153.605 106.505 152.752 108.458 152.153C110.116 152.157 111.764 152.413 113.345 152.911C114.836 153.407 116.401 153.642 117.971 153.607C117.971 153.128 116.013 151.363 113.099 150.342L111.958 150.002C111.761 149.934 111.598 149.794 111.501 149.61C111.403 149.427 111.379 149.212 111.434 149.011C111.488 148.811 111.619 148.64 111.798 148.536C111.976 148.431 112.189 148.402 112.389 148.454C112.76 148.549 113.125 148.662 113.484 148.795C116.033 149.642 118.648 150.273 121.302 150.683C122.258 150.528 122.689 150.234 122.844 150.048C122.998 149.862 122.844 149.568 122.458 149.073C121.337 148.068 119.995 147.341 118.542 146.953C117 146.566 115.627 146.133 114.687 145.839C114.493 145.778 114.33 145.644 114.232 145.465C114.134 145.286 114.11 145.076 114.163 144.88C114.214 144.68 114.341 144.508 114.517 144.401C114.692 144.294 114.903 144.26 115.103 144.307C116.385 144.597 117.651 144.953 118.896 145.375C120.651 145.923 122.472 146.225 124.308 146.272C124.247 146.082 124.153 145.904 124.031 145.746C122.818 144.338 121.261 143.271 119.513 142.651C118.372 142.404 117.324 142.125 116.614 141.908C116.442 141.836 116.3 141.706 116.213 141.54C116.126 141.375 116.099 141.184 116.138 141C116.176 140.817 116.277 140.652 116.423 140.536C116.569 140.419 116.751 140.357 116.938 140.361C117.944 140.5 118.931 140.75 119.883 141.104C121.348 141.574 122.909 141.659 124.416 141.351C124.138 140.909 123.735 140.559 123.26 140.346C118.671 138.351 113.573 137.858 108.689 138.937C105.607 140.058 102.608 141.398 99.7151 142.945C96.2459 144.694 95.0894 145.282 94.2877 145.127C93.3049 144.743 92.4573 144.075 91.8515 143.208L85.0517 153.36Z" fill="#4F4F4F"/>
<path d="M93.9793 322.249C93.688 327.33 92.6916 332.346 91.0188 337.151C88.4593 343.542 88.6751 346.946 91.0188 349.082C93.3625 351.217 105.436 351.419 111.171 347.534C116.907 343.65 109.722 333.607 109.629 329.646C109.705 326.294 109.989 322.95 110.478 319.634L93.9793 322.249Z" fill="#4F4F4F"/>
<path d="M154.098 319.695C154.098 319.695 151.338 329.909 152.186 336.717C153.034 343.526 154.098 342.675 154.098 342.675H168.098L168.946 340.091C173.242 341.877 177.727 343.165 182.314 343.929C188.682 344.78 202.683 343.929 202.266 341.159C201.85 338.389 186.354 333.421 182.314 328.593C178.275 323.765 168.73 311.123 168.73 311.123L154.098 319.695Z" fill="#4F4F4F"/>
<path d="M151.739 172.176C151.576 172.178 151.416 172.128 151.283 172.034C151.15 171.939 151.051 171.805 150.998 171.65C150.928 171.453 150.937 171.236 151.023 171.045C151.11 170.854 151.267 170.705 151.461 170.629C154.452 169.53 166.433 169.081 169.748 169.081C169.378 163.727 167.404 134.093 167.666 122.008C167.928 109.427 169.023 85.6425 169.378 84.5747C169.439 84.3695 169.579 84.1972 169.767 84.0956C169.955 83.994 170.176 83.9715 170.38 84.0331C170.585 84.0947 170.756 84.2352 170.857 84.4239C170.959 84.6125 170.981 84.8337 170.92 85.0389C170.642 86.4316 169.578 108.73 169.285 122.039C168.992 135.347 171.398 169.453 171.413 169.793C171.422 169.902 171.409 170.012 171.375 170.116C171.34 170.219 171.285 170.315 171.213 170.397C171.139 170.475 171.051 170.537 170.953 170.579C170.855 170.622 170.749 170.644 170.642 170.644C166.356 170.752 154.653 171.217 152.047 172.192L151.739 172.176Z" fill="#4F4F4F"/>
<path d="M78.3136 108.762C78.1006 108.762 77.8959 108.679 77.7431 108.53C77.6681 108.456 77.6084 108.368 77.5677 108.271C77.527 108.174 77.506 108.07 77.506 107.965C77.506 107.859 77.527 107.755 77.5677 107.658C77.6084 107.561 77.6681 107.473 77.7431 107.4C77.8973 107.245 93.1621 92.1575 102.521 86.0914C102.608 86.0339 102.706 85.9943 102.808 85.9748C102.91 85.9553 103.015 85.9564 103.117 85.978C103.219 85.9996 103.315 86.0412 103.401 86.1006C103.487 86.1599 103.56 86.2357 103.616 86.3236C103.673 86.4108 103.713 86.5085 103.732 86.6111C103.752 86.7137 103.751 86.8192 103.729 86.9214C103.708 87.0236 103.666 87.1205 103.607 87.2065C103.548 87.2925 103.472 87.3658 103.385 87.4223C94.2414 93.4109 79.0846 108.39 78.8687 108.545C78.7166 108.683 78.5189 108.761 78.3136 108.762Z" fill="#4F4F4F"/>
</g>
<defs>
<clipPath id="clip0">
<rect width="566" height="350" fill="white"/>
</clipPath>
</defs>
</svg>
