<svg width="566" height="350" viewBox="0 0 566 350" fill="none" xmlns="http://www.w3.org/2000/svg">
<g clip-path="url(#clip0)">
<path d="M427.333 143.18C427.333 143.18 436.766 129.993 438.601 126.96C443.195 117.228 444.397 110.384 449.56 110.53C452.125 110.53 448.553 116.304 446.475 124.219C446.475 124.219 467.858 109.054 471.219 113.238C474.58 117.423 474.791 126.96 471.219 130.318C467.647 133.675 453.733 139.757 452.564 141.574C451.395 143.391 444.446 156.172 444.446 156.172L427.333 143.18Z" fill="white"/>
<path d="M444.381 156.998C444.205 157 444.034 156.942 443.894 156.836L426.829 143.86C426.662 143.732 426.551 143.543 426.521 143.334C426.491 143.125 426.543 142.912 426.667 142.741C426.765 142.612 436.1 129.538 437.919 126.651C438.958 124.413 439.867 122.223 440.679 120.31C443.293 114.016 445.047 109.815 449.398 109.815H449.576C449.845 109.806 450.112 109.863 450.352 109.982C450.593 110.101 450.801 110.278 450.956 110.497C451.703 111.616 450.957 113.546 449.706 116.985C449.154 118.509 448.489 120.228 447.888 122.272C453.847 118.185 468.638 108.729 471.852 112.751C475.067 116.774 475.814 127.138 471.771 130.917C468.349 133.475 464.684 135.691 460.828 137.535C457.581 139.157 453.7 141.33 453.262 142.028C452.109 143.812 445.144 156.398 445.144 156.528C445.086 156.626 445.009 156.711 444.917 156.778C444.825 156.845 444.719 156.893 444.608 156.917L444.381 156.998ZM428.453 143.017L444.137 154.971C445.761 152.116 450.875 142.79 451.882 141.217C452.531 140.211 455.275 138.719 460 136.172C463.721 134.374 467.27 132.24 470.602 129.798C473.85 126.814 473.752 117.86 470.521 113.822C469.32 112.329 461.202 114.811 446.881 124.965C446.745 125.059 446.584 125.109 446.418 125.109C446.253 125.109 446.092 125.059 445.956 124.965C445.815 124.876 445.708 124.744 445.649 124.589C445.591 124.434 445.584 124.264 445.631 124.105C446.394 121.202 447.352 118.59 448.115 116.482C448.878 114.373 449.739 111.892 449.544 111.389H449.447C446.199 111.389 444.77 114.487 442.108 120.893C441.296 122.84 440.387 125.029 439.266 127.381C437.675 130.058 430.369 140.26 428.453 143.017Z" fill="#4F4F4F"/>
<path d="M423.225 144.315L426.943 138.524L446.475 155.004L442.936 161.232L423.225 144.315Z" fill="#4F4F4F"/>
<path d="M442.936 162.042C442.746 162.034 442.564 161.966 442.416 161.848L422.641 144.914C422.493 144.786 422.396 144.61 422.367 144.417C422.337 144.224 422.376 144.027 422.478 143.86L426.196 138.086C426.261 137.99 426.345 137.909 426.443 137.847C426.54 137.786 426.65 137.746 426.765 137.729C426.879 137.713 426.996 137.72 427.108 137.751C427.22 137.782 427.324 137.835 427.414 137.908L446.897 154.387C447.047 154.505 447.15 154.674 447.185 154.861C447.221 155.049 447.188 155.243 447.092 155.409L443.553 161.621C443.493 161.726 443.412 161.816 443.314 161.886C443.215 161.956 443.103 162.004 442.985 162.026L442.936 162.042ZM424.264 144.152L442.692 159.966L445.404 155.1L427.106 139.659L424.264 144.152Z" fill="#4F4F4F"/>
<path d="M241.737 119.32H313.387C319.973 119.322 326.493 120.621 332.575 123.143C338.658 125.664 344.183 129.359 348.835 134.015C353.487 138.671 357.175 144.198 359.687 150.279C362.199 156.36 363.487 162.877 363.476 169.455V268.233H191.632V169.455C191.622 162.875 192.91 156.358 195.423 150.276C197.936 144.193 201.625 138.666 206.279 134.009C210.933 129.353 216.46 125.659 222.544 123.138C228.628 120.618 235.15 119.32 241.737 119.32Z" fill="#4F4F4F"/>
<path d="M363.476 268.963H191.632C191.417 268.963 191.21 268.877 191.058 268.725C190.906 268.573 190.82 268.367 190.82 268.152V169.456C190.838 155.971 196.208 143.043 205.753 133.508C215.298 123.972 228.238 118.608 241.737 118.591H313.387C326.885 118.608 339.824 123.973 349.366 133.509C358.909 143.044 364.275 155.972 364.288 169.456V268.233C364.268 268.434 364.173 268.62 364.023 268.755C363.873 268.89 363.678 268.964 363.476 268.963ZM192.444 267.341H362.664V169.456C362.651 156.402 357.456 143.887 348.218 134.656C338.98 125.424 326.454 120.23 313.387 120.213H241.737C228.669 120.23 216.141 125.424 206.901 134.655C197.66 143.886 192.461 156.401 192.444 169.456V267.341Z" fill="#4F4F4F"/>
<path d="M260.084 103.052C260.084 103.052 215.516 117.001 210.645 127.657C207.138 135.313 197.493 195.893 196.341 225.867C195.155 256.798 186.485 271.006 186.485 271.006L226.702 272.401C226.702 272.401 229.95 240.254 230.404 228.527C230.922 219.876 231.881 211.258 233.278 202.705C233.278 202.705 237.191 222.785 236.931 230.084C236.671 237.383 234.301 272.401 234.301 272.401H338.212C338.212 272.401 332.984 226.175 333.504 219.914C334.023 213.653 339.998 187.053 339.998 187.053L352.516 121.072C352.516 121.072 310.156 103.847 305.107 102.03C300.057 100.213 260.084 103.052 260.084 103.052Z" fill="#E67E22"/>
<path d="M287.636 273.261C287.421 273.261 287.215 273.175 287.063 273.023C286.91 272.871 286.825 272.665 286.825 272.45V217.303C286.825 217.088 286.91 216.882 287.063 216.73C287.215 216.578 287.421 216.492 287.636 216.492C287.85 216.496 288.054 216.583 288.206 216.734C288.357 216.886 288.444 217.089 288.448 217.303V272.45C288.444 272.664 288.357 272.868 288.206 273.019C288.054 273.17 287.85 273.257 287.636 273.261Z" fill="#4F4F4F"/>
<path d="M264.906 92.2988L303.288 92.4124L302.607 107.059H275.508L262.341 100.765L264.906 92.2988Z" fill="#4F4F4F"/>
<path d="M302.607 107.821H275.508C275.396 107.845 275.28 107.845 275.167 107.821L262 101.528C261.821 101.446 261.678 101.302 261.598 101.123C261.517 100.944 261.504 100.742 261.561 100.554L264.127 92.0877C264.179 91.9223 264.283 91.7779 264.423 91.6757C264.563 91.5736 264.733 91.519 264.906 91.52L303.288 91.6498C303.398 91.6472 303.506 91.6676 303.607 91.7095C303.707 91.7514 303.798 91.8139 303.873 91.8931C303.952 91.9706 304.014 92.0645 304.053 92.1681C304.092 92.2717 304.108 92.3827 304.1 92.4932L303.418 107.091C303.398 107.292 303.304 107.478 303.154 107.613C303.004 107.748 302.809 107.822 302.607 107.821ZM275.687 106.199H301.843L302.444 93.2231L265.507 93.1096L263.331 100.327L275.687 106.199Z" fill="#4F4F4F"/>
<path d="M313.274 55.1069C315.206 50.1405 316.35 44.9035 316.667 39.5847C316.837 37.8046 316.837 36.0123 316.667 34.2323C316.161 31.8222 315.494 29.4488 314.67 27.1281C315.7 25.5886 316.346 23.8256 316.555 21.9861C316.764 20.1465 316.529 18.2836 315.871 16.5529L313.306 20.0239C313.769 17.3168 313.638 14.5418 312.923 11.89C312.208 9.23828 310.927 6.77292 309.166 4.66388C306.032 8.38178 301.786 10.997 297.054 12.1249C298.613 10.8994 299.842 9.30652 300.633 7.48908C301.424 5.67164 301.75 3.68654 301.584 1.71191C298.418 4.8423 293.628 5.63706 289.179 5.70194C284.73 5.76682 280.184 5.24779 275.882 6.38316C271.792 7.53565 268.129 9.85861 265.344 13.0656C263.071 15.6446 263.039 18.5317 260.295 20.6889C253.801 25.8305 253.216 30.5828 254.223 38.644C255.132 46.0239 257.665 53.2417 258.395 60.5729C266.919 61.0919 275.525 61.8218 284.146 61.6921C290.981 61.6434 309.62 63.1518 313.274 55.1069Z" fill="white"/>
<path d="M291.127 62.6166H287.442C286.175 62.6166 285.055 62.6166 284.195 62.6166C277.181 62.7139 270.134 62.2597 263.299 61.8056L258.428 61.4974C258.235 61.4836 258.054 61.4031 257.915 61.2698C257.775 61.1366 257.687 60.9589 257.665 60.7675C257.191 56.9438 256.487 53.1523 255.554 49.4138C254.686 45.9263 253.998 42.3966 253.492 38.8386C252.437 30.4044 253.135 25.4574 259.873 20.1374C261.078 19.0967 262.009 17.7768 262.584 16.2933C263.141 14.9688 263.891 13.7336 264.809 12.6277C267.676 9.29689 271.449 6.86854 275.671 5.63705C278.977 4.93498 282.364 4.68939 285.737 4.90716C286.89 4.90716 288.026 4.90716 289.163 4.90716C294.651 4.90716 298.531 3.6096 301.015 1.16043C301.123 1.05164 301.26 0.975625 301.409 0.94118C301.559 0.906734 301.715 0.915266 301.86 0.965793C302.006 1.01998 302.133 1.11416 302.228 1.23752C302.323 1.36088 302.381 1.50843 302.395 1.66324C302.689 4.81518 301.804 7.96406 299.911 10.5029C303.244 9.1508 306.19 6.99412 308.484 4.22594C308.56 4.13626 308.655 4.06383 308.761 4.01349C308.867 3.96314 308.983 3.93604 309.101 3.93399C309.219 3.93386 309.336 3.95999 309.442 4.01049C309.549 4.06099 309.643 4.13459 309.718 4.22594C312.764 7.85809 314.401 12.4637 314.329 17.2016L315.141 16.0987C315.226 15.9798 315.342 15.8866 315.477 15.8293C315.611 15.7721 315.759 15.7531 315.904 15.7743C316.048 15.7911 316.184 15.8469 316.299 15.9355C316.413 16.0241 316.501 16.1422 316.553 16.2771C317.242 18.0638 317.505 19.986 317.322 21.8918C317.139 23.7976 316.514 25.6347 315.498 27.2578C316.324 29.5051 316.965 31.8159 317.414 34.1674C317.594 36.0012 317.594 37.8482 317.414 39.682C317.109 45.0876 315.941 50.4098 313.956 55.4475C311.082 61.9029 299.749 62.6166 291.127 62.6166ZM284.941 60.9946H287.458C295.187 61.0919 309.572 61.2866 312.511 54.7987C314.388 49.9128 315.483 44.7623 315.758 39.5361C315.93 37.8048 315.93 36.0608 315.758 34.3296C315.758 33.7456 314.329 28.6203 313.939 27.6795C313.831 27.5402 313.773 27.3691 313.773 27.1929C313.773 27.0168 313.831 26.8456 313.939 26.7063C314.762 25.4996 315.331 24.1381 315.61 22.7048C315.889 21.2715 315.873 19.7964 315.563 18.3694L313.939 20.5429C313.829 20.6874 313.673 20.7907 313.497 20.8363C313.321 20.8818 313.135 20.8669 312.968 20.7939C312.801 20.721 312.664 20.5942 312.578 20.434C312.492 20.2737 312.463 20.0893 312.494 19.9103C312.913 17.4781 312.829 14.986 312.249 12.5873C311.668 10.1885 310.602 7.93369 309.117 5.96144C305.97 9.44724 301.846 11.9058 297.281 13.017C297.097 13.0663 296.902 13.0496 296.729 12.9697C296.557 12.8898 296.417 12.7518 296.336 12.5799C296.255 12.4079 296.237 12.213 296.285 12.029C296.333 11.845 296.444 11.6838 296.599 11.5734C297.836 10.5947 298.852 9.36668 299.583 7.9694C300.313 6.57211 300.74 5.03686 300.837 3.46362C298.077 5.45863 294.261 6.46425 289.228 6.52912C288.059 6.52912 286.906 6.52912 285.737 6.52912C282.512 6.3147 279.272 6.54392 276.109 7.21035C272.173 8.34501 268.653 10.5993 265.978 13.6982C265.168 14.6813 264.501 15.7733 263.997 16.9421C263.299 18.6642 262.183 20.1858 260.75 21.3701C254.58 26.236 253.979 30.6153 254.969 38.5953C255.408 42.0663 256.22 45.586 256.999 48.9921C257.885 52.5749 258.579 56.2024 259.077 59.8592L263.299 60.1188C270.102 60.5729 277.148 61.0271 284.081 60.9297L284.941 60.9946Z" fill="#4F4F4F"/>
<path d="M267.569 56.3558C266.4 46.9971 251.024 44.1749 251.333 55.1556C251.33 58.9985 252.694 62.7175 255.181 65.6497C256.427 67.0756 258.069 68.1003 259.898 68.594C261.728 69.0877 263.663 69.0283 265.458 68.4232" fill="white"/>
<path d="M262.503 69.7532C261.005 69.7243 259.529 69.3884 258.166 68.7662C256.803 68.1441 255.582 67.2489 254.58 66.1362C251.985 63.0756 250.553 59.1989 250.537 55.188C250.342 49.7544 253.784 47.5323 257.032 47.2728C259.707 47.0804 262.358 47.8962 264.462 49.5594C266.566 51.2227 267.97 53.6126 268.397 56.2585C268.42 56.4712 268.357 56.6844 268.224 56.8515C268.09 57.0186 267.895 57.1261 267.682 57.1505C267.471 57.1699 267.26 57.1089 267.091 56.9796C266.923 56.8503 266.809 56.6623 266.773 56.4531C266.39 54.2354 265.199 52.2374 263.432 50.8425C261.664 49.4475 259.442 48.7539 257.194 48.8947C253.947 49.1543 252.112 51.425 252.242 55.1393C252.229 58.7538 253.481 62.2592 255.781 65.0495C256.91 66.3596 258.404 67.3044 260.073 67.7636C261.741 68.2229 263.508 68.1758 265.15 67.6284C265.348 67.5477 265.57 67.5484 265.768 67.6304C265.965 67.7125 266.122 67.8691 266.205 68.0663C266.282 68.267 266.28 68.4895 266.198 68.6885C266.117 68.8874 265.962 69.0478 265.767 69.1368C264.727 69.5436 263.62 69.7526 262.503 69.7532Z" fill="#4F4F4F"/>
<path d="M301.048 56.3558C302.217 46.9971 317.593 44.1749 317.203 55.1556C317.232 58.9863 315.904 62.7039 313.452 65.6497C312.205 67.0739 310.563 68.0973 308.734 68.5908C306.905 69.0844 304.971 69.0261 303.175 68.4232" fill="white"/>
<path d="M306.113 69.7532C305.002 69.7541 303.9 69.545 302.866 69.1368C302.665 69.0541 302.504 68.8952 302.419 68.6949C302.334 68.4945 302.331 68.2686 302.412 68.0663C302.494 67.8691 302.652 67.7125 302.849 67.6304C303.047 67.5484 303.269 67.5477 303.467 67.6284C305.111 68.1793 306.881 68.2282 308.553 67.7689C310.225 67.3095 311.721 66.3627 312.852 65.0495C315.152 62.2592 316.403 58.7538 316.391 55.1393C316.521 51.425 314.767 49.1543 311.439 48.8947C309.191 48.7539 306.969 49.4475 305.201 50.8425C303.433 52.2374 302.243 54.2354 301.86 56.4531C301.824 56.6623 301.71 56.8503 301.542 56.9796C301.373 57.1089 301.162 57.1699 300.95 57.1505C300.846 57.1385 300.744 57.1058 300.652 57.0543C300.56 57.0028 300.479 56.9335 300.414 56.8505C300.349 56.7675 300.302 56.6724 300.274 56.5707C300.246 56.4691 300.239 56.3629 300.252 56.2585C300.68 53.6126 302.083 51.2227 304.187 49.5594C306.291 47.8962 308.942 47.0804 311.618 47.2728C314.865 47.5323 318.258 49.7544 318.112 55.188C318.129 59.1934 316.719 63.0743 314.134 66.1362C313.121 67.2616 311.885 68.1643 310.504 68.787C309.124 69.4096 307.628 69.7387 306.113 69.7532Z" fill="#4F4F4F"/>
<path d="M266.384 102.857C266.384 102.857 273.479 106.491 285.672 106.912C297.865 107.334 299.895 104.025 299.895 104.025L299.603 97.5373L298.937 82.3882L298.304 68.2284L270.459 67.2715L269.127 78.7874L268.722 82.5342L266.384 102.857Z" fill="white"/>
<path d="M287.767 107.82H285.656C273.414 107.399 266.302 103.83 266.01 103.684C265.865 103.608 265.746 103.49 265.667 103.346C265.589 103.201 265.556 103.037 265.572 102.873L269.647 67.1902C269.655 67.0878 269.684 66.9881 269.731 66.8967C269.778 66.8054 269.842 66.7242 269.921 66.6578C269.999 66.5915 270.09 66.5413 270.188 66.5102C270.286 66.4791 270.389 66.4677 270.491 66.4766L298.32 67.4497C298.523 67.4571 298.717 67.5388 298.863 67.6794C299.01 67.82 299.1 68.0096 299.116 68.2121L300.739 104.057C300.752 104.217 300.712 104.377 300.626 104.512C300.366 104.804 298.223 107.82 287.767 107.82ZM267.244 102.435C273.119 104.792 279.375 106.056 285.705 106.166C295.446 106.507 298.434 104.398 299.067 103.798L297.525 69.0392L271.173 68.1309L267.244 102.435Z" fill="#4F4F4F"/>
<path d="M268.722 82.486C270.945 85.9467 273.991 88.805 277.587 90.8067C283.464 94.3264 292.297 98.3651 299.603 97.5054L298.937 82.3563C293.585 82.8326 288.196 82.6802 282.88 81.9021C278.155 81.5367 273.516 80.4424 269.128 78.6582L268.722 82.486Z" fill="#4F4F4F"/>
<path d="M297.622 98.4294C290.023 98.4294 281.743 94.1961 277.246 91.5036C273.514 89.4441 270.364 86.4759 268.088 82.8748C268.007 82.7263 267.973 82.5565 267.991 82.3882L268.397 78.6252C268.412 78.4981 268.457 78.3763 268.527 78.2693C268.598 78.1624 268.692 78.0732 268.803 78.0089C268.918 77.9491 269.046 77.918 269.176 77.918C269.306 77.918 269.434 77.9491 269.55 78.0089C273.867 79.7248 278.423 80.7643 283.058 81.0906C288.314 81.8776 293.645 82.03 298.937 81.5447C299.16 81.527 299.382 81.5968 299.554 81.7394C299.719 81.8908 299.818 82.1002 299.83 82.3233L300.496 97.4724C300.505 97.6772 300.437 97.878 300.305 98.0344C300.172 98.1909 299.985 98.2915 299.781 98.3158C299.064 98.3945 298.343 98.4324 297.622 98.4294ZM269.631 82.3071C271.77 85.5586 274.675 88.2372 278.09 90.1087C282.685 92.866 291.339 97.2778 298.84 96.775L298.239 83.2478C293.11 83.629 287.954 83.4495 282.863 82.7126C278.429 82.3601 274.062 81.422 269.874 79.9228L269.631 82.3071Z" fill="#4F4F4F"/>
<path d="M308.679 31.1342L307.51 64.8873C307.465 66.3311 307.27 67.7663 306.925 69.1692C305.754 73.9258 302.979 78.1346 299.067 81.0883C295.155 84.0419 290.345 85.5605 285.445 85.3889L283.009 85.3564C278.401 85.1966 273.969 83.5507 270.375 80.6651C266.781 77.7794 264.219 73.809 263.071 69.3477C262.574 67.3765 262.356 65.3456 262.422 63.314L263.591 29.5771C263.591 29.5771 268.803 36.4543 283.919 36.4543C292.463 36.5184 300.916 34.7021 308.679 31.1342Z" fill="white"/>
<path d="M286.257 86.2808H285.494L282.993 86.1835C277.123 85.9763 271.575 83.4495 267.568 79.1582C263.562 74.8669 261.425 69.1622 261.626 63.2976L262.795 29.5608C262.806 29.3943 262.865 29.2344 262.966 29.1016C263.067 28.9688 263.206 28.869 263.364 28.8147C263.523 28.7677 263.693 28.7688 263.852 28.8179C264.011 28.8669 264.151 28.9618 264.257 29.0905C264.257 29.0905 269.436 35.5783 283.578 35.5783H283.984C292.378 35.6378 300.686 33.8839 308.338 30.4367C308.461 30.3655 308.601 30.328 308.744 30.328C308.886 30.328 309.026 30.3655 309.15 30.4367C309.269 30.5129 309.366 30.6188 309.431 30.7439C309.497 30.8691 309.528 31.0092 309.523 31.1504L308.354 64.9034C308.308 66.4015 308.107 67.8909 307.753 69.3476C306.578 74.1631 303.823 78.4469 299.927 81.516C296.031 84.585 291.218 86.2624 286.257 86.2808ZM264.354 31.4585L263.25 63.3463C263.181 65.2968 263.394 67.2471 263.883 69.1367C264.994 73.4151 267.454 77.223 270.898 79.9977C274.342 82.7724 278.588 84.3668 283.009 84.5454L285.51 84.6427C290.23 84.7904 294.858 83.315 298.62 80.4631C302.382 77.6112 305.05 73.5557 306.178 68.9745C306.499 67.6229 306.684 66.2429 306.73 64.8547L307.851 32.4155C300.282 35.5783 292.155 37.1942 283.951 37.1678H283.513C272.521 37.1841 266.773 33.5346 264.273 31.4585H264.354Z" fill="#4F4F4F"/>
<path d="M285.169 50.0464C285.169 50.0464 292.183 65.5037 289.082 65.7794C285.981 66.0552 281.564 63.752 281.564 63.752" fill="white"/>
<path d="M288.546 66.6228C285.977 66.4024 283.477 65.6747 281.191 64.4818C281.096 64.4318 281.012 64.3635 280.943 64.281C280.875 64.1985 280.823 64.1033 280.792 64.0009C280.76 63.8985 280.749 63.7908 280.759 63.6841C280.769 63.5774 280.8 63.4737 280.85 63.3789C280.9 63.2841 280.968 63.2001 281.051 63.1317C281.134 63.0633 281.229 63.0118 281.331 62.9801C281.434 62.9485 281.542 62.9374 281.648 62.9474C281.755 62.9573 281.859 62.9882 281.954 63.0383C281.954 63.0383 286.159 65.2441 289.001 64.9846C289.682 64.0925 287.604 57.3938 284.422 50.387C284.349 50.1939 284.352 49.9802 284.431 49.7895C284.51 49.5988 284.659 49.4454 284.848 49.3606C285.036 49.2758 285.25 49.266 285.445 49.3331C285.641 49.4003 285.803 49.5393 285.899 49.722C287.328 52.8523 291.842 63.2653 290.364 65.8281C290.234 66.04 290.056 66.2189 289.844 66.3511C289.633 66.4833 289.395 66.5652 289.147 66.5904L288.546 66.6228Z" fill="#4F4F4F"/>
<path d="M289.504 75.5111C285.509 75.4104 281.576 74.4999 277.944 72.8348C277.844 72.794 277.753 72.7338 277.677 72.6577C277.601 72.5815 277.541 72.491 277.5 72.3914C277.459 72.2917 277.439 72.1849 277.439 72.0773C277.44 71.9696 277.463 71.8632 277.505 71.7643C277.594 71.5688 277.756 71.4156 277.956 71.3369C278.156 71.2582 278.378 71.2602 278.577 71.3426C288.887 75.7543 294.423 72.9646 294.472 72.9646C294.664 72.8684 294.886 72.8519 295.09 72.9188C295.294 72.9856 295.463 73.1304 295.56 73.3214C295.61 73.4148 295.642 73.5174 295.652 73.623C295.662 73.7287 295.651 73.8353 295.619 73.9366C295.587 74.0379 295.535 74.1318 295.467 74.2128C295.398 74.2938 295.314 74.3602 295.219 74.4081C293.421 75.1992 291.468 75.5761 289.504 75.5111Z" fill="#4F4F4F"/>
<path d="M276.093 51.0195C276.9 51.0195 277.554 49.5381 277.554 47.7107C277.554 45.8833 276.9 44.4019 276.093 44.4019C275.286 44.4019 274.632 45.8833 274.632 47.7107C274.632 49.5381 275.286 51.0195 276.093 51.0195Z" fill="#4F4F4F"/>
<path d="M295.674 51.0195C296.481 51.0195 297.135 49.5381 297.135 47.7107C297.135 45.8833 296.481 44.4019 295.674 44.4019C294.867 44.4019 294.212 45.8833 294.212 47.7107C294.212 49.5381 294.867 51.0195 295.674 51.0195Z" fill="#4F4F4F"/>
<path d="M261.026 99.9053L287.117 213.751L293.043 185.448L306.844 99.9053L285.672 106.912L261.026 99.9053Z" fill="#4F4F4F"/>
<path d="M287.117 214.562C286.933 214.56 286.755 214.497 286.611 214.382C286.467 214.268 286.365 214.108 286.322 213.93L260.279 100.084C260.246 99.9483 260.25 99.8063 260.29 99.6725C260.33 99.5386 260.404 99.4177 260.506 99.3218C260.608 99.2246 260.733 99.1555 260.87 99.1214C261.007 99.0873 261.15 99.0892 261.285 99.1271L285.64 106.069L306.568 99.1433C306.699 99.0975 306.841 99.0868 306.977 99.1124C307.114 99.138 307.242 99.199 307.347 99.2893C307.454 99.3795 307.535 99.4955 307.583 99.6262C307.632 99.7569 307.646 99.8978 307.623 100.035L293.839 185.578L287.88 213.913C287.841 214.093 287.743 214.254 287.602 214.371C287.461 214.488 287.284 214.556 287.101 214.562H287.117ZM262.13 101.025L287.085 210.004L292.248 185.334L305.821 101.155L285.932 107.642C285.779 107.691 285.614 107.691 285.461 107.642L262.13 101.025Z" fill="#4F4F4F"/>
<path d="M276.515 110.464L280.882 119.32L276.206 164.654L287.523 209.501L296.615 164.686L289.488 118.801L293.043 111.843L285.672 106.912L276.515 110.464Z" fill="white"/>
<path d="M287.539 210.312C287.357 210.311 287.181 210.25 287.037 210.139C286.893 210.027 286.79 209.872 286.744 209.696L275.378 164.865C275.362 164.768 275.362 164.67 275.378 164.573L280.022 119.483L275.784 110.821C275.74 110.716 275.717 110.603 275.717 110.489C275.717 110.375 275.74 110.262 275.784 110.156C275.824 110.05 275.887 109.955 275.968 109.876C276.05 109.798 276.148 109.738 276.255 109.702L285.396 106.15C285.511 106.09 285.64 106.059 285.77 106.059C285.899 106.059 286.028 106.09 286.143 106.15L293.514 111.016C293.676 111.128 293.793 111.294 293.844 111.484C293.894 111.674 293.875 111.876 293.79 112.054L290.348 118.785L297.427 164.589C297.452 164.68 297.452 164.775 297.427 164.865L288.351 209.696C288.312 209.875 288.214 210.036 288.072 210.154C287.931 210.271 287.755 210.338 287.572 210.345L287.539 210.312ZM277.034 164.589L287.442 205.82L295.803 164.589L288.692 118.866C288.663 118.694 288.692 118.518 288.773 118.363L292.02 112.054L285.526 107.756L277.586 110.837L281.548 118.947C281.624 119.086 281.652 119.245 281.629 119.401L277.034 164.589Z" fill="#4F4F4F"/>
<path d="M303.288 92.4282C302.753 92.4282 285.429 106.912 285.429 106.912L296.096 119.32L306.747 99.8568L303.288 92.4282Z" fill="white"/>
<path d="M296.177 120.131C296.06 120.133 295.944 120.11 295.838 120.062C295.731 120.014 295.636 119.944 295.56 119.856L284.893 107.431C284.757 107.268 284.687 107.06 284.698 106.847C284.706 106.74 284.736 106.636 284.786 106.541C284.837 106.446 284.906 106.363 284.99 106.296C302.46 91.6982 302.85 91.6982 303.288 91.6982C303.44 91.6979 303.59 91.7404 303.719 91.8207C303.848 91.901 303.952 92.0159 304.019 92.1524L307.575 99.6459C307.634 99.7583 307.666 99.8836 307.666 100.011C307.666 100.138 307.634 100.263 307.575 100.376L296.924 119.839C296.86 119.955 296.769 120.054 296.659 120.127C296.548 120.2 296.422 120.246 296.291 120.261L296.177 120.131ZM286.662 107.01L296.031 117.909L305.919 99.8892L302.947 93.6122C300.512 95.4612 292.264 102.306 286.662 107.01Z" fill="#4F4F4F"/>
<path d="M264.906 92.2988C265.474 92.2988 285.672 106.896 285.672 106.896L273.349 119.304L261.026 99.841L264.906 92.2988Z" fill="white"/>
<path d="M273.349 120.131H273.268C273.146 120.117 273.029 120.076 272.925 120.012C272.822 119.947 272.733 119.861 272.667 119.758L260.344 100.295C260.275 100.173 260.24 100.036 260.24 99.8971C260.24 99.7579 260.275 99.6211 260.344 99.4997L264.224 91.8765C264.289 91.7431 264.391 91.631 264.517 91.5534C264.644 91.4759 264.79 91.436 264.939 91.4386C265.263 91.4386 265.767 91.4386 286.192 106.198C286.284 106.271 286.36 106.362 286.416 106.465C286.472 106.568 286.506 106.682 286.516 106.799C286.525 106.914 286.509 107.03 286.47 107.139C286.431 107.248 286.369 107.347 286.289 107.431L273.966 119.855C273.888 119.941 273.792 120.01 273.686 120.058C273.58 120.105 273.465 120.13 273.349 120.131ZM261.984 99.8728L273.511 118.039L284.454 107.009C277.538 102.014 267.877 95.1042 265.263 93.4174L261.984 99.8728Z" fill="#4F4F4F"/>
<path d="M261.026 99.9053C261.026 99.9053 283.513 200.613 287.637 210.783C287.637 210.783 240.325 130.463 240.065 128.89C239.805 127.316 246.851 120.78 246.851 120.78L241.104 118.201L246.283 108.858L261.026 99.9053Z" fill="#E67E22"/>
<path d="M287.637 211.626C287.497 211.626 287.36 211.59 287.237 211.521C287.115 211.453 287.013 211.356 286.939 211.237C275.817 192.357 239.529 130.642 239.253 129.052C238.977 127.463 242.273 124.008 245.406 120.942L240.795 118.899C240.69 118.853 240.596 118.786 240.518 118.702C240.44 118.619 240.38 118.52 240.341 118.412C240.297 118.31 240.274 118.199 240.274 118.088C240.274 117.976 240.297 117.866 240.341 117.763L245.52 108.421C245.596 108.3 245.695 108.195 245.812 108.113L260.555 99.2082C260.671 99.1522 260.799 99.123 260.928 99.123C261.057 99.123 261.185 99.1522 261.302 99.2082C261.419 99.26 261.522 99.3383 261.604 99.4368C261.686 99.5353 261.743 99.6513 261.772 99.7759C262 100.782 284.292 200.532 288.335 210.54C288.413 210.727 288.416 210.938 288.344 211.128C288.271 211.318 288.129 211.473 287.945 211.562C287.848 211.606 287.743 211.628 287.637 211.626ZM242.175 117.812L247.046 120.018C247.168 120.074 247.275 120.16 247.357 120.267C247.438 120.373 247.493 120.499 247.515 120.631C247.538 120.764 247.527 120.9 247.485 121.028C247.443 121.155 247.37 121.271 247.274 121.364C244.172 124.251 240.779 127.949 240.779 128.841C241.51 130.804 270.085 179.544 284.747 204.441C278.252 181.182 262.682 111.373 260.392 101.219L246.884 109.443L242.175 117.812Z" fill="#4F4F4F"/>
<path d="M306.828 99.9053C306.828 99.9053 291.761 200.613 287.637 210.783C287.637 210.783 327.545 130.463 327.805 128.89C328.065 127.316 321.018 120.78 321.018 120.78L326.766 118.201L321.587 108.858L306.828 99.9053Z" fill="#E67E22"/>
<path d="M287.637 211.626C287.524 211.649 287.408 211.649 287.296 211.626C287.108 211.537 286.96 211.382 286.882 211.189C286.804 210.997 286.801 210.782 286.874 210.588C290.917 200.613 305.886 100.895 306.032 99.889C306.053 99.7573 306.105 99.6325 306.184 99.5252C306.263 99.4178 306.367 99.3312 306.487 99.2727C306.605 99.2128 306.736 99.1816 306.869 99.1816C307.001 99.1816 307.132 99.2128 307.25 99.2727L322.009 108.177C322.125 108.256 322.22 108.361 322.285 108.485L327.48 117.828C327.524 117.93 327.547 118.041 327.547 118.152C327.547 118.264 327.524 118.374 327.48 118.477C327.448 118.585 327.392 118.685 327.316 118.769C327.24 118.854 327.147 118.92 327.042 118.963L322.415 121.039C325.532 124.04 328.812 127.527 328.552 129.149C328.292 130.771 294.992 197.839 288.319 211.285C288.241 211.393 288.138 211.479 288.019 211.539C287.901 211.598 287.769 211.628 287.637 211.626ZM307.461 101.333C305.838 111.681 295.674 179.284 290.413 203.516C302.948 178.246 326.425 130.771 327.026 128.906C326.928 128.127 323.551 124.429 320.531 121.542C320.435 121.449 320.362 121.334 320.319 121.207C320.277 121.08 320.266 120.945 320.288 120.812C320.308 120.679 320.362 120.552 320.445 120.444C320.527 120.337 320.635 120.251 320.759 120.196L325.629 117.99L320.97 109.442L307.461 101.333Z" fill="#4F4F4F"/>
<path d="M234.561 263.626C234.348 263.61 234.151 263.51 234.011 263.349C233.871 263.189 233.8 262.979 233.814 262.767C233.814 262.491 235.843 236.134 236.184 230.052C236.46 225.056 235.356 218.828 233.684 209.404C233.327 207.377 232.937 205.187 232.531 202.916C230.291 189.859 213.324 136.416 213.161 135.832C213.104 135.63 213.127 135.414 213.225 135.229C213.324 135.043 213.491 134.903 213.69 134.838C213.89 134.773 214.107 134.788 214.296 134.88C214.485 134.971 214.631 135.132 214.704 135.329C215.402 137.535 231.865 189.47 234.187 202.641C234.593 204.992 234.967 207.166 235.34 209.209C236.964 218.747 238.149 225.04 237.857 230.214C237.499 236.329 235.502 262.653 235.486 262.961C235.45 263.171 235.333 263.359 235.16 263.483C234.987 263.608 234.771 263.659 234.561 263.626Z" fill="#4F4F4F"/>
<path d="M116.329 243.043H449.69L503.188 320.168H62.8303L116.329 243.043Z" fill="white"/>
<path d="M503.188 320.979H62.8306C62.6829 320.978 62.5384 320.936 62.4125 320.859C62.2866 320.782 62.1842 320.672 62.1162 320.541C62.0402 320.416 62 320.273 62 320.127C62 319.981 62.0402 319.838 62.1162 319.714L115.696 242.589C115.768 242.479 115.867 242.389 115.983 242.327C116.1 242.265 116.229 242.232 116.361 242.232H449.69C449.822 242.232 449.952 242.265 450.068 242.327C450.184 242.389 450.283 242.479 450.356 242.589L503.821 319.714C503.897 319.838 503.938 319.981 503.938 320.127C503.938 320.273 503.897 320.416 503.821 320.541C503.76 320.66 503.671 320.763 503.56 320.84C503.45 320.916 503.322 320.964 503.188 320.979ZM64.3893 319.357H501.63L449.268 243.854H116.751L64.3893 319.357Z" fill="#4F4F4F"/>
<path d="M503.172 320.168H63.3334V335.139H503.172V320.168Z" fill="white"/>
<path d="M503.188 335.95H63.3337C63.1184 335.95 62.9119 335.864 62.7596 335.712C62.6074 335.56 62.5219 335.354 62.5219 335.139V320.168C62.526 319.954 62.6129 319.75 62.7642 319.599C62.9156 319.448 63.1197 319.361 63.3337 319.357H503.188C503.402 319.361 503.606 319.448 503.757 319.599C503.909 319.75 503.995 319.954 504 320.168V335.139C504 335.354 503.914 335.56 503.762 335.712C503.61 335.864 503.403 335.95 503.188 335.95ZM64.1455 334.328H502.376V320.979H64.1455V334.328Z" fill="#4F4F4F"/>
<path d="M493.723 335.139H72.7997V350.109H493.723V335.139Z" fill="#4F4F4F"/>
<path d="M493.723 350.92H72.7996C72.5843 350.92 72.3778 350.835 72.2256 350.683C72.0733 350.531 71.9878 350.324 71.9878 350.109V335.139C71.9878 334.924 72.0733 334.717 72.2256 334.565C72.3778 334.413 72.5843 334.328 72.7996 334.328H493.723C493.938 334.328 494.144 334.413 494.297 334.565C494.449 334.717 494.534 334.924 494.534 335.139V350.109C494.53 350.323 494.443 350.527 494.292 350.678C494.141 350.829 493.937 350.916 493.723 350.92ZM73.5627 349.298H492.911V335.95H73.5627V349.298Z" fill="#4F4F4F"/>
<path d="M396.63 308.279L382.992 290.129L430.71 289.302L396.63 308.279Z" fill="#4F4F4F"/>
<path d="M396.663 309.09C396.536 309.091 396.412 309.063 396.299 309.006C396.186 308.95 396.088 308.867 396.013 308.766L382.375 290.6C382.288 290.482 382.234 290.343 382.22 290.197C382.206 290.052 382.231 289.905 382.294 289.773C382.358 289.637 382.459 289.523 382.585 289.443C382.712 289.362 382.858 289.319 383.008 289.318L430.726 288.491C430.904 288.499 431.076 288.56 431.218 288.667C431.36 288.775 431.466 288.922 431.522 289.091C431.569 289.264 431.556 289.448 431.485 289.613C431.415 289.778 431.29 289.914 431.132 290L397.036 308.993C396.921 309.053 396.793 309.086 396.663 309.09ZM384.632 290.908L396.89 307.225L427.511 290.162L384.632 290.908Z" fill="#4F4F4F"/>
<path d="M472.145 281.614H396.63V308.279H472.145V281.614Z" fill="white"/>
<path d="M472.145 309.09H396.663C396.447 309.09 396.241 309.004 396.089 308.852C395.936 308.7 395.851 308.494 395.851 308.279V281.614C395.851 281.399 395.936 281.192 396.089 281.04C396.241 280.888 396.447 280.803 396.663 280.803H472.177C472.392 280.803 472.599 280.888 472.751 281.04C472.903 281.192 472.989 281.399 472.989 281.614V308.279C472.989 308.388 472.967 308.496 472.924 308.597C472.881 308.697 472.819 308.788 472.74 308.864C472.661 308.94 472.568 308.999 472.465 309.038C472.363 309.076 472.254 309.094 472.145 309.09ZM397.458 307.468H471.349V282.425H397.442L397.458 307.468Z" fill="#4F4F4F"/>
<path d="M230.534 299.618L251.398 260.82H147.665L110.76 299.618H230.534Z" fill="#4F4F4F"/>
<path d="M230.534 300.429H110.76C110.6 300.429 110.443 300.383 110.309 300.295C110.175 300.207 110.07 300.081 110.008 299.934C109.945 299.786 109.928 299.624 109.957 299.466C109.987 299.309 110.063 299.164 110.175 299.05L147.08 260.285C147.154 260.203 147.244 260.137 147.345 260.092C147.445 260.048 147.554 260.025 147.665 260.025H251.398C251.539 260.025 251.677 260.061 251.8 260.131C251.923 260.2 252.025 260.301 252.098 260.422C252.17 260.543 252.209 260.681 252.211 260.822C252.214 260.963 252.18 261.102 252.112 261.226L231.248 300.007C231.178 300.135 231.075 300.242 230.949 300.316C230.824 300.39 230.68 300.429 230.534 300.429ZM112.643 298.807H230.047L250.05 261.631H148.006L112.643 298.807Z" fill="#4F4F4F"/>
<path d="M230.534 232.712C230.534 256.652 202.462 281.565 202.462 281.565L164.875 272.353L196.341 225.819C196.341 225.819 230.534 208.821 230.534 232.712Z" fill="#E67E22"/>
<path d="M90.1074 222.023H209.882L230.534 299.618H110.76L90.1074 222.023Z" fill="white"/>
<path d="M230.534 300.429H110.76C110.581 300.426 110.407 300.366 110.264 300.258C110.121 300.15 110.016 300 109.964 299.828L89.3118 222.234C89.2825 222.113 89.2809 221.987 89.3071 221.865C89.3332 221.744 89.3865 221.629 89.463 221.531C89.5395 221.433 89.6371 221.353 89.7487 221.298C89.8603 221.243 89.9829 221.213 90.1074 221.212H209.947C210.126 221.217 210.299 221.279 210.439 221.39C210.58 221.501 210.68 221.655 210.726 221.828L231.378 299.407C231.411 299.526 231.415 299.652 231.39 299.773C231.364 299.894 231.31 300.008 231.232 300.104C231.152 300.212 231.046 300.298 230.924 300.354C230.802 300.411 230.668 300.436 230.534 300.429ZM111.377 298.807H229.43L209.2 222.834H91.1628L111.377 298.807Z" fill="#4F4F4F"/>
<path d="M352.581 121.072C352.581 121.072 388.918 178.83 393.318 184.88C404.683 168.839 421.829 143.099 421.829 143.099L446.102 163.941C446.102 163.941 413.142 236.929 389.47 229.728C365.798 222.526 327.773 173.462 327.773 173.462L352.581 121.072Z" fill="#E67E22"/>
<path d="M336.589 203.987H336.394C336.188 203.933 336.012 203.801 335.903 203.619C335.794 203.437 335.76 203.22 335.809 203.013L348.798 150.04C348.821 149.936 348.865 149.838 348.927 149.752C348.989 149.665 349.068 149.592 349.159 149.538C349.25 149.483 349.352 149.448 349.457 149.434C349.563 149.42 349.67 149.427 349.773 149.456C349.981 149.506 350.161 149.637 350.274 149.819C350.386 150.001 350.422 150.221 350.373 150.429L337.384 203.387C337.337 203.561 337.234 203.714 337.09 203.823C336.946 203.932 336.769 203.989 336.589 203.987Z" fill="#4F4F4F"/>
<path d="M214.428 17.834H91.861V110.61H214.428V17.834Z" fill="white"/>
<path d="M214.428 111.405H91.8609C91.6456 111.405 91.4391 111.32 91.2868 111.168C91.1346 111.016 91.0491 110.81 91.0491 110.594V17.8344C91.0491 17.6193 91.1346 17.4131 91.2868 17.261C91.4391 17.1089 91.6456 17.0234 91.8609 17.0234H214.428C214.643 17.0234 214.85 17.1089 215.002 17.261C215.154 17.4131 215.24 17.6193 215.24 17.8344V110.594C215.24 110.81 215.154 111.016 215.002 111.168C214.85 111.32 214.643 111.405 214.428 111.405ZM92.6565 109.783H213.6V18.613H92.6727L92.6565 109.783Z" fill="#E4E5E7"/>
<path d="M128.425 90.2707C128.227 90.2676 128.031 90.2403 127.84 90.1896L126.363 89.7679L122.417 88.6325C122.147 88.5447 121.886 88.4307 121.638 88.2919C121.201 88.091 120.835 87.7609 120.591 87.3462C120.348 86.9314 120.237 86.452 120.274 85.9725L120.648 82.3555C120.648 82.0311 120.648 81.6743 120.648 81.3499C120.664 81.1693 120.635 80.9875 120.565 80.8206C120.494 80.6537 120.383 80.5068 120.242 80.3929C119.3 79.6792 118.391 78.9494 117.482 78.2195L117.173 77.9762C116.988 77.8183 116.762 77.7149 116.521 77.6777C116.28 77.6405 116.034 77.6708 115.809 77.7653L113.423 78.5277L112.351 78.8521H112.189C111.848 79.0153 111.477 79.1057 111.099 79.1173C110.722 79.1289 110.346 79.0615 109.996 78.9195C109.646 78.7775 109.329 78.5639 109.066 78.2925C108.804 78.0212 108.601 77.6979 108.471 77.3436C107.707 76.0298 106.944 74.6025 106.003 72.7048C105.668 72.1871 105.547 71.5602 105.665 70.9555C105.783 70.3507 106.131 69.8151 106.636 69.4609C107.675 68.5364 108.552 67.8389 109.396 67.1577C109.742 66.9387 110.013 66.6195 110.172 66.2428C110.332 65.866 110.373 65.4496 110.289 65.0491C110.159 64.2544 110.062 63.4272 109.964 62.6811L109.802 61.3024C109.769 61.1778 109.704 61.0641 109.612 60.9729C109.521 60.8817 109.407 60.8164 109.282 60.7834L107.919 60.0535L106.035 58.9992C105.106 58.6176 104.346 57.9153 103.892 57.0204C103.885 56.9395 103.885 56.8581 103.892 56.7771V56.323C103.884 56.2313 103.884 56.139 103.892 56.0473L104.184 54.8957C104.412 54.0036 104.639 53.0953 104.882 52.187C105.077 51.522 105.288 50.8408 105.499 50.1758C105.668 49.6027 106.023 49.1021 106.508 48.7527C106.993 48.4033 107.581 48.2249 108.178 48.2456C108.876 48.2456 109.558 48.2456 110.257 48.4078H111.279H111.718C112.074 48.4391 112.433 48.4391 112.789 48.4078C112.992 48.3921 113.188 48.3251 113.358 48.2132C114.494 46.9481 115.55 45.6667 116.426 44.5638C116.498 44.4258 116.535 44.2729 116.535 44.1177C116.535 43.9625 116.498 43.8096 116.426 43.6717C116.28 43.1364 116.118 42.6012 115.939 42.0497L115.338 40.0385C115.163 39.5153 115.07 38.9682 115.062 38.4165C115.052 38.1083 115.112 37.8017 115.239 37.5205C115.365 37.2392 115.555 36.9909 115.793 36.7946C117.625 35.3769 119.661 34.2449 121.833 33.4371C122.296 33.2554 122.806 33.2283 123.286 33.3598C123.766 33.4914 124.19 33.7745 124.496 34.167L125.421 35.2213C125.989 35.8538 126.541 36.5026 127.045 37.1676C127.195 37.4845 127.444 37.7442 127.754 37.908C128.064 38.0717 128.419 38.1306 128.766 38.0759C129.626 37.9299 130.503 37.8326 131.38 37.7353L132.792 37.5569C132.912 37.5424 133.025 37.4975 133.122 37.4265C133.218 37.3554 133.295 37.2607 133.344 37.1514L134.059 35.8376L134.757 34.54C135.049 34.0048 135.341 33.4695 135.666 32.9181C135.919 32.45 136.323 32.0813 136.812 31.8721C137.302 31.663 137.848 31.6257 138.361 31.7665C140.277 32.2531 142.193 32.7721 144.093 33.3884C144.622 33.5461 145.081 33.8798 145.394 34.3342C145.707 34.7885 145.855 35.3362 145.814 35.8863C145.814 36.5999 145.716 37.2974 145.651 38.011L145.554 39.0329C145.554 39.5032 145.554 39.9736 145.554 40.444C145.539 40.6346 145.571 40.8261 145.648 41.0014C145.724 41.1768 145.842 41.3307 145.992 41.4496L146.739 42.0497C147.551 42.6985 148.363 43.3473 149.158 44.0285C149.35 44.2101 149.588 44.3338 149.847 44.3855C150.105 44.4372 150.373 44.4146 150.62 44.3205L152.503 43.7204L154.516 43.104C155.115 42.8625 155.784 42.8571 156.386 43.0889C156.989 43.3207 157.481 43.7725 157.764 44.3529C158.662 45.8776 159.523 47.4184 160.345 48.9755C160.736 49.5636 160.879 50.2822 160.742 50.9748C160.605 51.6675 160.2 52.2781 159.615 52.6736C159.225 53.0304 158.819 53.371 158.397 53.7116L157.601 54.3766C157.147 54.7821 156.708 55.1876 156.27 55.6256C156.169 55.7233 156.092 55.8428 156.044 55.9749C155.996 56.107 155.979 56.2482 155.994 56.3879L156.091 57.2475C156.189 58.3504 156.302 59.4372 156.449 60.4914C156.47 60.7357 156.557 60.9697 156.7 61.1693C156.843 61.3689 157.036 61.5268 157.26 61.6268L158.267 62.1134L159.647 62.7946C160.167 63.0704 160.686 63.3299 161.173 63.6543C161.653 63.9313 162.024 64.3635 162.225 64.8796C162.425 65.3957 162.444 65.9647 162.277 66.4927C161.806 68.212 161.303 69.9313 160.8 71.6505C160.704 71.9436 160.579 72.2262 160.426 72.494C160.22 72.9249 159.888 73.283 159.473 73.5206C159.058 73.7582 158.581 73.864 158.105 73.824L154.435 73.5158H154.11C153.744 73.4471 153.365 73.4928 153.025 73.6465C152.685 73.8003 152.401 74.0548 152.211 74.3754C151.772 74.9918 151.269 75.5757 150.782 76.1596L150.181 76.8733C149.956 77.1284 149.807 77.4409 149.749 77.7761C149.692 78.1112 149.729 78.4557 149.857 78.7709C150.263 79.9225 150.636 81.0741 150.977 82.2582C151.116 82.563 151.192 82.8927 151.201 83.2275C151.21 83.5623 151.151 83.8955 151.028 84.2073C150.906 84.519 150.721 84.8029 150.487 85.042C150.252 85.2812 149.971 85.4708 149.662 85.5994C148.233 86.4266 146.658 87.2214 144.791 88.2432C144.277 88.5724 143.658 88.6968 143.057 88.5916C142.455 88.4865 141.915 88.1595 141.544 87.6755C140.943 87.043 140.391 86.378 139.92 85.713L139.547 85.275C138.28 83.7666 138.231 83.7504 136.299 84.0099L133.702 84.3505C133.418 84.3745 133.146 84.4726 132.912 84.6349C132.678 84.7971 132.492 85.0179 132.37 85.275L131.932 86.1671C131.623 86.7997 131.315 87.416 130.99 88.0324C130.705 88.5479 130.373 89.0365 130 89.4921C129.811 89.7298 129.572 89.9228 129.299 90.0574C129.027 90.192 128.729 90.2648 128.425 90.2707ZM116.296 76.0461C116.96 76.0436 117.603 76.2731 118.115 76.6948L118.423 76.9544L121.167 79.1278C121.498 79.3846 121.763 79.7147 121.944 80.0919C122.124 80.4692 122.214 80.8832 122.206 81.3012C122.206 81.6905 122.206 82.096 122.206 82.4852L121.898 86.1022C121.898 86.3617 121.898 86.5888 122.353 86.8159C122.52 86.9235 122.7 87.0107 122.888 87.0754L126.817 88.2108L128.311 88.6325C128.441 88.6325 128.587 88.6325 128.798 88.4216C129.113 88.0558 129.391 87.6591 129.626 87.2376C129.935 86.6375 130.243 86.0211 130.536 85.421L130.99 84.5127C131.231 84.0207 131.592 83.5976 132.041 83.2827C132.489 82.9679 133.011 82.7717 133.555 82.7123L136.153 82.3555C138.654 82.0311 139.254 82.3555 140.878 84.2045L141.235 84.6425C141.771 85.275 142.307 85.9238 142.859 86.5401C142.922 86.6438 143.007 86.7328 143.107 86.8013C143.208 86.8699 143.321 86.9164 143.441 86.9379C143.561 86.9593 143.683 86.9552 143.801 86.9258C143.919 86.8964 144.03 86.8423 144.125 86.7672C145.911 85.8427 147.47 84.9831 148.882 84.1721C149.646 83.7179 149.71 83.5557 149.451 82.6637C149.126 81.5121 148.736 80.3929 148.363 79.2575C148.141 78.6838 148.08 78.0608 148.186 77.4551C148.292 76.8494 148.561 76.2838 148.964 75.819L149.564 75.0891C150.035 74.5376 150.506 73.9862 150.928 73.4671C151.29 72.9006 151.811 72.4535 152.426 72.1822C153.042 71.9109 153.724 71.8275 154.386 71.9425H154.614L158.267 72.2669C158.422 72.2836 158.578 72.2479 158.711 72.1656C158.843 72.0833 158.944 71.9591 158.998 71.8127C159.117 71.6379 159.21 71.4467 159.274 71.245C159.777 69.5258 160.264 67.8227 160.751 66.1034C160.82 65.9045 160.813 65.6874 160.732 65.4931C160.652 65.2988 160.502 65.1408 160.313 65.0491C159.874 64.7734 159.42 64.5301 158.949 64.2868L157.585 63.6218L156.562 63.119C156.117 62.8889 155.735 62.5522 155.452 62.139C155.169 61.7258 154.992 61.2489 154.939 60.751C154.809 59.648 154.695 58.5451 154.581 57.507V56.6474C154.535 56.2685 154.577 55.8841 154.704 55.524C154.83 55.1639 155.039 54.8379 155.312 54.5713C155.767 54.1009 156.237 53.663 156.725 53.2413L157.569 52.5438C157.958 52.2194 158.332 51.9113 158.705 51.5706C159.387 50.9381 159.436 50.6461 159.014 49.8351C158.186 48.2132 157.39 46.7696 156.465 45.2612C156.413 45.1331 156.334 45.0173 156.235 44.9213C156.135 44.8253 156.016 44.7512 155.886 44.7038C155.756 44.6565 155.618 44.6368 155.48 44.6462C155.342 44.6556 155.207 44.6939 155.085 44.7584L153.12 45.3585L151.188 45.9587C150.682 46.1374 150.137 46.176 149.611 46.0703C149.085 45.9647 148.598 45.7187 148.201 45.3585C147.437 44.6935 146.577 44.0447 145.83 43.4122L145.099 42.812C144.759 42.5418 144.486 42.1958 144.302 41.8016C144.119 41.4073 144.031 40.9758 144.044 40.5413C144.044 40.0223 144.044 39.5195 144.044 38.9193C144.044 38.3192 144.044 38.2219 144.158 37.8651C144.158 37.2001 144.288 36.5351 144.304 35.87C144.32 35.205 144.125 35.0591 143.736 34.9618C141.852 34.3941 139.969 33.8913 138.069 33.3398C137.793 33.2587 137.468 33.2587 137.16 33.7615C136.851 34.2643 136.575 34.7671 136.299 35.2861L135.601 36.5675L134.871 37.9137C134.697 38.2432 134.447 38.5268 134.142 38.7411C133.838 38.9554 133.486 39.0943 133.117 39.1464L131.688 39.3086C130.828 39.4059 129.967 39.5032 129.123 39.633C128.514 39.7488 127.885 39.6882 127.31 39.4582C126.734 39.2283 126.237 38.8387 125.876 38.3354C125.356 37.6867 124.804 37.0541 124.252 36.4377L123.31 35.3672C123.217 35.2246 123.076 35.12 122.912 35.0724C122.748 35.0248 122.573 35.0374 122.417 35.1077C120.401 35.8697 118.508 36.9245 116.8 38.2381C116.789 38.346 116.789 38.4547 116.8 38.5625C116.805 38.9713 116.876 39.3766 117.011 39.7628C117.206 40.4278 117.4 41.0928 117.612 41.7416L118.099 43.3635C118.242 43.7565 118.285 44.1793 118.223 44.5931C118.16 45.0069 117.995 45.3983 117.741 45.7316C116.848 46.8507 115.777 48.1645 114.624 49.4621C114.183 49.8818 113.608 50.1342 113 50.1758C112.536 50.2253 112.068 50.2253 111.604 50.1758H111.198L110.143 50.0784C109.493 50.0784 108.828 49.9487 108.178 49.9325C107.929 49.9114 107.681 49.9823 107.48 50.1317C107.28 50.2812 107.141 50.4988 107.091 50.7434C106.879 51.3922 106.685 52.0248 106.506 52.6736C106.262 53.5657 106.035 54.474 105.808 55.366L105.548 56.3879V56.5663C105.893 57.0378 106.358 57.4076 106.896 57.6368L108.828 58.6586L110.192 59.3723C110.539 59.5559 110.837 59.822 111.058 60.1472C111.278 60.4724 111.416 60.8468 111.458 61.2375L111.637 62.6324C111.718 63.3947 111.815 64.2544 111.929 64.9518C112.058 65.6392 111.986 66.3492 111.721 66.9966C111.456 67.6439 111.009 68.2011 110.435 68.6012C109.623 69.2176 108.812 69.9313 107.772 70.8233C107.22 71.3099 107.188 71.4883 107.496 72.1047C108.438 73.9699 109.12 75.3486 109.916 76.6786C110.5 77.6842 110.63 77.7329 111.815 77.4085L112.984 77.0354L115.355 76.2893C115.654 76.1587 115.972 76.0766 116.296 76.0461ZM133.085 73.7591C129.903 73.7488 126.841 72.5439 124.507 70.3837C122.174 68.2234 120.738 65.2656 120.485 62.0972C120.349 60.4405 120.546 58.7734 121.065 57.1939C121.583 55.6145 122.413 54.1547 123.505 52.9007C125.115 50.973 127.264 49.57 129.678 48.872C132.091 48.1739 134.659 48.2128 137.05 48.9835C139.441 49.7542 141.547 51.2216 143.097 53.1971C144.647 55.1726 145.571 57.5659 145.749 60.0697C146.049 63.2534 145.074 66.4263 143.037 68.8932C141.949 70.2557 140.588 71.3773 139.043 72.187C137.497 72.9967 135.8 73.4768 134.059 73.5969L133.085 73.7591ZM132.987 49.9163H132.094C129.226 50.2239 126.59 51.631 124.739 53.8414C123.79 54.9362 123.068 56.2079 122.614 57.5832C122.159 58.9584 121.982 60.4099 122.093 61.8539C122.268 64.0615 123.102 66.1658 124.487 67.8945C125.873 69.6232 127.746 70.8967 129.864 71.5502C131.982 72.2037 134.247 72.207 136.367 71.5598C138.487 70.9126 140.364 69.6446 141.755 67.92C142.639 66.8496 143.302 65.6148 143.706 64.2869C144.111 62.959 144.247 61.5643 144.109 60.1833C143.911 57.3795 142.65 54.7568 140.584 52.8492C138.517 50.9416 135.801 49.8928 132.987 49.9163Z" fill="#E4E5E7"/>
<path d="M179.212 99.5164H178.952C178.221 99.4353 177.507 99.3056 176.792 99.1758L175.916 99.0136C175.525 98.9585 175.169 98.7636 174.912 98.4652C174.655 98.1668 174.515 97.7852 174.519 97.3917C174.519 97.1159 174.519 96.824 174.519 96.5483V95.721C174.544 95.5652 174.544 95.4065 174.519 95.2507C174.223 94.7004 173.755 94.2618 173.187 94.0013C172.618 93.7407 171.98 93.6726 171.369 93.8071L170.85 94.0829C170.493 94.2613 170.152 94.4559 169.778 94.6019C169.517 94.7204 169.23 94.7678 168.945 94.7393C168.659 94.7109 168.387 94.6075 168.155 94.4397C167.038 93.5336 166.158 92.3704 165.589 91.0498L165.492 90.693C165.451 90.5005 165.451 90.3016 165.492 90.1091V89.9955C165.545 89.7828 165.633 89.5801 165.752 89.3954C165.98 89.0468 166.241 88.7209 166.531 88.4222C166.984 88.0475 167.282 87.518 167.366 86.9365C167.45 86.3549 167.314 85.763 166.986 85.2756C166.695 84.9214 166.336 84.6291 165.93 84.416C165.599 84.2392 165.257 84.0822 164.907 83.9456L164.307 83.7023C163.968 83.5643 163.687 83.3163 163.507 82.9984C163.327 82.6805 163.26 82.3113 163.316 81.9506V81.3829C163.446 80.4746 163.56 79.5825 163.738 78.6904C163.82 78.4051 163.974 78.1452 164.184 77.9352C164.394 77.7253 164.654 77.5721 164.94 77.4902C165.474 77.3774 166.018 77.323 166.564 77.328C166.952 77.3292 167.333 77.2259 167.667 77.029C168.001 76.832 168.276 76.5487 168.463 76.2088C168.797 75.863 169.001 75.412 169.04 74.9328C169.078 74.4536 168.949 73.9759 168.674 73.5813C167.489 71.5538 167.797 70.9861 169.583 69.6075C169.892 69.348 170.217 69.1209 170.541 68.8938L171.24 68.391C171.503 68.1617 171.84 68.0353 172.189 68.0353C172.539 68.0353 172.876 68.1617 173.139 68.391L174.113 69.202L174.893 69.8508C175.015 69.9641 175.163 70.0468 175.324 70.0919C175.485 70.137 175.654 70.1433 175.818 70.1103L176.435 69.9643L177.02 69.8345C177.369 69.7894 177.694 69.6321 177.946 69.3863C178.197 69.1406 178.363 68.8197 178.416 68.4721C179.114 66.0229 179.845 65.7148 181.663 66.0554H182.118L183.157 66.2824L183.888 66.4284C184.284 66.4762 184.648 66.668 184.912 66.9672C185.175 67.2663 185.319 67.6519 185.316 68.0504L185.414 69.0073C185.414 69.4777 185.527 69.9319 185.56 70.4022C185.592 70.8726 185.56 70.6942 185.771 70.8077L186.193 71.0672C187.817 72.0728 187.817 72.0728 189.44 71.2619L189.684 71.1483C189.903 70.9963 190.151 70.8906 190.413 70.8376C190.675 70.7846 190.945 70.7854 191.206 70.8401C191.467 70.8947 191.715 71.002 191.933 71.1554C192.152 71.3088 192.337 71.5051 192.476 71.7322C192.899 72.2188 193.272 72.7379 193.646 73.2569L194.116 73.8894C194.386 74.1875 194.535 74.5747 194.535 74.9762C194.535 75.3776 194.386 75.7648 194.116 76.0629L194.003 76.1926C193.467 76.8576 192.915 77.5064 192.379 78.2039C192.429 78.7228 192.538 79.2343 192.704 79.7285L192.834 80.2151C192.88 80.4061 192.98 80.5802 193.12 80.7177C193.261 80.8553 193.437 80.9509 193.629 80.9936C194.314 81.2004 194.973 81.4833 195.594 81.8371C195.869 82.0102 196.096 82.2493 196.255 82.5326C196.414 82.8159 196.499 83.1344 196.503 83.459C196.45 84.4921 196.336 85.5211 196.162 86.5407C196.106 86.9993 195.879 87.4201 195.528 87.7203C195.176 88.0205 194.725 88.1783 194.262 88.1627C194.095 88.1773 193.927 88.1773 193.759 88.1627C193.121 88.1043 192.482 88.2632 191.945 88.6136C191.409 88.964 191.007 89.4853 190.804 90.0928C190.698 90.2636 190.634 90.4578 190.62 90.6586C190.606 90.8593 190.641 91.0604 190.723 91.2444L190.934 91.7635L191.421 92.8664C191.646 93.2757 191.709 93.7543 191.598 94.2077C191.487 94.6612 191.209 95.0565 190.82 95.3156C190.057 95.867 189.31 96.4347 188.564 96.9375C188.247 97.2103 187.838 97.3507 187.42 97.3295C187.003 97.3084 186.61 97.1273 186.323 96.824L185.69 96.2887L184.764 95.4777C184.67 95.3634 184.545 95.2782 184.404 95.2323C184.263 95.1863 184.112 95.1814 183.969 95.2182H183.66C183.136 95.3128 182.621 95.4484 182.118 95.6237C181.95 95.7161 181.814 95.8575 181.728 96.0292C181.501 96.4894 181.327 96.9737 181.209 97.4728C181.176 97.9958 180.956 98.4896 180.589 98.8646C180.223 99.2396 179.734 99.4709 179.212 99.5164ZM171.759 92.0879C172.429 92.0947 173.089 92.2498 173.691 92.542C174.194 92.7505 174.647 93.0638 175.02 93.461C175.392 93.8581 175.675 94.33 175.851 94.8452C175.908 95.1065 175.941 95.3726 175.948 95.6399V96.4509V97.2457L176.922 97.5376C177.588 97.6674 178.27 97.7972 178.952 97.862C179.098 97.862 179.406 97.862 179.569 97.2944C179.726 96.6799 179.944 96.0823 180.218 95.5102C180.488 94.9982 180.922 94.5923 181.452 94.3586C182.04 94.1513 182.642 93.9886 183.254 93.872H183.547C183.947 93.7844 184.363 93.7978 184.757 93.911C185.151 94.0243 185.511 94.2339 185.803 94.5208C186.096 94.7965 186.388 95.0398 186.68 95.2831L187.33 95.8508H187.508L189.798 94.2288C189.96 94.0991 190.025 94.0666 189.879 93.7423C189.733 93.4179 189.538 92.9962 189.375 92.6069L189.164 92.1041C188.991 91.7011 188.911 91.2641 188.93 90.8259C188.95 90.3877 189.069 89.9596 189.278 89.5738C189.636 88.6453 190.292 87.8622 191.145 87.3482C191.998 86.8342 192.997 86.6186 193.986 86.7354H194.344C194.636 86.7354 194.652 86.6381 194.668 86.4921C194.835 85.5263 194.944 84.5514 194.993 83.5726L194.879 83.4104C194.361 83.1335 193.817 82.9054 193.256 82.7291C192.808 82.6079 192.4 82.3697 192.075 82.039C191.75 81.7084 191.518 81.2972 191.405 80.8477L191.259 80.3611C191.113 79.842 190.983 79.3392 190.869 78.7391C190.799 78.255 190.915 77.7623 191.194 77.3604C191.73 76.6468 192.298 75.9655 192.817 75.3005L192.931 75.1546V74.9924L192.444 74.3436C192.103 73.857 191.746 73.3704 191.356 72.9163C190.967 72.4621 191.015 72.5594 190.983 72.5432C190.817 72.5996 190.655 72.6646 190.496 72.7379L190.252 72.8676C187.914 73.9705 187.606 73.9543 185.381 72.5756L184.959 72.3161C184.675 72.1474 184.437 71.9109 184.267 71.6278C184.097 71.3447 184 71.0239 183.985 70.6942C183.985 70.2562 183.904 69.8183 183.855 69.3966C183.806 68.9749 183.774 68.7154 183.741 68.391C183.451 68.2822 183.152 68.1955 182.848 68.1315C182.54 68.1315 182.215 67.9855 181.89 67.9368L181.403 67.8395C180.397 67.6611 180.381 67.6611 179.975 69.1046C179.83 69.7029 179.519 70.2478 179.076 70.6758C178.633 71.1037 178.078 71.397 177.474 71.5214L176.922 71.6349L176.257 71.7971C175.855 71.8827 175.438 71.873 175.041 71.7688C174.643 71.6646 174.275 71.4687 173.967 71.197L173.188 70.5482L172.262 69.7697L171.597 70.24C171.288 70.4509 170.98 70.6617 170.688 70.8888C170.321 71.1376 169.993 71.438 169.713 71.7809C169.808 72.1419 169.967 72.4827 170.184 72.7865C170.613 73.4461 170.819 74.2256 170.773 75.0107C170.726 75.7959 170.429 76.5454 169.924 77.1496C169.581 77.702 169.103 78.1584 168.535 78.4761C167.967 78.7938 167.328 78.9625 166.677 78.9662C166.247 78.9535 165.816 78.9916 165.395 79.0797C165.216 79.8745 165.086 80.7017 164.972 81.61L164.891 82.1939L165.476 82.4534C165.902 82.6146 166.315 82.8098 166.71 83.0373C167.363 83.3753 167.921 83.8716 168.333 84.4809C168.838 85.2723 169.046 86.2174 168.918 87.1473C168.79 88.0773 168.335 88.9316 167.635 89.5576C167.409 89.7899 167.207 90.0454 167.034 90.3199C167.034 90.3199 167.034 90.3199 167.034 90.4334C167.462 91.4668 168.137 92.38 168.999 93.0935C169.32 92.982 169.63 92.8408 169.924 92.6718L170.509 92.3636C170.901 92.182 171.327 92.0879 171.759 92.0879ZM180.153 90.1091C178.203 90.1241 176.326 89.3644 174.936 87.9972C173.546 86.6299 172.756 84.767 172.741 82.8183C172.726 80.8697 173.487 78.9948 174.855 77.6062C176.224 76.2177 178.089 75.4291 180.04 75.4141C181.013 75.4226 181.976 75.6228 182.872 76.0034C183.768 76.3839 184.58 76.9373 185.262 77.6319C185.943 78.3264 186.481 79.1485 186.844 80.051C187.208 80.9535 187.389 81.9187 187.378 82.8913C187.37 84.803 186.606 86.6339 185.253 87.9856C183.9 89.3373 182.067 90.1005 180.153 90.1091ZM179.926 77.0036C179.173 77.0175 178.431 77.1793 177.741 77.4798C177.051 77.7803 176.427 78.2137 175.904 78.7551C175.382 79.2966 174.971 79.9355 174.696 80.6355C174.421 81.3354 174.286 82.0827 174.3 82.8346C174.314 83.5864 174.476 84.3282 174.777 85.0176C175.078 85.707 175.511 86.3304 176.053 86.8522C176.595 87.3741 177.235 87.7842 177.936 88.0592C178.636 88.3341 179.384 88.4685 180.137 88.4547C181.618 88.4418 183.035 87.8449 184.078 86.7938C185.121 85.7428 185.706 84.3227 185.706 82.8427C185.719 81.3097 185.123 79.8342 184.049 78.7396C182.974 77.645 181.509 77.0207 179.975 77.0036H179.926Z" fill="#E4E5E7"/>
<path d="M201.682 39.0653H176.792C176.577 39.0653 176.371 38.9799 176.218 38.8278C176.066 38.6757 175.981 38.4694 175.981 38.2543C175.981 38.0393 176.066 37.833 176.218 37.6809C176.371 37.5288 176.577 37.4434 176.792 37.4434H201.682C201.898 37.4434 202.104 37.5288 202.256 37.6809C202.409 37.833 202.494 38.0393 202.494 38.2543C202.494 38.3608 202.473 38.4663 202.432 38.5647C202.392 38.6631 202.332 38.7525 202.256 38.8278C202.181 38.9031 202.092 38.9628 201.993 39.0036C201.895 39.0443 201.789 39.0653 201.682 39.0653Z" fill="#E4E5E7"/>
<path d="M201.682 45.1806H176.792C176.577 45.1806 176.371 45.0951 176.218 44.943C176.066 44.7909 175.981 44.5847 175.981 44.3696C175.981 44.1545 176.066 43.9482 176.218 43.7961C176.371 43.644 176.577 43.5586 176.792 43.5586H201.682C201.898 43.5586 202.104 43.644 202.256 43.7961C202.409 43.9482 202.494 44.1545 202.494 44.3696C202.494 44.4761 202.473 44.5815 202.432 44.6799C202.392 44.7783 202.332 44.8677 202.256 44.943C202.181 45.0183 202.092 45.0781 201.993 45.1188C201.895 45.1596 201.789 45.1806 201.682 45.1806Z" fill="#E4E5E7"/>
<path d="M201.682 51.3114H176.792C176.577 51.3114 176.371 51.226 176.218 51.0739C176.066 50.9218 175.981 50.7155 175.981 50.5004C175.981 50.2854 176.066 50.0791 176.218 49.927C176.371 49.7749 176.577 49.6895 176.792 49.6895H201.682C201.898 49.6895 202.104 49.7749 202.256 49.927C202.409 50.0791 202.494 50.2854 202.494 50.5004C202.494 50.7155 202.409 50.9218 202.256 51.0739C202.104 51.226 201.898 51.3114 201.682 51.3114Z" fill="#E4E5E7"/>
<path d="M502.62 22.6191H363.395V104.755H502.62V22.6191Z" fill="white"/>
<path d="M502.636 105.566H363.395C363.181 105.562 362.977 105.475 362.825 105.324C362.674 105.173 362.587 104.969 362.583 104.755V22.6191C362.587 22.4053 362.674 22.2014 362.825 22.0502C362.977 21.899 363.181 21.8123 363.395 21.8081H502.636C502.85 21.8123 503.054 21.899 503.206 22.0502C503.357 22.2014 503.444 22.4053 503.448 22.6191V104.755C503.444 104.969 503.357 105.173 503.206 105.324C503.054 105.475 502.85 105.562 502.636 105.566ZM364.207 103.944H501.824V23.4787H364.19L364.207 103.944Z" fill="#E4E5E7"/>
<path d="M433.015 76.7762C431.733 76.7762 430.434 76.7762 429.167 76.7762C428.262 76.9178 427.338 76.7002 426.592 76.1698C425.845 75.6393 425.336 74.8382 425.173 73.9377C424.291 70.9937 422.778 68.2765 420.741 65.9739C417.853 62.5436 416.436 58.1145 416.795 53.647C417.526 44.4018 424.914 38.7249 434.379 39.5197C448.407 40.6875 452.58 55.1392 445.387 65.2927C443.293 67.8778 441.727 70.8479 440.776 74.0351C440.603 74.8655 440.122 75.5997 439.429 76.0901C438.736 76.5806 437.884 76.7909 437.042 76.6789C435.629 76.7113 434.347 76.76 433.015 76.7762Z" fill="white"/>
<path d="M428.794 77.6688C427.764 77.7226 426.75 77.4024 425.938 76.7674C425.127 76.1324 424.572 75.2255 424.378 74.2141C423.529 71.3823 422.071 68.7697 420.108 66.5584C417.07 62.9477 415.588 58.2824 415.984 53.5827C416.097 51.4631 416.637 49.3881 417.571 47.4818C418.506 45.5756 419.816 43.8773 421.423 42.4885C423.233 41.0369 425.312 39.956 427.541 39.3075C429.77 38.659 432.104 38.4558 434.412 38.7093C437.313 38.834 440.126 39.7472 442.546 41.3506C444.967 42.9541 446.903 45.1869 448.148 47.8085C449.416 50.7454 449.889 53.9642 449.519 57.1414C449.148 60.3187 447.947 63.3426 446.037 65.9096C444.015 68.4113 442.499 71.2812 441.572 74.36C441.34 75.3613 440.75 76.2434 439.913 76.8407C439.076 77.4381 438.049 77.7095 437.026 77.604C436.117 77.604 435.207 77.604 434.298 77.604H431.83C430.937 77.604 430.077 77.604 429.216 77.604L428.794 77.6688ZM432.658 40.315C428.96 40.2286 425.352 41.4589 422.478 43.786C421.037 45.0402 419.864 46.571 419.027 48.2874C418.19 50.0038 417.707 51.8708 417.607 53.7773C417.258 58.0376 418.605 62.2637 421.358 65.5366C423.455 67.9111 425.002 70.719 425.888 73.7599C425.942 74.1266 426.071 74.4783 426.266 74.7937C426.461 75.109 426.718 75.3813 427.022 75.5938C427.326 75.8064 427.67 75.9547 428.033 76.0298C428.397 76.105 428.772 76.1052 429.135 76.0307C430.028 76.0307 430.921 76.0307 431.846 76.0307H434.282C435.207 76.0307 436.149 76.0307 437.075 76.0307C437.731 76.1444 438.405 75.9954 438.952 75.6159C439.499 75.2365 439.875 74.6571 439.997 74.0032C440.971 70.7161 442.582 67.652 444.738 64.9851C446.481 62.6501 447.578 59.8984 447.92 57.006C448.262 54.1136 447.836 51.1823 446.686 48.506C445.558 46.1686 443.809 44.1855 441.631 42.7726C439.452 41.3598 436.927 40.5714 434.331 40.4935C433.762 40.3475 433.21 40.315 432.658 40.315Z" fill="#E4E5E7"/>
<path d="M438.176 76.6904L427.802 76.8225C426.878 76.8342 426.139 77.5917 426.151 78.5142L426.158 79.0657C426.17 79.9882 426.928 80.7266 427.851 80.7149L438.225 80.5828C439.149 80.571 439.888 79.8136 439.876 78.891L439.869 78.3396C439.858 77.417 439.099 76.6787 438.176 76.6904Z" fill="white"/>
<path d="M427.836 81.5771C427.179 81.5772 426.548 81.3185 426.08 80.8571C425.612 80.3956 425.344 79.7686 425.336 79.1118V78.6252C425.331 78.2993 425.391 77.9757 425.512 77.673C425.633 77.3703 425.813 77.0943 426.04 76.8609C426.268 76.6274 426.539 76.441 426.839 76.3124C427.139 76.1838 427.461 76.1154 427.787 76.1111L438.146 75.9652C438.474 75.9599 438.799 76.0203 439.103 76.1429C439.407 76.2655 439.684 76.4477 439.916 76.6788C440.153 76.906 440.342 77.1777 440.473 77.4784C440.604 77.7791 440.674 78.1027 440.679 78.4305V78.9658C440.683 79.2917 440.623 79.6152 440.502 79.918C440.381 80.2207 440.202 80.4967 439.974 80.7301C439.747 80.9636 439.475 81.1499 439.175 81.2786C438.876 81.4072 438.554 81.4756 438.227 81.4798L427.869 81.6258L427.836 81.5771ZM438.211 77.5385L427.852 77.6844C427.737 77.6821 427.623 77.7034 427.517 77.7468C427.41 77.7902 427.314 77.8549 427.233 77.9369C427.152 78.0189 427.089 78.1165 427.048 78.2237C427.007 78.3309 426.987 78.4455 426.992 78.5603V79.0955C426.996 79.325 427.09 79.5437 427.254 79.7044C427.418 79.8652 427.639 79.9552 427.869 79.9552L438.227 79.8092C438.342 79.8115 438.457 79.7903 438.563 79.7469C438.67 79.7035 438.766 79.6388 438.847 79.5568C438.927 79.4747 438.99 79.3771 439.032 79.2699C439.073 79.1627 439.092 79.0482 439.088 78.9334V78.3981C439.08 78.17 438.984 77.9537 438.821 77.7937C438.658 77.6338 438.44 77.5425 438.211 77.5385Z" fill="#E4E5E7"/>
<path d="M438.226 80.5981L427.852 80.7302C426.928 80.7419 426.189 81.4994 426.201 82.422L426.208 82.9734C426.219 83.896 426.978 84.6344 427.901 84.6226L438.275 84.4905C439.199 84.4788 439.938 83.7214 439.926 82.7988L439.919 82.2473C439.907 81.3248 439.149 80.5864 438.226 80.5981Z" fill="white"/>
<path d="M427.885 85.4702C427.562 85.4721 427.243 85.4099 426.945 85.2874C426.646 85.1649 426.375 84.9845 426.148 84.7566C425.911 84.5294 425.721 84.2577 425.591 83.957C425.46 83.6563 425.39 83.3327 425.384 83.0048V82.4696C425.38 82.1437 425.44 81.8201 425.561 81.5174C425.682 81.2147 425.861 80.9387 426.089 80.7053C426.317 80.4718 426.588 80.2854 426.888 80.1568C427.188 80.0282 427.51 79.9598 427.836 79.9555L438.195 79.8096C438.854 79.8129 439.488 80.0682 439.965 80.5232C440.201 80.7504 440.391 81.0221 440.522 81.3228C440.653 81.6235 440.723 81.9471 440.728 82.2749V82.8102C440.732 83.4687 440.478 84.1026 440.019 84.5758C439.561 85.0489 438.935 85.3235 438.276 85.3405L427.917 85.4702H427.885ZM438.26 81.4315L427.901 81.5775C427.786 81.5752 427.672 81.5964 427.565 81.6398C427.459 81.6832 427.362 81.748 427.282 81.83C427.201 81.912 427.138 82.0096 427.097 82.1168C427.055 82.224 427.036 82.3385 427.041 82.4534V82.9886C427.042 83.1009 427.065 83.2118 427.11 83.3148C427.154 83.4179 427.219 83.511 427.3 83.5887C427.479 83.729 427.692 83.8186 427.917 83.8483L438.276 83.7185C438.391 83.7164 438.505 83.6916 438.61 83.6457C438.716 83.5997 438.811 83.5334 438.891 83.4505C438.971 83.3677 439.034 83.2699 439.076 83.1629C439.118 83.0558 439.139 82.9414 439.137 82.8264V82.2912C439.126 82.0662 439.034 81.8528 438.877 81.691C438.792 81.6063 438.69 81.5397 438.578 81.4951C438.467 81.4505 438.347 81.4289 438.227 81.4315H438.26Z" fill="#E4E5E7"/>
<path d="M438.406 84.5127C438.406 85.9887 436.052 87.2051 433.113 87.2376C430.174 87.27 427.771 86.1184 427.755 84.6587L438.406 84.5127Z" fill="white"/>
<path d="M432.967 88.049C429.557 88.049 426.976 86.6055 426.943 84.6591C426.942 84.4475 427.023 84.2438 427.17 84.0914C427.246 84.0131 427.337 83.951 427.437 83.9092C427.538 83.8673 427.646 83.8466 427.755 83.8481L438.39 83.7021C438.604 83.7063 438.808 83.7931 438.959 83.9443C439.11 84.0955 439.197 84.2993 439.201 84.5131C439.152 85.0885 438.944 85.6389 438.6 86.1029C438.256 86.567 437.79 86.9263 437.253 87.1407C435.97 87.7496 434.566 88.0602 433.145 88.049H432.967ZM429.135 85.4539C430.317 86.1949 431.706 86.5362 433.097 86.4271C434.268 86.4389 435.427 86.1896 436.49 85.6972L437.058 85.3566L429.135 85.4539Z" fill="#E4E5E7"/>
<path d="M430.58 74.8462C431.127 70.7033 430.973 66.4979 430.125 62.4058C429.688 60.4296 428.83 58.5708 427.609 56.956C427.309 56.6746 426.956 56.4572 426.569 56.3172C426.183 56.1772 425.771 56.1175 425.361 56.1418C424.951 56.1661 424.549 56.2738 424.182 56.4585C423.815 56.6431 423.489 56.9007 423.225 57.2155C422.93 57.6783 422.758 58.2082 422.724 58.7556C422.69 59.3031 422.795 59.8502 423.03 60.3459C423.514 61.3334 424.247 62.1777 425.157 62.7951C427.058 64.1301 429.306 64.8865 431.628 64.9728C433.951 65.0592 436.248 64.4718 438.244 63.2816C439.56 62.5205 440.626 61.3934 441.312 60.0377C441.657 59.365 441.837 58.6201 441.837 57.8643C441.837 57.1085 441.657 56.3636 441.312 55.6909C440.484 54.2473 438.974 55.2043 438.065 56.1288C436.295 58.1238 436.035 61.3677 435.776 63.898C435.429 67.4905 435.571 71.1134 436.198 74.6678" fill="white"/>
<path d="M430.58 75.657C430.473 75.6508 430.369 75.6236 430.273 75.577C430.177 75.5304 430.091 75.4653 430.02 75.3855C429.949 75.3056 429.894 75.2125 429.86 75.1116C429.825 75.0107 429.81 74.9039 429.817 74.7974V74.4081C430.117 71.4868 430.15 68.5443 429.914 65.6171C428.034 65.2981 426.252 64.5548 424.703 63.4436C423.665 62.7535 422.834 61.7949 422.3 60.6701C422.004 60.0474 421.874 59.3589 421.922 58.6713C421.97 57.9837 422.195 57.3202 422.576 56.7449C422.905 56.3227 423.322 55.9776 423.799 55.7338C424.276 55.4901 424.8 55.3535 425.336 55.3338C425.868 55.2886 426.404 55.3627 426.904 55.5507C427.404 55.7387 427.855 56.0359 428.226 56.4205C429.551 58.1163 430.472 60.0908 430.921 62.1947C431.1 62.8435 431.246 63.4923 431.359 64.1573C432.588 64.2343 433.822 64.1138 435.012 63.8005V63.5247C435.272 60.9296 435.613 57.7181 437.48 55.6096C437.823 55.1793 438.253 54.8277 438.744 54.5786C439.234 54.3295 439.772 54.1888 440.322 54.166C440.666 54.2111 440.994 54.3396 441.277 54.5403C441.56 54.741 441.789 55.0079 441.945 55.3176C442.347 56.1035 442.557 56.9735 442.557 57.856C442.557 58.7385 442.347 59.6084 441.945 60.3944C441.197 61.8854 440.029 63.1256 438.584 63.9627C437.902 64.3849 437.178 64.7381 436.425 65.0169C436.216 68.2047 436.385 71.4059 436.928 74.5541C436.963 74.7692 436.91 74.9891 436.782 75.1655C436.655 75.342 436.462 75.4604 436.246 75.4948C436.031 75.5292 435.811 75.4768 435.634 75.349C435.458 75.2213 435.339 75.0287 435.305 74.8136C434.771 71.7408 434.581 68.6183 434.737 65.5035C433.669 65.7273 432.579 65.8199 431.489 65.7793C431.69 68.6919 431.646 71.6162 431.359 74.5216V74.9109C431.344 75.1091 431.255 75.2946 431.112 75.4321C430.968 75.5696 430.779 75.6497 430.58 75.657ZM425.563 56.9558H425.417C425.122 56.9572 424.831 57.0233 424.564 57.1494C424.298 57.2755 424.062 57.4586 423.874 57.6857C423.662 58.0346 423.54 58.4311 423.521 58.8391C423.501 59.247 423.583 59.6534 423.761 60.0213C424.186 60.8762 424.83 61.6037 425.628 62.1299C426.826 62.9971 428.192 63.6049 429.638 63.914C429.557 63.4761 429.46 63.0544 429.346 62.6164C428.945 60.7746 428.147 59.0422 427.008 57.5397C426.822 57.3466 426.597 57.1949 426.348 57.0943C426.099 56.9937 425.831 56.9465 425.563 56.9558ZM440.176 55.788C439.613 55.9056 439.111 56.2224 438.763 56.6801C437.469 58.5986 436.769 60.8548 436.75 63.1679C437.133 62.9813 437.507 62.7756 437.87 62.5516C439.044 61.8755 440.001 60.8798 440.63 59.6807C440.915 59.1233 441.064 58.5063 441.064 57.8803C441.064 57.2544 440.915 56.6374 440.63 56.0799C440.452 55.7718 440.305 55.7555 440.241 55.7555L440.176 55.788Z" fill="#E4E5E7"/>
<path d="M404.618 76.0468H384.891C384.676 76.0468 384.47 75.9613 384.317 75.8092C384.165 75.6571 384.08 75.4509 384.08 75.2358C384.08 75.0207 384.165 74.8144 384.317 74.6623C384.47 74.5102 384.676 74.4248 384.891 74.4248H404.618C404.834 74.4248 405.04 74.5102 405.192 74.6623C405.345 74.8144 405.43 75.0207 405.43 75.2358C405.43 75.4509 405.345 75.6571 405.192 75.8092C405.04 75.9613 404.834 76.0468 404.618 76.0468Z" fill="#E4E5E7"/>
<path d="M404.618 81.7557H384.891C384.676 81.7557 384.47 81.6703 384.317 81.5182C384.165 81.3661 384.08 81.1598 384.08 80.9448C384.08 80.7297 384.165 80.5234 384.317 80.3713C384.47 80.2192 384.676 80.1338 384.891 80.1338H404.618C404.834 80.1338 405.04 80.2192 405.192 80.3713C405.345 80.5234 405.43 80.7297 405.43 80.9448C405.43 81.1598 405.345 81.3661 405.192 81.5182C405.04 81.6703 404.834 81.7557 404.618 81.7557Z" fill="#E4E5E7"/>
<path d="M404.618 87.4491H384.891C384.676 87.4491 384.47 87.3637 384.317 87.2116C384.165 87.0595 384.08 86.8532 384.08 86.6381C384.08 86.423 384.165 86.2168 384.317 86.0647C384.47 85.9126 384.676 85.8271 384.891 85.8271H404.618C404.834 85.8271 405.04 85.9126 405.192 86.0647C405.345 86.2168 405.43 86.423 405.43 86.6381C405.43 86.8532 405.345 87.0595 405.192 87.2116C405.04 87.3637 404.834 87.4491 404.618 87.4491Z" fill="#E4E5E7"/>
<path d="M399.439 93.223H384.826C384.611 93.223 384.405 93.1376 384.252 92.9855C384.1 92.8334 384.015 92.6271 384.015 92.4121C384.015 92.197 384.1 91.9907 384.252 91.8386C384.405 91.6865 384.611 91.6011 384.826 91.6011H399.439C399.654 91.6011 399.861 91.6865 400.013 91.8386C400.165 91.9907 400.251 92.197 400.251 92.4121C400.247 92.6258 400.16 92.8297 400.008 92.9809C399.857 93.1321 399.653 93.2189 399.439 93.223Z" fill="#E4E5E7"/>
<path d="M483.624 39.163H457.646C457.43 39.163 457.224 39.0775 457.072 38.9254C456.92 38.7734 456.834 38.5671 456.834 38.352C456.834 38.1369 456.92 37.9306 457.072 37.7785C457.224 37.6265 457.43 37.541 457.646 37.541H483.624C483.839 37.541 484.045 37.6265 484.198 37.7785C484.35 37.9306 484.435 38.1369 484.435 38.352C484.435 38.5671 484.35 38.7734 484.198 38.9254C484.045 39.0775 483.839 39.163 483.624 39.163Z" fill="#E4E5E7"/>
<path d="M483.624 44.872H457.646C457.43 44.872 457.224 44.7865 457.072 44.6344C456.92 44.4823 456.834 44.2761 456.834 44.061C456.834 43.8459 456.92 43.6396 457.072 43.4875C457.224 43.3354 457.43 43.25 457.646 43.25H483.624C483.839 43.25 484.045 43.3354 484.198 43.4875C484.35 43.6396 484.435 43.8459 484.435 44.061C484.435 44.2761 484.35 44.4823 484.198 44.6344C484.045 44.7865 483.839 44.872 483.624 44.872Z" fill="#E4E5E7"/>
<path d="M483.624 50.5653H457.646C457.43 50.5653 457.224 50.4799 457.072 50.3278C456.92 50.1757 456.834 49.9694 456.834 49.7543C456.834 49.5393 456.92 49.333 457.072 49.1809C457.224 49.0288 457.43 48.9434 457.646 48.9434H483.624C483.839 48.9434 484.045 49.0288 484.198 49.1809C484.35 49.333 484.435 49.5393 484.435 49.7543C484.435 49.9694 484.35 50.1757 484.198 50.3278C484.045 50.4799 483.839 50.5653 483.624 50.5653Z" fill="#E4E5E7"/>
<path d="M476.788 56.2587H457.613C457.398 56.2587 457.191 56.1732 457.039 56.0212C456.887 55.8691 456.802 55.6628 456.802 55.4477C456.802 55.2326 456.887 55.0263 457.039 54.8743C457.191 54.7222 457.398 54.6367 457.613 54.6367H476.788C477.002 54.6409 477.206 54.7276 477.358 54.8788C477.509 55.03 477.596 55.2339 477.6 55.4477C477.6 55.6628 477.515 55.8691 477.362 56.0212C477.21 56.1732 477.004 56.2587 476.788 56.2587Z" fill="#E4E5E7"/>
<path d="M481.838 71.2129H457.613V86.654H481.838V71.2129Z" fill="white"/>
<path d="M481.821 87.4487H457.613C457.398 87.4487 457.191 87.3633 457.039 87.2112C456.887 87.0591 456.802 86.8528 456.802 86.6377V71.2128C456.802 70.9978 456.887 70.7915 457.039 70.6394C457.191 70.4873 457.398 70.4019 457.613 70.4019H481.821C482.037 70.4019 482.243 70.4873 482.395 70.6394C482.548 70.7915 482.633 70.9978 482.633 71.2128V86.6377C482.633 86.7442 482.612 86.8497 482.571 86.9481C482.531 87.0464 482.471 87.1359 482.395 87.2112C482.32 87.2865 482.231 87.3462 482.132 87.387C482.034 87.4277 481.928 87.4487 481.821 87.4487ZM458.425 85.8267H481.091V72.0238H458.36L458.425 85.8267Z" fill="#E4E5E7"/>
<path d="M457.613 86.6377L453.489 94.3096H485.929L481.821 86.6377H457.613Z" fill="white"/>
<path d="M485.962 95.1206H453.489C453.35 95.1165 453.214 95.0773 453.094 95.0067C452.974 94.936 452.873 94.8362 452.802 94.7165C452.731 94.5968 452.691 94.4611 452.686 94.3219C452.682 94.1828 452.712 94.0446 452.775 93.9204L456.883 86.2647C456.952 86.1312 457.057 86.0196 457.186 85.9423C457.315 85.865 457.463 85.825 457.613 85.8268H481.822C481.97 85.8242 482.116 85.864 482.243 85.9416C482.369 86.0192 482.471 86.1313 482.536 86.2647L486.644 93.9204C486.715 94.0406 486.753 94.1779 486.753 94.3178C486.753 94.4576 486.715 94.5949 486.644 94.7151C486.574 94.8354 486.475 94.9358 486.356 95.0068C486.236 95.0778 486.101 95.117 485.962 95.1206ZM454.886 93.4987H484.614L481.367 87.4487H458.084L454.886 93.4987Z" fill="#E4E5E7"/>
<path d="M381.271 37.6221V58.2859C381.271 60.2484 387.083 61.838 394.26 61.838C401.436 61.838 407.249 60.216 407.249 58.2859V37.6221H381.271Z" fill="white"/>
<path d="M394.244 62.6494C387.603 62.6494 380.459 61.2869 380.459 58.2863V37.6225C380.459 37.4074 380.545 37.2011 380.697 37.0491C380.849 36.897 381.055 36.8115 381.271 36.8115H407.249C407.464 36.8115 407.671 36.897 407.823 37.0491C407.975 37.2011 408.061 37.4074 408.061 37.6225V58.2863C408.028 61.2869 400.884 62.6494 394.244 62.6494ZM382.05 38.4335V58.2863C382.05 59.2108 386.336 61.0274 394.211 61.0274C402.086 61.0274 406.404 59.1622 406.404 58.2863V38.4335H382.05Z" fill="#E4E5E7"/>
<path d="M394.244 41.1903C401.408 41.1903 407.216 39.5928 407.216 37.622C407.216 35.6513 401.408 34.0537 394.244 34.0537C387.079 34.0537 381.271 35.6513 381.271 37.622C381.271 39.5928 387.079 41.1903 394.244 41.1903Z" fill="white"/>
<path d="M394.244 41.9856C387.603 41.9856 380.459 40.6231 380.459 37.6225C380.459 34.6218 387.603 33.2432 394.244 33.2432C400.884 33.2432 408.028 34.6056 408.028 37.6225C408.028 40.6393 400.884 41.9856 394.244 41.9856ZM394.244 34.8651C386.369 34.8651 382.083 36.6817 382.083 37.6225C382.083 38.5632 386.369 40.3636 394.244 40.3636C402.118 40.3636 406.404 38.547 406.404 37.6225C406.404 36.6979 402.118 34.8327 394.244 34.8327V34.8651Z" fill="#E4E5E7"/>
<path d="M407.216 43.3311C407.216 45.3099 401.404 46.8994 394.227 46.8994C387.051 46.8994 381.238 45.2774 381.238 43.3311" fill="white"/>
<path d="M394.244 47.7112C387.603 47.7112 380.459 46.3487 380.459 43.3481C380.459 43.133 380.545 42.9267 380.697 42.7746C380.849 42.6226 381.055 42.5371 381.271 42.5371C381.486 42.5371 381.693 42.6226 381.845 42.7746C381.997 42.9267 382.083 43.133 382.083 43.3481C382.083 44.2726 386.369 46.0892 394.244 46.0892C402.118 46.0892 406.404 44.2726 406.404 43.3481C406.404 43.133 406.49 42.9267 406.642 42.7746C406.794 42.6226 407.001 42.5371 407.216 42.5371C407.432 42.5371 407.638 42.6226 407.79 42.7746C407.942 42.9267 408.028 43.133 408.028 43.3481C408.028 46.3487 400.884 47.7112 394.244 47.7112Z" fill="#E4E5E7"/>
<path d="M407.216 49.7217C407.216 51.7005 401.404 53.29 394.227 53.29C387.051 53.29 381.238 51.668 381.238 49.7217" fill="white"/>
<path d="M394.244 54.1008C387.603 54.1008 380.459 52.7384 380.459 49.7377C380.459 49.5227 380.545 49.3164 380.697 49.1643C380.849 49.0122 381.055 48.9268 381.271 48.9268C381.486 48.9268 381.693 49.0122 381.845 49.1643C381.997 49.3164 382.083 49.5227 382.083 49.7377C382.083 50.6623 386.369 52.4788 394.244 52.4788C402.118 52.4788 406.404 50.6623 406.404 49.7377C406.404 49.5227 406.49 49.3164 406.642 49.1643C406.794 49.0122 407.001 48.9268 407.216 48.9268C407.432 48.9268 407.638 49.0122 407.79 49.1643C407.942 49.3164 408.028 49.5227 408.028 49.7377C408.028 52.6735 400.884 54.1008 394.244 54.1008Z" fill="#E4E5E7"/>
<path d="M446.475 124.3C446.475 124.3 455.292 128.257 451.833 136.481L446.475 124.3Z" fill="white"/>
<path d="M451.866 137.291C451.764 137.314 451.659 137.314 451.557 137.291C451.363 137.206 451.208 137.048 451.127 136.852C451.045 136.656 451.042 136.436 451.119 136.237C454.252 128.825 446.524 125.257 446.248 125.111C446.144 125.071 446.05 125.011 445.97 124.934C445.891 124.857 445.828 124.765 445.785 124.663C445.743 124.56 445.722 124.45 445.723 124.34C445.725 124.229 445.75 124.12 445.795 124.019C445.841 123.918 445.906 123.827 445.988 123.753C446.07 123.678 446.166 123.621 446.271 123.585C446.376 123.549 446.487 123.535 446.598 123.543C446.708 123.552 446.816 123.583 446.914 123.635C447.011 123.635 456.412 128.014 452.678 136.854C452.601 136.999 452.483 137.118 452.338 137.196C452.194 137.274 452.029 137.307 451.866 137.291Z" fill="#4F4F4F"/>
<path d="M160.313 273.78C166.123 273.78 170.834 269.829 170.834 264.956C170.834 260.083 166.123 256.133 160.313 256.133C154.502 256.133 149.792 260.083 149.792 264.956C149.792 269.829 154.502 273.78 160.313 273.78Z" fill="#E4E5E7"/>
<path d="M340.827 254.154H280.736L287.637 305.295H365.311L340.827 254.154Z" fill="white"/>
<path d="M365.311 306.105H287.637C287.441 306.104 287.251 306.033 287.103 305.905C286.954 305.778 286.856 305.601 286.825 305.408L279.924 254.267C279.91 254.152 279.92 254.034 279.954 253.923C279.987 253.811 280.044 253.707 280.119 253.619C280.196 253.531 280.291 253.461 280.398 253.413C280.504 253.366 280.62 253.342 280.736 253.343H340.81C340.962 253.342 341.111 253.385 341.241 253.465C341.37 253.546 341.474 253.66 341.541 253.797L366.025 304.954C366.089 305.073 366.122 305.207 366.122 305.343C366.122 305.479 366.089 305.612 366.025 305.732C365.951 305.854 365.846 305.952 365.72 306.018C365.594 306.084 365.452 306.114 365.311 306.105ZM288.351 304.483H364.028L340.307 254.965H281.662L288.351 304.483Z" fill="#E4E5E7"/>
<path d="M343.083 295.758H296.615C296.4 295.758 296.194 295.672 296.041 295.52C295.889 295.368 295.804 295.162 295.804 294.947C295.804 294.732 295.889 294.525 296.041 294.373C296.194 294.221 296.4 294.136 296.615 294.136H343.083C343.299 294.136 343.505 294.221 343.657 294.373C343.81 294.525 343.895 294.732 343.895 294.947C343.895 295.162 343.81 295.368 343.657 295.52C343.505 295.672 343.299 295.758 343.083 295.758Z" fill="#E4E5E7"/>
<path d="M347.954 285.782H294.57C294.354 285.782 294.148 285.697 293.996 285.545C293.843 285.392 293.758 285.186 293.758 284.971C293.758 284.756 293.843 284.55 293.996 284.398C294.148 284.246 294.354 284.16 294.57 284.16H347.954C348.17 284.16 348.376 284.246 348.528 284.398C348.68 284.55 348.766 284.756 348.766 284.971C348.766 285.186 348.68 285.392 348.528 285.545C348.376 285.697 348.17 285.782 347.954 285.782Z" fill="#E4E5E7"/>
<path d="M342.45 275.824H292.118C291.903 275.824 291.696 275.738 291.544 275.586C291.392 275.434 291.306 275.228 291.306 275.013C291.306 274.798 291.392 274.591 291.544 274.439C291.696 274.287 291.903 274.202 292.118 274.202H342.45C342.665 274.202 342.872 274.287 343.024 274.439C343.176 274.591 343.262 274.798 343.262 275.013C343.262 275.228 343.176 275.434 343.024 275.586C342.872 275.738 342.665 275.824 342.45 275.824Z" fill="#E4E5E7"/>
<path d="M338.57 265.865H298.336C298.121 265.865 297.915 265.78 297.762 265.628C297.61 265.476 297.525 265.269 297.525 265.054C297.525 264.839 297.61 264.633 297.762 264.481C297.915 264.329 298.121 264.243 298.336 264.243H338.57C338.785 264.243 338.991 264.329 339.144 264.481C339.296 264.633 339.381 264.839 339.381 265.054C339.377 265.268 339.29 265.472 339.139 265.623C338.988 265.774 338.784 265.861 338.57 265.865Z" fill="#E4E5E7"/>
</g>
<defs>
<clipPath id="clip0">
<rect width="566" height="350" fill="white"/>
</clipPath>
</defs>
</svg>
