<svg width="566" height="350" viewBox="0 0 566 350" fill="none" xmlns="http://www.w3.org/2000/svg">
<g clip-path="url(#clip0)">
<path d="M209.059 145.438C208.947 145.46 208.832 145.46 208.721 145.438L112.015 97.9041C111.912 97.8679 111.818 97.8103 111.739 97.7351C111.66 97.66 111.598 97.569 111.557 97.4681C111.516 97.3672 111.497 97.2588 111.501 97.15C111.505 97.0412 111.532 96.9345 111.581 96.8369C111.629 96.7393 111.697 96.653 111.781 96.5838C111.865 96.5146 111.963 96.464 112.068 96.4353C112.173 96.4067 112.283 96.4006 112.391 96.4176C112.498 96.4345 112.601 96.4741 112.692 96.5337L209.414 143.976C209.505 144.02 209.586 144.082 209.654 144.158C209.721 144.234 209.772 144.322 209.805 144.418C209.838 144.514 209.852 144.615 209.845 144.716C209.839 144.817 209.813 144.916 209.768 145.007C209.701 145.137 209.599 145.246 209.474 145.322C209.349 145.398 209.206 145.438 209.059 145.438Z" fill="#E4E5E7"/>
<path d="M386.205 116.906C386.205 116.906 390.826 107.852 390.102 104.172C389.378 100.491 388.192 89.4355 388.192 89.4355L418.553 92.2534L408.787 127.469" fill="white"/>
<path d="M408.756 128.269H408.54C408.34 128.212 408.169 128.078 408.066 127.897C407.962 127.716 407.934 127.501 407.986 127.299L417.49 92.9768L389.085 90.3437C389.424 93.1154 390.364 101.122 390.887 104.064C391.581 107.959 387.113 116.906 386.913 117.291C386.818 117.477 386.653 117.618 386.454 117.684C386.255 117.751 386.039 117.736 385.85 117.645C385.757 117.599 385.673 117.535 385.604 117.456C385.536 117.378 385.483 117.287 385.45 117.188C385.417 117.089 385.405 116.984 385.412 116.88C385.42 116.776 385.449 116.675 385.496 116.582C386.728 114.119 389.825 107.143 389.332 104.264C388.685 100.599 387.452 89.928 387.406 89.4661C387.392 89.349 387.404 89.2304 387.442 89.1186C387.479 89.0068 387.541 88.9046 387.622 88.8193C387.706 88.7362 387.808 88.6724 387.92 88.6325C388.032 88.5926 388.151 88.5776 388.269 88.5884L418.553 91.437C418.668 91.4503 418.78 91.4872 418.881 91.5455C418.982 91.6038 419.069 91.6822 419.138 91.7758C419.204 91.8713 419.248 91.9803 419.266 92.0947C419.285 92.2092 419.278 92.3264 419.246 92.4379L409.495 127.669C409.455 127.836 409.361 127.986 409.227 128.094C409.094 128.203 408.928 128.264 408.756 128.269Z" fill="#4F4F4F"/>
<path d="M173.908 161.253C173.908 161.253 174.185 143.329 173.908 139.295C173.63 135.26 179.684 112.81 178.236 109.284C176.788 105.757 172.752 104.387 171.304 108.545C169.856 112.702 167.253 121.941 167.253 121.941C167.253 121.941 151.356 112.148 148.168 118.861C144.979 125.575 142.006 138.063 145.364 141.25C147.406 143.15 150.014 144.329 152.789 144.607L151.926 167.35L173.908 161.253Z" fill="white"/>
<path d="M151.926 168.197C151.748 168.195 151.575 168.135 151.433 168.028C151.335 167.952 151.257 167.854 151.206 167.741C151.155 167.628 151.132 167.504 151.14 167.381L151.972 145.377C149.298 144.949 146.811 143.738 144.825 141.897C140.789 138.109 144.609 124.635 147.444 118.584C147.734 117.957 148.162 117.403 148.695 116.964C149.228 116.524 149.853 116.21 150.524 116.043C155.438 114.503 164.018 119.123 166.837 120.663C167.546 118.153 169.456 111.532 170.611 108.206C170.808 107.382 171.259 106.642 171.901 106.089C172.542 105.537 173.341 105.2 174.185 105.126C175.277 105.208 176.321 105.611 177.185 106.285C178.049 106.959 178.693 107.874 179.037 108.914C179.9 111.039 178.683 117.614 176.696 127.392C175.763 131.256 175.115 135.182 174.755 139.141C175.047 143.175 174.755 160.436 174.755 161.175C174.757 161.347 174.702 161.514 174.599 161.65C174.496 161.787 174.35 161.885 174.185 161.93L152.203 168.089C152.123 168.151 152.027 168.189 151.926 168.197ZM152.696 117.383C152.098 117.377 151.502 117.455 150.925 117.614C150.48 117.729 150.066 117.942 149.714 118.238C149.363 118.534 149.081 118.905 148.892 119.323C145.811 126.021 142.946 138.001 145.903 140.788C147.818 142.54 150.251 143.621 152.835 143.868C153.045 143.88 153.241 143.974 153.383 144.129C153.524 144.285 153.598 144.489 153.59 144.699L152.758 166.349L173.122 160.652C173.122 157.572 173.368 142.898 173.122 139.341C173.45 135.234 174.11 131.161 175.094 127.161C176.434 120.509 178.267 111.408 177.527 109.576C177.296 108.839 176.858 108.183 176.266 107.687C175.673 107.19 174.951 106.873 174.185 106.774C172.999 106.774 172.383 107.898 172.074 108.806C170.642 112.887 168.054 122.064 168.039 122.156C168.003 122.274 167.942 122.382 167.86 122.473C167.777 122.563 167.675 122.634 167.561 122.68C167.452 122.737 167.33 122.766 167.207 122.766C167.083 122.766 166.962 122.737 166.853 122.68C166.745 122.557 158.226 117.321 152.696 117.321V117.383Z" fill="#4F4F4F"/>
<path d="M235.215 268.901L213.758 350.774L267.456 347.232L279.348 306.812L298.094 345.723H346.201L316.841 234.024L235.215 268.901Z" fill="#4F4F4F"/>
<path d="M311.465 258.292L231.857 273.136L251.651 155.601C251.651 155.601 292.179 147.471 301.976 147.471C310.232 147.41 311.465 258.292 311.465 258.292Z" fill="white"/>
<path d="M231.857 273.844C231.656 273.845 231.463 273.768 231.318 273.628C231.23 273.541 231.163 273.435 231.123 273.317C231.083 273.199 231.07 273.074 231.087 272.951L250.881 155.401C250.912 155.249 250.986 155.11 251.096 155C251.206 154.89 251.345 154.816 251.497 154.785C253.146 154.447 292.21 146.64 301.976 146.64C303.732 146.64 307.86 146.732 310.571 202.812C311.896 230.221 312.22 257.999 312.235 258.246C312.235 258.427 312.172 258.603 312.057 258.743C311.942 258.884 311.782 258.98 311.603 259.016L231.981 273.798L231.857 273.844ZM252.314 156.187L232.797 272.119L310.695 257.645C309.986 196.206 306.166 148.179 301.976 148.179C292.965 148.179 257.074 155.232 252.314 156.187Z" fill="#4F4F4F"/>
<path d="M265.13 147.409C263.943 148.179 267.409 165.287 267.61 166.827C269.343 182.343 270.186 197.947 270.136 213.56C270.01 230.983 266.587 248.224 260.046 264.374C257.104 271.842 253.684 279.141 250.095 286.316C246.506 293.492 239.451 294.724 231.934 294.185C223.891 293.603 215.94 292.12 208.227 289.766C205.461 289.174 202.934 287.769 200.972 285.731C197.891 281.805 201.249 276.492 203.006 272.735C205.501 267.392 207.889 261.957 210.122 256.536C213.68 247.775 223.277 226.772 225.726 217.641C228.915 205.769 224.186 205.738 224.74 193.465C224.972 188.507 225.033 183.549 225.233 178.591C225.341 175.619 224.448 166.272 226.389 164.024C241.223 146.947 265.13 147.409 265.13 147.409Z" fill="#E67E22"/>
<path d="M324.589 144.668C325.082 144.761 322.663 184.58 322.833 186.567C324.111 201.672 346.247 261.079 346.247 261.079C346.247 266.545 291.055 299.266 287.527 289.457C303.886 203.228 292.61 147.44 292.225 147.409C292.241 147.409 311.881 142.251 324.589 144.668Z" fill="#E67E22"/>
<path d="M284.138 168.428L278.084 174.31L282.983 177.698C282.983 177.698 277.822 216.07 259.677 221.521C241.531 226.972 234.476 225.094 234.476 225.094L224.463 238.105C224.463 238.105 240.021 242.555 241.13 242.925C242.239 243.294 275.204 235.61 280.395 215.208C283.49 203.173 285.521 190.889 286.464 178.499L289.745 174.372L284.138 168.428Z" fill="#4F4F4F"/>
<path d="M261.433 206.477C261.313 206.476 261.196 206.447 261.089 206.394C260.982 206.34 260.889 206.263 260.817 206.169L245.444 185.366C245.325 185.229 245.26 185.054 245.26 184.873C245.26 184.692 245.325 184.517 245.444 184.38L255.009 174.495L243.01 171.415C242.881 171.384 242.763 171.319 242.669 171.227C242.574 171.135 242.505 171.019 242.471 170.891C242.435 170.763 242.433 170.627 242.465 170.497C242.498 170.368 242.563 170.249 242.655 170.152L256.688 155.108C256.829 154.959 257.024 154.872 257.229 154.867C257.434 154.861 257.633 154.937 257.782 155.078C257.931 155.218 258.018 155.413 258.024 155.618C258.03 155.823 257.954 156.022 257.813 156.171L244.658 170.26L256.688 173.34C256.817 173.376 256.933 173.445 257.028 173.539C257.122 173.634 257.191 173.751 257.228 173.879C257.265 174.007 257.268 174.143 257.235 174.273C257.203 174.403 257.136 174.522 257.043 174.618L246.999 184.981L261.957 205.322C262.073 205.486 262.12 205.689 262.088 205.888C262.057 206.086 261.949 206.264 261.787 206.384C261.679 206.445 261.557 206.477 261.433 206.477Z" fill="#4F4F4F"/>
<path d="M299.942 204.229C299.84 204.243 299.737 204.243 299.634 204.229C299.449 204.145 299.303 203.991 299.228 203.802C299.154 203.612 299.156 203.401 299.234 203.213L310.525 176.882L298.941 171.077C298.758 170.971 298.62 170.801 298.556 170.599C298.526 170.497 298.518 170.389 298.531 170.283C298.544 170.177 298.579 170.075 298.633 169.983L307.29 155.925L295.922 150.674C295.738 150.584 295.596 150.427 295.524 150.235C295.452 150.043 295.457 149.831 295.537 149.642C295.58 149.55 295.641 149.467 295.716 149.398C295.791 149.329 295.88 149.276 295.976 149.242C296.072 149.207 296.174 149.193 296.275 149.198C296.377 149.203 296.477 149.229 296.569 149.273L308.723 154.893C308.823 154.938 308.911 155.004 308.983 155.086C309.055 155.168 309.108 155.265 309.139 155.37C309.169 155.475 309.177 155.585 309.164 155.694C309.151 155.802 309.116 155.907 309.062 156.002L300.343 169.968L311.819 175.727C311.994 175.813 312.13 175.964 312.199 176.147C312.267 176.33 312.264 176.532 312.189 176.712L300.605 203.705C300.556 203.847 300.467 203.971 300.35 204.064C300.233 204.156 300.091 204.214 299.942 204.229Z" fill="#4F4F4F"/>
<path d="M395.308 1.48096L413.685 38.6984L454.768 44.6729L425.038 73.6369L432.062 114.55L395.308 95.2405L358.555 114.55L365.579 73.6369L335.849 44.6729L376.931 38.6984L395.308 1.48096Z" fill="white"/>
<path d="M432.062 115.32C431.938 115.32 431.816 115.289 431.708 115.227L395.308 96.0565L358.909 115.181C358.79 115.26 358.651 115.302 358.508 115.302C358.366 115.302 358.227 115.26 358.108 115.181C357.99 115.098 357.898 114.983 357.843 114.849C357.789 114.715 357.774 114.569 357.8 114.427L364.747 73.9293L335.372 45.2425C335.267 45.1442 335.193 45.0181 335.157 44.879C335.122 44.7399 335.127 44.5936 335.171 44.4572C335.217 44.3223 335.298 44.2023 335.407 44.1101C335.516 44.0179 335.647 43.9569 335.788 43.9337L376.485 38.0208L394.677 1.17291C394.747 1.05142 394.848 0.950567 394.97 0.880455C395.092 0.810343 395.23 0.773438 395.37 0.773438C395.511 0.773438 395.648 0.810343 395.77 0.880455C395.892 0.950567 395.993 1.05142 396.063 1.17291L414.255 38.0208L454.953 43.9337C455.093 43.9569 455.225 44.0179 455.333 44.1101C455.442 44.2023 455.523 44.3223 455.569 44.4572C455.613 44.5936 455.618 44.7399 455.583 44.879C455.547 45.0181 455.473 45.1442 455.368 45.2425L425.87 73.914L432.817 114.411C432.843 114.553 432.828 114.7 432.774 114.834C432.719 114.967 432.627 115.083 432.509 115.166C432.383 115.268 432.225 115.322 432.062 115.32ZM395.308 94.5167C395.425 94.4867 395.547 94.4867 395.663 94.5167L431.092 113.118L424.329 73.7446C424.31 73.6203 424.319 73.493 424.356 73.3728C424.393 73.2526 424.458 73.1427 424.545 73.0516L453.119 45.2425L413.578 39.499C413.453 39.4784 413.335 39.4286 413.233 39.3536C413.131 39.2787 413.049 39.1808 412.992 39.0679L395.308 3.22086L377.625 39.0832C377.568 39.1962 377.486 39.2941 377.384 39.369C377.282 39.444 377.164 39.4938 377.039 39.5144L337.497 45.2425L366.18 73.0825C366.267 73.1735 366.331 73.2834 366.369 73.4036C366.406 73.5238 366.415 73.6511 366.395 73.7754L359.633 113.149L395.062 94.5475C395.142 94.5228 395.225 94.5124 395.308 94.5167Z" fill="#4F4F4F"/>
<path d="M324.589 144.668C324.589 144.668 353.471 154.369 360.88 152.198C368.29 150.027 383.278 114.534 383.278 114.534L413.639 118.307C413.639 118.307 400.977 193.388 376.885 197.423C352.793 201.457 320.769 190.724 320.769 190.724L324.589 144.668Z" fill="#E67E22"/>
<path d="M254.316 116.906C253.084 111.332 251.42 105.819 250.927 100.137C250.434 94.4551 251.205 88.4345 254.424 83.738C257.89 78.6874 262.311 79.2725 267.641 78.5796C274.711 77.6557 281.027 74.1141 287.589 71.558C288.836 71.0653 290.777 70.9575 291.008 72.2818C291.045 72.6958 290.965 73.112 290.777 73.4828C289.93 75.5783 288.749 77.523 287.281 79.2417C292.413 78.0769 297.338 76.1348 301.883 73.4828C302.368 75.9951 302.28 78.584 301.626 81.0577C300.973 83.5314 299.771 85.8263 298.11 87.7723L306.782 83.43C307.428 87.0868 306.656 90.8522 304.625 93.9611C302.594 97.07 299.454 99.2892 295.845 100.168" fill="white"/>
<path d="M254.316 117.691C254.136 117.694 253.96 117.635 253.82 117.522C253.679 117.41 253.582 117.251 253.546 117.075C253.223 115.627 252.868 114.18 252.514 112.717C251.409 108.615 250.616 104.435 250.142 100.214C249.726 95.502 250.019 88.7575 253.777 83.2758C256.858 78.8103 260.74 78.4408 264.883 78.0712L267.548 77.794C272.558 76.8887 277.416 75.2872 281.982 73.036C283.722 72.2815 285.509 71.4962 287.296 70.8187C287.85 70.5788 288.448 70.4551 289.052 70.4551C289.656 70.4551 290.254 70.5788 290.808 70.8187C291.067 70.9553 291.291 71.1502 291.462 71.388C291.633 71.6258 291.747 71.9 291.794 72.1891C291.866 72.7486 291.77 73.317 291.517 73.8213C290.929 75.2777 290.185 76.6665 289.299 77.9634C293.567 76.7807 297.663 75.0466 301.483 72.805C301.594 72.7444 301.719 72.7126 301.845 72.7126C301.972 72.7126 302.096 72.7444 302.207 72.805C302.321 72.8583 302.421 72.9376 302.499 73.0365C302.576 73.1355 302.629 73.2514 302.654 73.3748C303.475 77.5954 302.742 81.9707 300.59 85.6933L306.412 82.7831C306.523 82.7298 306.644 82.7022 306.767 82.7022C306.889 82.7022 307.01 82.7298 307.121 82.7831C307.231 82.8357 307.327 82.9131 307.402 83.0093C307.477 83.1056 307.528 83.2179 307.552 83.3374C308.243 87.2007 307.431 91.1817 305.284 94.4672C303.137 97.7526 299.816 100.095 295.999 101.015C295.897 101.037 295.791 101.039 295.688 101.02C295.585 101.001 295.487 100.962 295.4 100.904C295.312 100.847 295.237 100.773 295.179 100.686C295.12 100.599 295.08 100.501 295.06 100.399C295.023 100.191 295.068 99.9769 295.186 99.8017C295.304 99.6266 295.485 99.5039 295.691 99.4593C299.115 98.6802 302.089 96.576 303.963 93.608C305.713 90.9556 306.471 87.7714 306.104 84.6154L298.402 88.4804C298.238 88.5551 298.054 88.5723 297.878 88.529C297.703 88.4858 297.548 88.3847 297.437 88.2422C297.327 88.0996 297.268 87.9239 297.269 87.7436C297.271 87.5633 297.334 87.3888 297.447 87.2485C298.904 85.5369 299.992 83.5427 300.641 81.391C301.291 79.2394 301.488 76.9768 301.221 74.7452C296.874 77.1504 292.206 78.9236 287.358 80.0114C287.195 80.0464 287.025 80.0299 286.872 79.9641C286.719 79.8983 286.591 79.7865 286.504 79.6442C286.418 79.5019 286.378 79.3362 286.39 79.1702C286.402 79.0042 286.466 78.8461 286.572 78.7179C287.995 77.0716 289.139 75.2045 289.961 73.19C290.075 72.9495 290.133 72.6862 290.13 72.4201C290.125 72.3642 290.105 72.3106 290.073 72.2647C290.04 72.2188 289.996 72.1821 289.946 72.1583C289.234 71.9427 288.468 71.9919 287.789 72.2969C286.033 72.9744 284.246 73.8367 282.536 74.4988C277.827 76.8045 272.818 78.4422 267.656 79.3647C266.716 79.4878 265.808 79.5648 264.93 79.6572C260.863 80.0268 257.644 80.3193 254.994 84.1843C251.513 89.2657 251.235 95.6251 251.621 100.075C252.097 104.233 252.879 108.351 253.962 112.394C254.316 113.934 254.671 115.319 255.009 116.782C255.051 116.988 255.009 117.202 254.894 117.378C254.778 117.554 254.599 117.677 254.393 117.722L254.316 117.691Z" fill="#4F4F4F"/>
<path d="M292.241 140.711L294.074 152.66C294.074 152.66 292.195 170.045 279.055 166.996C265.915 163.947 260.678 152.106 260.678 152.106L258.999 120.539C258.999 120.539 268.688 115.258 265.623 94.1777C276.392 98.6903 288.179 100.217 299.742 98.597C299.742 98.597 304.364 120.308 302.946 130.471C302.71 133.186 301.493 135.723 299.523 137.607C297.553 139.491 294.965 140.594 292.241 140.711Z" fill="white"/>
<path d="M281.966 168.197C280.929 168.186 279.896 168.062 278.885 167.828C274.8 166.794 270.991 164.88 267.723 162.22C264.456 159.561 261.809 156.219 259.969 152.429C259.948 152.338 259.948 152.243 259.969 152.152L258.167 120.694C258.157 120.543 258.19 120.393 258.264 120.262C258.338 120.13 258.449 120.024 258.583 119.955C258.676 119.955 267.718 114.596 264.745 94.409C264.729 94.266 264.75 94.1213 264.807 93.9891C264.863 93.8568 264.954 93.7416 265.068 93.6545C265.182 93.5644 265.32 93.5092 265.465 93.4955C265.61 93.4819 265.756 93.5103 265.885 93.5775C276.524 97.9899 288.147 99.4888 299.558 97.9198C299.756 97.8963 299.957 97.9481 300.119 98.065C300.282 98.1818 300.395 98.3553 300.436 98.5511C300.62 99.4288 305.134 120.509 303.64 130.703C303.378 133.439 302.185 136.004 300.258 137.966C298.332 139.928 295.79 141.169 293.057 141.481L294.767 152.583C294.775 152.655 294.775 152.727 294.767 152.799C294.767 153.169 293.673 162.253 287.958 166.303C286.21 167.549 284.113 168.212 281.966 168.197ZM261.433 151.952C262.034 153.215 267.333 163.516 279.194 166.272C280.525 166.657 281.925 166.743 283.293 166.524C284.662 166.306 285.965 165.789 287.111 165.01C291.948 161.591 293.119 153.692 293.273 152.691L291.455 140.85C291.437 140.738 291.445 140.623 291.477 140.514C291.509 140.404 291.564 140.304 291.64 140.219C291.708 140.129 291.797 140.057 291.899 140.009C292.001 139.961 292.113 139.938 292.225 139.941C294.764 139.837 297.177 138.806 299.007 137.044C300.838 135.282 301.96 132.911 302.161 130.379C303.455 121.494 299.912 103.325 299.08 99.5828C288.075 100.916 276.911 99.5363 266.562 95.5639C268.765 113.534 261.664 119.739 259.785 121.048L261.433 151.952Z" fill="#4F4F4F"/>
<path d="M285.447 111.362C285.447 111.362 291.609 122.803 289.807 124.528C288.004 126.252 283.214 124.528 283.214 124.528" fill="white"/>
<path d="M287.188 126.067C285.761 126.036 284.347 125.781 282.998 125.313C282.895 125.286 282.798 125.239 282.714 125.173C282.63 125.107 282.561 125.024 282.51 124.93C282.46 124.836 282.43 124.733 282.421 124.626C282.413 124.52 282.427 124.413 282.463 124.312C282.498 124.211 282.554 124.119 282.627 124.041C282.7 123.963 282.788 123.901 282.886 123.859C282.984 123.817 283.09 123.796 283.197 123.797C283.304 123.798 283.409 123.822 283.506 123.866C284.616 124.266 288.128 125.128 289.314 123.989C290.069 123.296 287.912 117.475 284.8 111.763C284.752 111.674 284.721 111.576 284.71 111.475C284.699 111.374 284.708 111.272 284.737 111.175C284.765 111.078 284.813 110.987 284.877 110.908C284.941 110.829 285.019 110.764 285.109 110.716C285.197 110.667 285.295 110.636 285.396 110.625C285.497 110.614 285.599 110.623 285.696 110.652C285.794 110.681 285.884 110.728 285.963 110.792C286.042 110.856 286.108 110.934 286.156 111.023C288.128 114.627 292.456 123.203 290.346 125.128C289.444 125.818 288.32 126.153 287.188 126.067Z" fill="#4F4F4F"/>
<path d="M274.36 112.276C275.074 112.246 275.597 110.899 275.529 109.268C275.46 107.637 274.825 106.338 274.111 106.368C273.397 106.399 272.874 107.745 272.943 109.377C273.012 111.008 273.646 112.306 274.36 112.276Z" fill="#4F4F4F"/>
<path d="M294.983 112.271C295.697 112.241 296.22 110.894 296.152 109.263C296.083 107.632 295.448 106.334 294.734 106.364C294.02 106.394 293.497 107.74 293.566 109.372C293.635 111.003 294.269 112.301 294.983 112.271Z" fill="#4F4F4F"/>
<path d="M267.394 115.15C266.221 113.171 264.684 111.432 262.865 110.023C261.93 109.178 260.758 108.641 259.507 108.483C258.48 108.494 257.477 108.792 256.611 109.345C255.317 110.103 254.197 111.125 253.326 112.346C252.456 113.567 251.853 114.958 251.559 116.428C251.271 117.791 251.323 119.203 251.713 120.54C252.457 122.612 253.908 124.356 255.81 125.467C257.696 126.557 259.702 127.425 261.787 128.054" fill="white"/>
<path d="M261.787 128.901H261.525C259.373 128.253 257.305 127.354 255.364 126.221C253.305 125.018 251.738 123.125 250.943 120.878C250.509 119.413 250.445 117.862 250.758 116.366C251.073 114.772 251.722 113.262 252.662 111.935C253.602 110.608 254.811 109.495 256.211 108.667C257.2 108.035 258.349 107.699 259.523 107.697C260.934 107.846 262.266 108.421 263.343 109.345C265.236 110.82 266.835 112.637 268.056 114.703C268.164 114.885 268.195 115.102 268.143 115.307C268.091 115.512 267.96 115.688 267.779 115.797C267.595 115.903 267.377 115.932 267.172 115.877C266.967 115.822 266.792 115.688 266.685 115.504C265.577 113.61 264.112 111.947 262.372 110.608C261.554 109.892 260.54 109.436 259.461 109.299C258.587 109.311 257.733 109.567 256.996 110.038C255.811 110.749 254.788 111.7 253.993 112.83C253.197 113.959 252.646 115.243 252.375 116.597C252.124 117.833 252.172 119.11 252.514 120.324C253.202 122.212 254.532 123.798 256.272 124.805C258.109 125.866 260.063 126.708 262.095 127.315C262.193 127.348 262.284 127.4 262.362 127.468C262.441 127.536 262.504 127.619 262.55 127.712C262.596 127.805 262.623 127.907 262.63 128.01C262.636 128.114 262.622 128.217 262.588 128.315C262.545 128.492 262.441 128.647 262.294 128.754C262.148 128.861 261.968 128.913 261.787 128.901Z" fill="#4F4F4F"/>
<path d="M292.241 140.711C284.688 141.876 276.961 140.603 270.182 137.077C270.182 137.077 281.427 154.354 293.966 151.921L292.241 140.711Z" fill="#4F4F4F"/>
<path d="M291.44 153.03C279.671 153.03 269.874 138.278 269.489 137.632C269.398 137.488 269.357 137.319 269.371 137.149C269.385 136.98 269.453 136.82 269.566 136.692C269.678 136.564 269.831 136.477 269.998 136.446C270.166 136.416 270.34 136.443 270.49 136.523C277.124 139.951 284.672 141.196 292.056 140.08C292.264 140.043 292.479 140.087 292.656 140.203C292.743 140.264 292.816 140.342 292.872 140.432C292.927 140.522 292.964 140.622 292.98 140.727L294.705 151.921C294.741 152.117 294.698 152.319 294.586 152.484C294.473 152.648 294.3 152.762 294.104 152.799C293.225 152.96 292.333 153.038 291.44 153.03ZM272.508 139.172C275.974 143.591 284.23 152.599 293.042 151.49L291.501 141.805C285.039 142.596 278.483 141.65 272.508 139.064V139.172Z" fill="#4F4F4F"/>
<path d="M275.512 119.724C273.446 119.724 271.427 119.111 269.71 117.964C267.992 116.817 266.654 115.187 265.863 113.279C265.073 111.371 264.866 109.272 265.269 107.247C265.672 105.222 266.666 103.362 268.127 101.902C269.588 100.441 271.449 99.4472 273.474 99.0444C275.5 98.6415 277.6 98.8483 279.509 99.6384C281.417 100.429 283.048 101.767 284.196 103.484C285.343 105.2 285.956 107.219 285.956 109.284C285.952 112.051 284.85 114.704 282.892 116.661C280.935 118.618 278.281 119.72 275.512 119.724ZM275.512 100.43C273.76 100.43 272.048 100.949 270.591 101.922C269.135 102.895 267.999 104.278 267.329 105.895C266.659 107.513 266.483 109.294 266.825 111.011C267.167 112.729 268.01 114.306 269.249 115.544C270.488 116.783 272.066 117.626 273.784 117.968C275.502 118.309 277.283 118.134 278.902 117.464C280.52 116.794 281.903 115.659 282.877 114.203C283.85 112.747 284.369 111.035 284.369 109.284C284.365 106.937 283.431 104.687 281.771 103.028C280.11 101.368 277.86 100.434 275.512 100.43Z" fill="#4F4F4F"/>
<path d="M296.338 119.724C294.273 119.724 292.253 119.111 290.536 117.964C288.818 116.817 287.48 115.187 286.689 113.279C285.899 111.371 285.692 109.272 286.095 107.247C286.498 105.222 287.493 103.362 288.953 101.902C290.414 100.441 292.275 99.4472 294.301 99.0444C296.327 98.6415 298.426 98.8483 300.335 99.6384C302.243 100.429 303.874 101.767 305.022 103.484C306.169 105.2 306.782 107.219 306.782 109.284C306.778 112.051 305.676 114.704 303.719 116.661C301.761 118.618 299.107 119.72 296.338 119.724ZM296.338 100.43C294.586 100.43 292.874 100.949 291.417 101.922C289.961 102.895 288.825 104.278 288.155 105.895C287.485 107.513 287.309 109.294 287.651 111.011C287.993 112.729 288.836 114.306 290.075 115.544C291.314 116.783 292.892 117.626 294.61 117.968C296.328 118.309 298.109 118.134 299.728 117.464C301.346 116.794 302.729 115.659 303.703 114.203C304.676 112.747 305.195 111.035 305.195 109.284C305.191 106.937 304.257 104.687 302.597 103.028C300.936 101.368 298.686 100.434 296.338 100.43Z" fill="#4F4F4F"/>
<path d="M285.509 132.443C280.641 132.443 275.943 129.486 271.522 123.743C271.446 123.665 271.387 123.571 271.349 123.469C271.311 123.366 271.296 123.257 271.304 123.148C271.312 123.039 271.343 122.933 271.395 122.836C271.447 122.74 271.519 122.656 271.606 122.59C271.693 122.524 271.793 122.477 271.9 122.453C272.007 122.429 272.117 122.427 272.224 122.449C272.331 122.47 272.433 122.515 272.522 122.578C272.61 122.642 272.685 122.724 272.739 122.819C276.852 128.147 281.15 130.872 285.509 130.903C291.532 130.903 295.706 125.698 295.753 125.652C295.882 125.505 296.062 125.412 296.257 125.393C296.453 125.374 296.648 125.43 296.803 125.55C296.958 125.67 297.062 125.844 297.093 126.038C297.124 126.231 297.08 126.429 296.97 126.591C296.754 126.853 292.241 132.443 285.509 132.443Z" fill="#4F4F4F"/>
<path d="M231.857 158.789C226.389 164.04 185.892 204.983 182.857 197.438C179.823 189.893 177.666 155.263 177.666 155.263L149.939 159.374C149.939 159.374 133.95 237.35 161.754 245.943C189.558 254.535 231.857 213.606 231.857 213.606V158.789Z" fill="#E67E22"/>
<path d="M209.059 259.786C208.923 259.786 208.79 259.749 208.674 259.678C208.586 259.628 208.509 259.562 208.447 259.482C208.385 259.402 208.34 259.311 208.314 259.213C208.288 259.115 208.282 259.013 208.296 258.913C208.311 258.813 208.345 258.717 208.397 258.631C208.566 258.323 226.312 226.664 232.073 176.374C232.103 176.172 232.21 175.99 232.37 175.864C232.53 175.738 232.732 175.678 232.935 175.696C233.137 175.719 233.322 175.821 233.449 175.98C233.576 176.139 233.635 176.341 233.613 176.543C227.806 227.172 209.907 259.077 209.722 259.401C209.654 259.517 209.558 259.614 209.442 259.681C209.326 259.749 209.194 259.785 209.059 259.786Z" fill="#4F4F4F"/>
<path d="M370.955 198.223C350.236 198.223 311.696 189.554 311.311 189.462C311.211 189.44 311.117 189.399 311.034 189.34C310.951 189.282 310.88 189.208 310.825 189.122C310.771 189.036 310.734 188.94 310.717 188.84C310.7 188.74 310.703 188.637 310.725 188.538C310.745 188.438 310.785 188.343 310.843 188.259C310.901 188.175 310.976 188.104 311.063 188.051C311.15 187.997 311.246 187.962 311.347 187.948C311.448 187.934 311.551 187.941 311.65 187.968C312.035 188.045 350.406 196.684 370.939 196.684H372.48C372.683 196.683 372.878 196.762 373.024 196.903C373.171 197.043 373.257 197.235 373.265 197.438C373.267 197.539 373.249 197.64 373.213 197.734C373.176 197.828 373.121 197.914 373.051 197.987C372.98 198.06 372.897 198.118 372.804 198.159C372.711 198.199 372.612 198.221 372.51 198.223H370.955Z" fill="#4F4F4F"/>
<path d="M161.446 118.923C161.446 118.923 166.313 124.112 163.926 133.212C161.538 142.313 157.518 143.991 150.694 139.941" fill="white"/>
<path d="M156.686 142.836C154.39 142.684 152.177 141.918 150.278 140.619C150.189 140.565 150.111 140.495 150.049 140.411C149.988 140.328 149.943 140.233 149.918 140.132C149.893 140.031 149.888 139.927 149.904 139.824C149.919 139.721 149.955 139.622 150.008 139.533C150.062 139.445 150.132 139.367 150.216 139.305C150.3 139.244 150.395 139.199 150.495 139.174C150.596 139.149 150.701 139.144 150.804 139.159C150.906 139.175 151.005 139.21 151.094 139.264C154.175 141.127 156.547 141.666 158.334 140.942C160.398 140.111 161.969 137.524 163.14 133.012C165.374 124.482 161.03 119.678 160.845 119.477C160.697 119.328 160.614 119.126 160.614 118.915C160.614 118.705 160.697 118.503 160.845 118.353C160.917 118.279 161.003 118.22 161.098 118.179C161.193 118.139 161.296 118.118 161.399 118.118C161.503 118.118 161.605 118.139 161.701 118.179C161.796 118.22 161.882 118.279 161.954 118.353C162.17 118.584 167.099 123.974 164.634 133.382C163.294 138.479 161.553 141.343 158.889 142.39C158.189 142.676 157.442 142.827 156.686 142.836Z" fill="#4F4F4F"/>
<path d="M390.102 104.171C390.102 104.171 381.214 89.2195 383.386 87.6951C385.558 86.1706 390.61 91.9911 393.398 95.9331C393.398 95.9331 401.948 97.4729 400.515 106.989" fill="white"/>
<path d="M400.515 107.79H400.391C400.184 107.756 399.998 107.642 399.874 107.472C399.75 107.302 399.698 107.09 399.729 106.882C401.038 98.2279 393.567 96.7805 393.259 96.7343C393.055 96.6952 392.873 96.5796 392.751 96.4109C389.085 91.2217 385.049 87.5415 383.848 88.3577C383.278 89.3893 386.451 96.4725 390.795 103.756C390.897 103.936 390.926 104.15 390.874 104.351C390.822 104.552 390.695 104.725 390.518 104.834C390.428 104.889 390.328 104.926 390.224 104.942C390.12 104.958 390.014 104.952 389.912 104.927C389.81 104.901 389.714 104.855 389.63 104.791C389.547 104.728 389.476 104.648 389.424 104.557C385.203 97.4426 380.644 88.6348 382.939 87.0334C386.02 84.8469 391.889 92.4228 393.876 95.2099C395.524 95.641 402.671 98.0431 401.3 107.097C401.274 107.288 401.181 107.463 401.037 107.59C400.892 107.717 400.707 107.788 400.515 107.79Z" fill="#4F4F4F"/>
<path d="M117.591 332.696C117.434 332.694 117.281 332.645 117.153 332.555C117.025 332.464 116.928 332.337 116.874 332.189C116.821 332.042 116.814 331.882 116.853 331.73C116.893 331.579 116.979 331.443 117.098 331.341L192.577 268.316C192.734 268.186 192.937 268.123 193.141 268.141C193.242 268.151 193.34 268.18 193.429 268.227C193.519 268.274 193.598 268.338 193.663 268.416C193.728 268.494 193.777 268.584 193.807 268.681C193.837 268.777 193.847 268.879 193.838 268.98C193.829 269.081 193.8 269.179 193.752 269.268C193.705 269.358 193.641 269.437 193.563 269.502L118.084 332.527C117.944 332.639 117.77 332.699 117.591 332.696Z" fill="#E4E5E7"/>
<path d="M464.842 306.026C464.675 306.028 464.513 305.973 464.38 305.872L348.727 218.257C348.632 218.202 348.55 218.128 348.486 218.039C348.423 217.95 348.378 217.849 348.357 217.742C348.335 217.635 348.337 217.524 348.361 217.418C348.385 217.311 348.432 217.211 348.498 217.124C348.565 217.037 348.648 216.965 348.745 216.913C348.841 216.861 348.947 216.83 349.056 216.822C349.165 216.814 349.274 216.829 349.377 216.867C349.48 216.905 349.573 216.964 349.651 217.04L465.304 304.641C465.467 304.763 465.575 304.945 465.604 305.148C465.633 305.35 465.581 305.555 465.458 305.718C465.386 305.813 465.292 305.89 465.186 305.944C465.079 305.997 464.961 306.025 464.842 306.026Z" fill="#E4E5E7"/>
<path d="M220.997 112.133C220.889 112.131 220.783 112.107 220.685 112.062C220.586 112.017 220.499 111.952 220.427 111.871L164.003 48.8152C163.861 48.6686 163.781 48.4726 163.781 48.2685C163.781 48.0644 163.861 47.8684 164.003 47.7219C164.074 47.6497 164.16 47.5924 164.253 47.5534C164.347 47.5143 164.448 47.4941 164.55 47.4941C164.651 47.4941 164.752 47.5143 164.846 47.5534C164.94 47.5924 165.025 47.6497 165.096 47.7219L221.506 110.777C221.578 110.849 221.635 110.934 221.674 111.028C221.713 111.122 221.734 111.222 221.734 111.324C221.734 111.426 221.713 111.526 221.674 111.62C221.635 111.714 221.578 111.799 221.506 111.871C221.375 112.019 221.194 112.112 220.997 112.133Z" fill="#E4E5E7"/>
<path d="M413.67 159.789C413.465 159.826 413.255 159.78 413.085 159.662C412.914 159.544 412.798 159.362 412.761 159.158C412.724 158.954 412.77 158.744 412.888 158.573C413.007 158.403 413.188 158.286 413.392 158.25L472.944 135.029C473.134 134.954 473.346 134.957 473.534 135.037C473.722 135.118 473.87 135.27 473.945 135.46C474.021 135.65 474.018 135.862 473.937 136.05C473.856 136.238 473.704 136.386 473.514 136.461L413.932 159.728C413.85 159.768 413.761 159.789 413.67 159.789Z" fill="#E4E5E7"/>
<path d="M320.769 106.743C320.657 106.772 320.541 106.772 320.43 106.743C320.339 106.699 320.257 106.637 320.19 106.561C320.123 106.485 320.071 106.396 320.038 106.301C320.005 106.205 319.992 106.103 319.998 106.002C320.004 105.901 320.031 105.802 320.075 105.711L341.318 62.7812C341.407 62.5974 341.567 62.4568 341.76 62.3904C341.954 62.324 342.166 62.3372 342.35 62.427C342.533 62.5169 342.674 62.676 342.741 62.8695C342.807 63.063 342.794 63.2749 342.704 63.4587L321.508 106.327C321.438 106.46 321.33 106.57 321.199 106.643C321.068 106.717 320.919 106.752 320.769 106.743Z" fill="#E4E5E7"/>
<path d="M464.842 211.004H464.765L395.231 201.95C395.13 201.938 395.032 201.906 394.944 201.856C394.855 201.806 394.777 201.739 394.714 201.659C394.651 201.579 394.604 201.487 394.577 201.389C394.549 201.291 394.541 201.188 394.554 201.087C394.566 200.986 394.598 200.889 394.648 200.8C394.698 200.711 394.764 200.633 394.845 200.57C394.925 200.507 395.016 200.461 395.114 200.433C395.213 200.406 395.315 200.398 395.416 200.41L464.965 209.464C465.167 209.491 465.35 209.597 465.474 209.758C465.599 209.92 465.654 210.124 465.627 210.326C465.601 210.515 465.507 210.688 465.362 210.813C465.218 210.938 465.033 211.006 464.842 211.004Z" fill="#E4E5E7"/>
<path d="M335.849 132.443C335.733 132.444 335.618 132.419 335.514 132.368C335.409 132.317 335.318 132.243 335.248 132.15C335.183 132.073 335.134 131.983 335.104 131.887C335.074 131.79 335.064 131.689 335.074 131.588C335.084 131.488 335.114 131.39 335.163 131.302C335.211 131.213 335.277 131.135 335.356 131.072L345.723 122.68C345.883 122.554 346.085 122.497 346.287 122.52C346.489 122.543 346.674 122.645 346.801 122.803C346.929 122.961 346.989 123.163 346.969 123.364C346.949 123.566 346.85 123.752 346.693 123.881L336.327 132.273C336.19 132.381 336.023 132.44 335.849 132.443Z" fill="#E4E5E7"/>
<path d="M402.363 332.696C402.23 332.698 402.099 332.665 401.982 332.6C401.866 332.535 401.769 332.441 401.701 332.326L361.82 264.882C361.719 264.706 361.692 264.498 361.743 264.302C361.795 264.105 361.923 263.938 362.097 263.835C362.274 263.732 362.483 263.701 362.682 263.75C362.88 263.799 363.052 263.923 363.16 264.097L403.026 331.541C403.078 331.627 403.112 331.723 403.126 331.823C403.14 331.923 403.135 332.025 403.109 332.123C403.083 332.221 403.038 332.312 402.976 332.392C402.914 332.472 402.836 332.538 402.748 332.588C402.633 332.661 402.499 332.698 402.363 332.696Z" fill="#E4E5E7"/>
<path d="M183.504 336.53C183.38 336.531 183.258 336.499 183.15 336.438C182.971 336.343 182.837 336.181 182.776 335.988C182.716 335.795 182.734 335.586 182.826 335.406L199.016 304.887C199.064 304.798 199.13 304.719 199.209 304.655C199.288 304.591 199.378 304.544 199.476 304.515C199.573 304.487 199.675 304.477 199.776 304.488C199.877 304.499 199.974 304.53 200.063 304.579C200.152 304.626 200.23 304.69 200.294 304.767C200.358 304.845 200.405 304.934 200.434 305.03C200.463 305.126 200.472 305.227 200.461 305.327C200.45 305.426 200.42 305.523 200.371 305.61L184.197 336.13C184.127 336.251 184.026 336.352 183.904 336.423C183.783 336.493 183.645 336.53 183.504 336.53Z" fill="#E4E5E7"/>
<path d="M92.7596 240.43C92.5882 240.431 92.4216 240.373 92.2873 240.267C92.1529 240.161 92.0587 240.012 92.0202 239.845C91.9739 239.647 92.0079 239.439 92.1146 239.265C92.2214 239.092 92.3924 238.969 92.5902 238.921L142.237 227.634C142.441 227.589 142.655 227.627 142.831 227.74C143.008 227.852 143.132 228.03 143.177 228.235C143.222 228.439 143.184 228.653 143.071 228.829C142.958 229.005 142.78 229.129 142.576 229.174L92.9291 240.445L92.7596 240.43Z" fill="#E4E5E7"/>
<path d="M250.789 58.7774C250.621 58.7799 250.458 58.7269 250.324 58.6265C250.19 58.5262 250.094 58.3843 250.049 58.223L238.327 17.2946C238.275 17.0966 238.302 16.886 238.402 16.7077C238.503 16.5293 238.669 16.3974 238.866 16.3399C238.962 16.3118 239.063 16.3031 239.162 16.3143C239.262 16.3255 239.358 16.3563 239.446 16.405C239.533 16.4538 239.61 16.5194 239.672 16.5981C239.734 16.6768 239.779 16.767 239.806 16.8635L251.574 57.8073C251.602 57.9033 251.611 58.004 251.6 58.1034C251.589 58.2029 251.558 58.2991 251.509 58.3865C251.461 58.474 251.395 58.5508 251.316 58.6126C251.237 58.6744 251.147 58.72 251.051 58.7466C250.967 58.779 250.877 58.7896 250.789 58.7774Z" fill="#E4E5E7"/>
<path d="M303.193 45.5967H303.023C302.924 45.5749 302.83 45.5336 302.747 45.4752C302.663 45.4169 302.592 45.3426 302.538 45.2567C302.484 45.1708 302.447 45.075 302.43 44.9748C302.412 44.8746 302.415 44.7719 302.438 44.6728L310.725 8.28691C310.77 8.08272 310.894 7.90474 311.071 7.79211C311.247 7.67949 311.461 7.64146 311.665 7.68638C311.869 7.73131 312.047 7.8555 312.16 8.03165C312.273 8.2078 312.311 8.42148 312.266 8.62567L303.948 44.9962C303.906 45.1659 303.81 45.3171 303.673 45.4259C303.536 45.5347 303.367 45.5948 303.193 45.5967Z" fill="#E4E5E7"/>
<path d="M138.109 164.686H107.47C107.266 164.686 107.07 164.605 106.926 164.461C106.781 164.316 106.7 164.121 106.7 163.916C106.7 163.712 106.781 163.516 106.926 163.372C107.07 163.228 107.266 163.146 107.47 163.146H138.109C138.313 163.146 138.509 163.228 138.653 163.372C138.798 163.516 138.879 163.712 138.879 163.916C138.879 164.121 138.798 164.316 138.653 164.461C138.509 164.605 138.313 164.686 138.109 164.686Z" fill="#E4E5E7"/>
</g>
<defs>
<clipPath id="clip0">
<rect width="566" height="350" fill="white"/>
</clipPath>
</defs>
</svg>
