<svg width="566" height="350" viewBox="0 0 566 350" fill="none" xmlns="http://www.w3.org/2000/svg">
<g clip-path="url(#clip0)">
<path d="M125.456 229.157V238.91L244.827 349.245L490.714 264.879V255.246L125.456 229.157Z" fill="#4F4F4F"/>
<path d="M244.782 350C244.593 350 244.411 349.93 244.27 349.804L124.943 239.469C124.868 239.397 124.808 239.31 124.767 239.214C124.725 239.118 124.703 239.015 124.702 238.911V229.157C124.704 229.055 124.726 228.954 124.767 228.861C124.809 228.767 124.869 228.683 124.943 228.614C125.014 228.539 125.102 228.482 125.199 228.448C125.296 228.414 125.399 228.404 125.501 228.418L490.759 254.491C490.951 254.503 491.131 254.588 491.263 254.728C491.395 254.868 491.468 255.054 491.468 255.246V264.879C491.464 265.035 491.413 265.187 491.322 265.314C491.23 265.44 491.102 265.536 490.955 265.588L245.069 349.955L244.782 350ZM126.164 238.578L244.963 348.384L489.915 264.335V255.956L126.209 229.973L126.164 238.578Z" fill="#4F4F4F"/>
<path d="M125.456 229.158L74.2018 52.8159L327.156 0.758789L363.204 155.918L125.456 229.158Z" fill="white"/>
<path d="M125.456 229.912C125.33 229.911 125.206 229.88 125.094 229.822C125.006 229.775 124.928 229.711 124.866 229.633C124.804 229.555 124.758 229.465 124.732 229.369L73.4935 53.0271C73.4648 52.929 73.4566 52.8261 73.4696 52.7247C73.4826 52.6234 73.5164 52.5259 73.5688 52.4382C73.6237 52.3479 73.6959 52.2694 73.7813 52.2072C73.8667 52.145 73.9635 52.1004 74.0662 52.0759L327.006 0.0188133C327.102 -0.00331498 327.201 -0.00595122 327.298 0.0110554C327.395 0.0280621 327.488 0.0643709 327.571 0.117839C327.654 0.171308 327.725 0.240856 327.781 0.322382C327.836 0.403908 327.875 0.49576 327.895 0.59253L363.943 155.737C363.989 155.923 363.962 156.12 363.866 156.286C363.771 156.452 363.614 156.575 363.43 156.628L125.727 229.882C125.64 229.913 125.547 229.924 125.456 229.912ZM75.1512 53.4045L125.968 228.221L362.33 155.375L326.584 1.64937L75.1512 53.4045Z" fill="#4F4F4F"/>
<path d="M132.81 214.679L87.1924 62.4028L318.144 13.0181L351.269 150.528L132.81 214.679Z" fill="white"/>
<path d="M132.825 215.433C132.662 215.436 132.502 215.384 132.371 215.286C132.24 215.187 132.145 215.048 132.102 214.89L86.5444 62.6139C86.5042 62.521 86.4834 62.4208 86.4834 62.3195C86.4834 62.2183 86.5042 62.118 86.5444 62.0251C86.5979 61.9337 86.6697 61.8543 86.7553 61.792C86.8409 61.7296 86.9384 61.6856 87.0417 61.6628L317.994 12.278C318.187 12.2415 318.387 12.2806 318.552 12.3873C318.718 12.494 318.836 12.6603 318.883 12.8517L352.037 150.347C352.085 150.535 352.057 150.734 351.962 150.903C351.867 151.071 351.71 151.197 351.525 151.253L133.006 215.403L132.825 215.433ZM88.1569 62.9763L133.368 213.743L350.38 150L317.587 13.9086L88.1569 62.9763Z" fill="#4F4F4F"/>
<path d="M363.204 155.918L125.456 229.157L244.978 336.653L490.714 255.246L363.204 155.918Z" fill="white"/>
<path d="M244.978 337.408C244.794 337.405 244.618 337.335 244.481 337.212L124.958 229.731C124.859 229.643 124.785 229.529 124.743 229.403C124.702 229.276 124.694 229.141 124.722 229.011C124.749 228.88 124.811 228.759 124.9 228.661C124.989 228.562 125.103 228.488 125.23 228.448L362.978 155.194C363.095 155.156 363.219 155.147 363.34 155.168C363.461 155.189 363.575 155.239 363.672 155.314L491.181 254.642C491.285 254.73 491.365 254.842 491.412 254.969C491.46 255.096 491.474 255.233 491.452 255.367C491.433 255.502 491.377 255.629 491.289 255.733C491.201 255.838 491.085 255.915 490.955 255.956L245.219 337.363C245.143 337.394 245.061 337.41 244.978 337.408ZM126.948 229.49L245.159 335.793L489.132 255.02L363.054 156.794L126.948 229.49Z" fill="#4F4F4F"/>
<path d="M359.271 169.763L153.592 236.857L208.327 285.094L419.929 214.679L359.271 169.763Z" fill="white"/>
<path d="M208.327 285.85C208.143 285.846 207.967 285.776 207.83 285.653L153.095 237.431C152.992 237.344 152.916 237.23 152.873 237.102C152.831 236.975 152.824 236.838 152.853 236.706C152.881 236.578 152.941 236.459 153.028 236.361C153.115 236.263 153.227 236.19 153.351 236.148L359.045 169.038C359.159 169.003 359.279 168.994 359.396 169.013C359.514 169.031 359.626 169.076 359.723 169.144L420.381 214.075C420.491 214.157 420.577 214.268 420.627 214.396C420.678 214.524 420.692 214.664 420.667 214.8C420.65 214.935 420.594 215.063 420.506 215.168C420.417 215.272 420.301 215.349 420.17 215.388L208.614 285.804C208.523 285.842 208.425 285.858 208.327 285.85ZM155.084 237.174L208.493 284.234L418.316 214.422L359.135 170.639L155.084 237.174Z" fill="#E4E5E7"/>
<path d="M314.648 135.114C314.648 135.114 250.102 160.539 189.098 145.456C128.093 130.373 91.7587 77.6367 91.7587 77.6367L124.431 186.673C124.431 186.673 147.549 200.985 204.74 200.261C277.696 199.4 326.9 162.984 326.9 162.984L310.323 134.389" fill="white"/>
<path d="M200.928 201.091C146.916 201.091 124.265 187.503 124.069 187.322C123.914 187.222 123.797 187.073 123.738 186.899L91.0654 77.8478C91.0195 77.6768 91.0351 77.4952 91.1093 77.3346C91.1835 77.1741 91.3117 77.0447 91.4715 76.9692C91.6312 76.8936 91.8124 76.8767 91.9833 76.9214C92.1543 76.9661 92.3041 77.0695 92.4066 77.2136C92.7683 77.727 129.284 129.89 189.308 144.716C240.623 157.398 295.087 141.077 310.278 135.899L309.645 134.827C309.594 134.742 309.56 134.648 309.546 134.55C309.532 134.451 309.538 134.352 309.563 134.256C309.589 134.16 309.633 134.07 309.693 133.992C309.754 133.914 309.83 133.849 309.916 133.8C310.001 133.748 310.095 133.713 310.194 133.698C310.292 133.683 310.393 133.687 310.489 133.711C310.586 133.735 310.677 133.778 310.757 133.837C310.837 133.896 310.905 133.971 310.956 134.057L311.724 135.385L314.407 134.419C314.498 134.38 314.595 134.361 314.694 134.361C314.792 134.362 314.89 134.382 314.98 134.422C315.07 134.461 315.152 134.519 315.219 134.591C315.286 134.664 315.338 134.749 315.371 134.842C315.408 134.934 315.426 135.033 315.425 135.132C315.424 135.231 315.403 135.329 315.363 135.42C315.324 135.511 315.268 135.594 315.196 135.663C315.125 135.732 315.041 135.787 314.949 135.823L312.493 136.714L327.563 162.667C327.658 162.827 327.688 163.017 327.649 163.199C327.61 163.381 327.504 163.541 327.352 163.648C326.87 164.011 277.123 200.23 204.756 201.076L200.928 201.091ZM125.064 186.174C127.671 187.684 151.467 200.17 204.725 199.566C272.542 198.766 320.284 166.758 325.905 162.818L311.091 137.257C296.157 142.376 240.984 159.074 189.022 146.21C137.482 133.483 103.122 93.5041 93.8082 81.5165L125.064 186.174Z" fill="#4F4F4F"/>
<path d="M298.493 139.069L318.672 170.397L336.123 164.449L311.091 125.602L298.493 139.069Z" fill="white"/>
<path d="M318.627 171.152C318.501 171.15 318.377 171.118 318.267 171.057C318.156 170.997 318.063 170.91 317.994 170.804L297.814 139.492C297.724 139.348 297.684 139.178 297.7 139.008C297.717 138.839 297.789 138.68 297.905 138.556L310.504 125.088C310.583 125.005 310.679 124.941 310.786 124.899C310.893 124.857 311.007 124.839 311.122 124.847C311.234 124.86 311.343 124.898 311.439 124.958C311.536 125.018 311.618 125.099 311.679 125.194L336.711 164.041C336.772 164.137 336.81 164.246 336.823 164.359C336.835 164.472 336.823 164.587 336.785 164.694C336.747 164.802 336.686 164.899 336.605 164.98C336.524 165.06 336.427 165.121 336.319 165.158L318.868 171.106C318.791 171.138 318.709 171.153 318.627 171.152ZM299.397 139.16L318.988 169.491L334.963 164.041L310.986 126.825L299.397 139.16Z" fill="#4F4F4F"/>
<path d="M393.104 149.819C393.104 149.819 393.435 172.858 380.053 189.601C366.67 206.345 325.272 214.679 325.272 214.679L338.353 163.905L393.104 149.819Z" fill="#E67E22"/>
<path d="M325.273 215.434C325.067 215.428 324.872 215.341 324.73 215.192C324.642 215.099 324.58 214.985 324.548 214.861C324.516 214.737 324.517 214.607 324.549 214.483L337.615 163.724C337.651 163.594 337.72 163.476 337.815 163.381C337.91 163.286 338.028 163.217 338.158 163.18L392.923 149.094C393.034 149.06 393.151 149.053 393.265 149.074C393.379 149.095 393.486 149.143 393.578 149.214C393.669 149.285 393.742 149.377 393.791 149.482C393.84 149.588 393.862 149.703 393.857 149.819C393.857 150.045 394.038 173.311 380.626 190.07C367.213 206.828 327.126 215.071 325.423 215.419L325.273 215.434ZM338.971 164.539L326.312 213.682C333.154 212.173 367.65 203.884 379.465 189.118C390.994 174.715 392.215 155.314 392.335 150.8L338.971 164.539Z" fill="#4F4F4F"/>
<path d="M347.381 78.8441C347.381 78.8441 326.554 69.0457 305.817 74.3148C285.08 79.5839 260.455 113.977 260.455 113.977L312.011 122.945L347.381 78.8441Z" fill="#E67E22"/>
<path d="M312.011 123.775H311.875L260.32 114.792C260.195 114.772 260.079 114.719 259.981 114.64C259.883 114.56 259.808 114.457 259.762 114.339C259.711 114.222 259.691 114.094 259.705 113.967C259.718 113.84 259.764 113.718 259.837 113.614C260.847 112.21 284.869 78.9952 305.636 73.6506C326.403 68.306 347.486 78.0592 347.697 78.18C347.801 78.2264 347.893 78.2974 347.963 78.3867C348.034 78.4761 348.082 78.5812 348.104 78.6933C348.131 78.8024 348.133 78.9162 348.109 79.026C348.086 79.1359 348.038 79.2389 347.968 79.3274L312.598 123.503C312.527 123.59 312.437 123.659 312.335 123.706C312.234 123.753 312.123 123.776 312.011 123.775ZM261.782 113.524L311.709 122.16L346.175 79.1009C342.016 77.3496 323.856 70.4801 306.013 75.0698C287.717 79.886 265.986 107.907 261.782 113.524Z" fill="#4F4F4F"/>
<path d="M300.633 121.873C314.874 101.113 339.815 77.6968 371.267 57.3752C418.904 26.5607 460.679 36.8422 474.83 41.8698C476.362 42.413 477.672 43.4471 478.557 44.8118C479.443 46.1766 479.854 47.7959 479.728 49.4187C478.462 64.4107 470.686 106.79 422.958 137.59C391.522 157.926 359.949 171.061 335.204 175.5C335.204 175.5 325.86 170.02 313.819 151.344C301.778 132.668 300.633 121.873 300.633 121.873Z" fill="#E67E22"/>
<path d="M335.204 176.285C335.066 176.288 334.93 176.251 334.812 176.18C334.435 175.953 325.197 170.397 313.186 151.766C301.175 133.136 299.924 122.401 299.879 121.963C299.863 121.782 299.911 121.6 300.015 121.45C314.799 99.8755 340.614 76.2777 370.845 56.7412C418.226 26.1078 459.519 35.6043 475.086 41.1603C476.78 41.7566 478.229 42.9007 479.203 44.4122C480.177 45.9237 480.621 47.7169 480.466 49.5093C479.08 65.9961 470.746 107.621 423.38 138.254C393.149 157.881 361.049 171.665 335.324 176.27L335.204 176.285ZM301.416 122.069C301.688 123.821 303.692 134.253 314.452 150.936C325.212 167.619 333.863 173.764 335.355 174.745C360.838 170.11 392.622 156.356 422.551 137.001C469.374 106.805 477.603 65.6639 478.974 49.4339C479.095 47.9732 478.731 46.5134 477.938 45.2818C477.145 44.0503 475.967 43.1161 474.589 42.6248C459.232 37.1745 418.482 27.7837 371.674 58.0396C341.714 77.3647 316.125 100.706 301.416 122.069Z" fill="#4F4F4F"/>
<path d="M479.728 49.4489C477.864 68.0351 471.343 85.8482 460.769 101.234L419.929 37.8237C438.275 34.4986 457.164 35.8854 474.83 41.8548C476.37 42.3999 477.685 43.4409 478.572 44.815C479.458 46.1891 479.864 47.8187 479.728 49.4489Z" fill="white"/>
<path d="M460.785 101.989C460.661 101.988 460.539 101.955 460.431 101.894C460.323 101.834 460.232 101.747 460.167 101.642L419.311 38.2312C419.256 38.1212 419.227 37.9997 419.227 37.8764C419.227 37.7531 419.256 37.6316 419.311 37.5216C419.362 37.4045 419.44 37.3018 419.54 37.2227C419.64 37.1436 419.758 37.0907 419.884 37.0687C438.357 33.711 457.378 35.1137 475.162 41.1451C476.856 41.7414 478.304 42.8854 479.278 44.397C480.252 45.9085 480.697 47.7017 480.542 49.4941C478.707 68.2157 472.146 86.1614 461.478 101.642C461.406 101.758 461.303 101.853 461.18 101.914C461.058 101.975 460.921 102.001 460.785 101.989ZM421.18 38.3822L460.785 99.8602C470.939 84.8112 477.19 67.4649 478.974 49.3884C479.096 47.9278 478.731 46.468 477.938 45.2364C477.145 44.0048 475.967 43.0706 474.589 42.5793C457.413 36.7465 439.054 35.3038 421.18 38.3822Z" fill="#4F4F4F"/>
<path d="M403.924 120.001C419.98 120.001 432.995 106.962 432.995 90.877C432.995 74.7925 419.98 61.7534 403.924 61.7534C387.869 61.7534 374.854 74.7925 374.854 90.877C374.854 106.962 387.869 120.001 403.924 120.001Z" fill="white"/>
<path d="M403.97 120.74C396.799 120.744 389.868 118.158 384.447 113.457C379.025 108.756 375.477 102.254 374.452 95.1445C373.428 88.0349 374.995 80.7935 378.868 74.748C382.741 68.7025 388.659 64.2579 395.537 62.2293C402.415 60.2007 409.793 60.7238 416.318 63.7029C422.842 66.682 428.076 71.9174 431.06 78.4491C434.044 84.9809 434.578 92.3713 432.564 99.2654C430.55 106.16 426.123 112.095 420.095 115.985C415.286 119.087 409.689 120.738 403.97 120.74ZM403.864 62.4933C398.774 62.4998 393.78 63.8805 389.408 66.4901C385.035 69.0998 381.445 72.8419 379.016 77.3227C376.587 81.8035 375.408 86.8575 375.604 91.9527C375.8 97.048 377.363 101.996 380.128 106.277C382.656 110.197 386.11 113.433 390.185 115.696C394.259 117.96 398.827 119.183 403.486 119.255C408.144 119.328 412.748 118.248 416.891 116.113C421.033 113.977 424.586 110.851 427.235 107.011C429.883 103.171 431.546 98.7366 432.075 94.0995C432.604 89.4623 431.984 84.766 430.269 80.4264C428.554 76.0867 425.797 72.2378 422.243 69.2203C418.689 66.2029 414.447 64.1101 409.892 63.1274C407.91 62.7076 405.89 62.4951 403.864 62.4933Z" fill="#4F4F4F"/>
<path d="M403.924 108.843C413.829 108.843 421.858 100.8 421.858 90.877C421.858 80.9544 413.829 72.9106 403.924 72.9106C394.02 72.9106 385.991 80.9544 385.991 90.877C385.991 100.8 394.02 108.843 403.924 108.843Z" fill="#4F4F4F"/>
<path d="M403.954 109.598C399.459 109.617 395.108 108.013 391.698 105.078C388.289 102.144 386.049 98.077 385.39 93.6224C384.73 89.1679 385.696 84.6246 388.109 80.8255C390.523 77.0264 394.222 74.226 398.529 72.938C402.837 71.6499 407.463 71.9603 411.56 73.8124C415.657 75.6645 418.951 78.9341 420.837 83.0217C422.723 87.1094 423.075 91.7411 421.829 96.0678C420.583 100.394 417.821 104.126 414.052 106.579C411.044 108.534 407.539 109.582 403.954 109.598ZM403.954 73.6654C400.654 73.6577 397.424 74.6125 394.656 76.4132C391.176 78.6596 388.62 82.0878 387.459 86.0689C386.297 90.0501 386.606 94.3173 388.331 98.0882C390.055 101.859 393.079 104.881 396.847 106.599C400.615 108.318 404.875 108.618 408.847 107.444C412.818 106.271 416.233 103.702 418.467 100.21C420.701 96.718 421.604 92.5361 421.009 88.4313C420.415 84.3265 418.363 80.574 415.231 77.8619C412.098 75.1498 408.095 73.6599 403.954 73.6654Z" fill="#4F4F4F"/>
<path d="M415.95 83.8414C415.817 83.8407 415.686 83.8038 415.572 83.7347C415.458 83.6656 415.365 83.5668 415.302 83.4488C415.061 83.0412 409.5 73.3635 397.911 78.6779C397.747 78.7437 397.565 78.7495 397.397 78.6943C397.229 78.6391 397.085 78.5264 396.992 78.376C396.949 78.287 396.924 78.1903 396.919 78.0916C396.914 77.9929 396.929 77.8942 396.963 77.8013C396.997 77.7084 397.048 77.6232 397.116 77.5508C397.183 77.4784 397.264 77.4201 397.354 77.3795C410.239 71.4914 416.629 82.694 416.689 82.7996C416.781 82.9765 416.801 83.1825 416.745 83.374C416.689 83.5655 416.561 83.7277 416.387 83.8263C416.246 83.8745 416.094 83.8797 415.95 83.8414Z" fill="white"/>
<path d="M417.925 90.092C417.828 90.0844 417.733 90.0576 417.646 90.0132C417.559 89.9688 417.482 89.9077 417.419 89.8333C417.356 89.7589 417.309 89.6728 417.279 89.5799C417.249 89.4869 417.238 89.389 417.246 89.2918C417.3 88.343 417.124 87.3952 416.734 86.5289C416.652 86.3486 416.643 86.1429 416.711 85.9564C416.779 85.7699 416.917 85.6176 417.096 85.5325C417.186 85.4904 417.285 85.4671 417.385 85.4642C417.485 85.4612 417.584 85.4787 417.677 85.5154C417.77 85.5521 417.855 85.6073 417.926 85.6777C417.997 85.7481 418.053 85.8323 418.09 85.925C418.587 87.0333 418.809 88.2452 418.738 89.4579C418.712 89.649 418.612 89.8223 418.46 89.9408C418.308 90.0592 418.116 90.1135 417.925 90.092Z" fill="white"/>
<path d="M309.765 120.922C309.595 120.92 309.431 120.861 309.298 120.756C309.143 120.631 309.043 120.45 309.02 120.252C308.998 120.054 309.054 119.855 309.177 119.699C319.901 106.751 331.396 94.4647 343.598 82.9055C343.745 82.7843 343.932 82.7231 344.121 82.7342C344.311 82.7453 344.49 82.8279 344.621 82.9655C344.753 83.103 344.828 83.2854 344.831 83.4759C344.834 83.6663 344.765 83.8509 344.638 83.9926C332.483 95.5085 321.033 107.75 310.353 120.65C310.282 120.737 310.192 120.807 310.09 120.854C309.988 120.901 309.877 120.924 309.765 120.922Z" fill="white"/>
<path d="M343.628 141.666C322.635 155.254 295.569 168.555 293.218 164.902C290.867 161.248 314.105 142.029 335.113 128.441C356.121 114.853 369.263 115.728 369.263 115.728C369.263 115.728 364.636 128.093 343.628 141.666Z" fill="#E67E22"/>
<path d="M294.936 166.2C294.501 166.26 294.058 166.211 293.647 166.055C293.236 165.899 292.871 165.643 292.585 165.309C292.073 164.524 290.52 162.123 304.913 149.819C314.382 141.878 324.332 134.531 334.706 127.821C355.669 114.233 368.765 114.943 369.368 114.973C369.486 114.983 369.6 115.019 369.702 115.079C369.803 115.14 369.89 115.222 369.956 115.32C370.017 115.421 370.055 115.535 370.068 115.652C370.081 115.769 370.068 115.888 370.031 116C369.835 116.513 365.073 128.742 344.095 142.3C330.125 151.298 303.375 166.2 294.936 166.2ZM368.072 116.498C364.485 116.649 352.58 118.008 335.52 129.074C325.202 135.75 315.306 143.062 305.892 150.966C295.343 160.025 293.384 163.769 293.836 164.554C295.509 167.166 319.757 156.25 343.206 141.092C360.281 130.011 366.46 119.714 368.072 116.498Z" fill="#4F4F4F"/>
<path d="M373.663 241.568L294.273 266.117L330.17 294.184L408.249 267.868L373.663 241.568Z" fill="white"/>
<path d="M330.17 294.939C330.001 294.936 329.836 294.878 329.703 294.772L293.821 266.721C293.711 266.635 293.626 266.521 293.575 266.391C293.525 266.26 293.511 266.119 293.535 265.981C293.56 265.846 293.624 265.72 293.717 265.619C293.81 265.517 293.929 265.444 294.062 265.407L373.437 240.843C373.552 240.807 373.673 240.798 373.791 240.82C373.909 240.841 374.021 240.89 374.115 240.964L408.702 267.264C408.813 267.345 408.9 267.456 408.95 267.585C409.001 267.713 409.014 267.853 408.988 267.989C408.973 268.127 408.918 268.258 408.83 268.366C408.742 268.473 408.624 268.552 408.491 268.593L330.412 294.893C330.335 294.923 330.253 294.938 330.17 294.939ZM295.886 266.419L330.321 293.338L406.667 267.672L373.513 242.459L295.886 266.419Z" fill="#E4E5E7"/>
<path d="M223.307 173.779C200.084 173.779 173.319 169.959 149.041 157.051C148.953 157.006 148.875 156.944 148.811 156.869C148.747 156.793 148.699 156.706 148.669 156.612C148.64 156.517 148.63 156.418 148.639 156.32C148.648 156.221 148.677 156.126 148.724 156.039C148.77 155.95 148.833 155.872 148.91 155.808C148.987 155.744 149.075 155.695 149.17 155.666C149.266 155.636 149.366 155.626 149.465 155.636C149.565 155.645 149.661 155.675 149.749 155.722C208.719 187.035 282.533 164.358 283.272 164.131C283.368 164.091 283.472 164.072 283.576 164.074C283.681 164.076 283.784 164.1 283.878 164.145C283.973 164.189 284.057 164.252 284.126 164.331C284.195 164.41 284.247 164.502 284.278 164.602C284.31 164.701 284.32 164.807 284.309 164.911C284.298 165.015 284.265 165.115 284.213 165.206C284.161 165.297 284.09 165.375 284.006 165.437C283.922 165.499 283.826 165.543 283.724 165.566C264.048 171.026 243.724 173.789 223.307 173.779Z" fill="#E4E5E7"/>
<path d="M210.241 188.137C161.73 188.137 130.022 165.641 129.66 165.37C129.579 165.312 129.51 165.24 129.456 165.155C129.403 165.071 129.367 164.977 129.35 164.879C129.333 164.781 129.336 164.68 129.358 164.583C129.381 164.486 129.422 164.394 129.48 164.313C129.6 164.153 129.777 164.047 129.974 164.016C130.17 163.985 130.371 164.032 130.535 164.147C130.972 164.464 174.66 195.444 237.971 184.166C238.069 184.149 238.171 184.152 238.269 184.175C238.366 184.197 238.459 184.238 238.541 184.297C238.623 184.355 238.692 184.429 238.746 184.514C238.799 184.599 238.835 184.694 238.852 184.793C238.869 184.892 238.866 184.993 238.844 185.091C238.821 185.19 238.78 185.282 238.722 185.364C238.664 185.446 238.59 185.516 238.505 185.569C238.42 185.623 238.326 185.659 238.227 185.676C228.989 187.319 219.624 188.143 210.241 188.137Z" fill="#E4E5E7"/>
<path d="M162.137 150.574C162.038 150.597 161.935 150.597 161.835 150.574C114.379 129.044 102.79 102.412 102.67 102.155C102.626 102.063 102.602 101.964 102.598 101.862C102.595 101.761 102.611 101.659 102.648 101.564C102.684 101.47 102.739 101.383 102.809 101.31C102.88 101.237 102.964 101.179 103.057 101.139C103.151 101.099 103.251 101.079 103.353 101.079C103.454 101.079 103.554 101.1 103.647 101.14C103.741 101.18 103.825 101.238 103.895 101.311C103.965 101.385 104.02 101.472 104.056 101.567C104.056 101.567 106.904 108.194 115.479 117.313C123.391 125.723 137.964 138.088 162.453 149.2C162.635 149.282 162.777 149.433 162.847 149.62C162.918 149.807 162.912 150.014 162.83 150.196C162.758 150.315 162.656 150.413 162.534 150.479C162.413 150.545 162.275 150.578 162.137 150.574Z" fill="#E4E5E7"/>
<path d="M246.937 159.179C246.737 159.179 246.546 159.1 246.404 158.958C246.263 158.817 246.184 158.625 246.184 158.424C246.188 158.225 246.268 158.036 246.409 157.895C246.549 157.754 246.739 157.673 246.937 157.67C247.208 157.67 273.34 157.67 285.276 151.827C285.366 151.775 285.466 151.743 285.568 151.732C285.671 151.721 285.775 151.732 285.874 151.763C285.973 151.794 286.064 151.845 286.142 151.913C286.22 151.981 286.284 152.064 286.328 152.157C286.373 152.251 286.398 152.353 286.402 152.456C286.405 152.56 286.388 152.663 286.35 152.76C286.312 152.856 286.254 152.944 286.181 153.017C286.108 153.09 286.02 153.148 285.924 153.186C273.687 159.119 248.037 159.179 246.937 159.179Z" fill="#E4E5E7"/>
<path d="M213.843 132.139L210.136 128.168L204.786 128.984L207.393 124.213L204.982 119.351L210.301 120.393L214.159 116.573L214.838 121.963L219.645 124.469L214.732 126.779L213.843 132.139Z" fill="#E67E22"/>
<path d="M263.153 136.94L260.862 134.495L257.547 134.993L259.174 132.049L257.667 129.044L260.968 129.678L263.349 127.323L263.771 130.66L266.74 132.2L263.711 133.634L263.153 136.94Z" fill="#E67E22"/>
<path d="M240.804 230.169L232.907 225.534L224.618 229.429L226.592 220.476L220.338 213.773L229.441 212.882L233.871 204.85L237.533 213.244L246.515 214.981L239.673 221.08L240.804 230.169Z" fill="#E67E22"/>
<path d="M185.752 173.945L180.839 168.691L173.726 169.763L177.207 163.452L173.982 157.02L181.05 158.379L186.159 153.321L187.048 160.478L193.438 163.784L186.927 166.849L185.752 173.945Z" fill="#E67E22"/>
<path d="M91.7587 78.3761C91.5588 78.3982 91.3584 78.3397 91.2016 78.2137C91.0447 78.0877 90.9443 77.9045 90.9223 77.7043C90.9003 77.5041 90.9586 77.3033 91.0844 77.1462C91.2101 76.989 91.3931 76.8884 91.5929 76.8664L321.4 26.4549C321.498 26.4341 321.601 26.433 321.7 26.4517C321.799 26.4704 321.894 26.5086 321.979 26.5639C322.063 26.6193 322.136 26.6909 322.193 26.7745C322.25 26.8581 322.291 26.9522 322.311 27.0513C322.332 27.1504 322.333 27.2527 322.315 27.3523C322.296 27.4518 322.258 27.5467 322.202 27.6315C322.147 27.7163 322.076 27.7894 321.992 27.8466C321.909 27.9038 321.815 27.9439 321.716 27.9647L91.9244 78.3761H91.7587Z" fill="#4F4F4F"/>
<path d="M102.428 70.118C104.118 70.118 105.488 68.7458 105.488 67.0531C105.488 65.3605 104.118 63.9883 102.428 63.9883C100.739 63.9883 99.3691 65.3605 99.3691 67.0531C99.3691 68.7458 100.739 70.118 102.428 70.118Z" fill="#E67E22"/>
<path d="M113.369 67.3245C115.059 67.3245 116.429 65.9523 116.429 64.2597C116.429 62.567 115.059 61.1948 113.369 61.1948C111.68 61.1948 110.31 62.567 110.31 64.2597C110.31 65.9523 111.68 67.3245 113.369 67.3245Z" fill="#E4E5E7"/>
<path d="M123.783 64.9241C125.473 64.9241 126.842 63.5519 126.842 61.8593C126.842 60.1666 125.473 58.7944 123.783 58.7944C122.093 58.7944 120.724 60.1666 120.724 61.8593C120.724 63.5519 122.093 64.9241 123.783 64.9241Z" fill="#E4E5E7"/>
<path d="M285.055 56.0481L148.674 88.1445C144.347 89.1628 141.664 93.5022 142.68 97.8368L142.684 97.8515C143.7 102.186 148.031 104.875 152.358 103.856L288.739 71.7599C293.066 70.7416 295.749 66.4022 294.733 62.0676L294.729 62.0529C293.713 57.7182 289.381 55.0298 285.055 56.0481Z" fill="#E4E5E7"/>
</g>
<defs>
<clipPath id="clip0">
<rect width="566" height="350" fill="white"/>
</clipPath>
</defs>
</svg>
