<svg width="566" height="350" viewBox="0 0 566 350" fill="none" xmlns="http://www.w3.org/2000/svg">
<g clip-path="url(#clip0)">
<path d="M304.73 93.3906H357.085C364.038 93.3906 370.706 96.1605 375.622 101.091C380.538 106.022 383.3 112.709 383.3 119.682V220.357H278.514V119.682C278.514 112.709 281.276 106.022 286.193 101.091C291.109 96.1605 297.777 93.3906 304.73 93.3906Z" fill="white"/>
<path d="M383.285 221.058H278.514C278.33 221.055 278.154 220.979 278.023 220.848C277.893 220.718 277.818 220.541 277.814 220.356V119.681C277.822 112.525 280.66 105.664 285.706 100.603C290.752 95.5426 297.594 92.6961 304.73 92.688H357.07C364.208 92.692 371.054 95.5368 376.103 100.598C381.152 105.659 383.993 112.522 384.001 119.681V220.356C383.997 220.544 383.92 220.722 383.786 220.854C383.652 220.985 383.472 221.059 383.285 221.058ZM279.215 219.639H382.585V119.681C382.577 112.897 379.886 106.393 375.103 101.596C370.32 96.7992 363.834 94.1007 357.07 94.0926H304.73C297.965 94.1007 291.48 96.7992 286.697 101.596C281.913 106.393 279.223 112.897 279.215 119.681V219.639Z" fill="#E4E5E7"/>
<path d="M290.176 93.3906H342.531C345.976 93.3866 349.388 94.0637 352.572 95.3831C355.756 96.7026 358.65 98.6385 361.087 101.08C363.525 103.522 365.459 106.422 366.778 109.613C368.098 112.805 368.777 116.226 368.777 119.682V220.357H263.96V119.682C263.96 112.709 266.722 106.022 271.638 101.091C276.555 96.1606 283.223 93.3906 290.176 93.3906Z" fill="white"/>
<path d="M368.777 221.058H263.96C263.776 221.055 263.6 220.979 263.469 220.848C263.339 220.718 263.264 220.541 263.26 220.356V119.681C263.268 112.525 266.106 105.664 271.152 100.603C276.198 95.5426 283.04 92.6961 290.176 92.688H342.531C349.664 92.7001 356.502 95.5484 361.544 100.608C366.587 105.668 369.423 112.527 369.431 119.681V220.356C369.432 220.535 369.364 220.707 369.243 220.837C369.121 220.968 368.954 221.047 368.777 221.058ZM264.721 219.639H368.076V119.681C368.068 112.9 365.38 106.398 360.6 101.602C355.82 96.805 349.338 94.1047 342.576 94.0926H290.176C283.412 94.1007 276.929 96.7997 272.148 101.597C267.367 106.395 264.68 112.899 264.676 119.681L264.721 219.639Z" fill="#E4E5E7"/>
<path d="M313.97 69.0993C313.785 69.0993 313.607 69.0253 313.475 68.8936C313.344 68.7619 313.27 68.5832 313.27 68.397C313.27 68.2107 313.344 68.0321 313.475 67.9004C313.607 67.7687 313.785 67.6947 313.97 67.6947C316.558 67.6947 319.177 66.1679 321.75 63.1144C332.939 49.7552 327.642 28.8843 315.904 18.5175C305.826 9.63175 291.546 8.10499 281.056 14.7922C270.567 21.4795 267.355 30.3042 270.765 43.3428C270.811 43.5229 270.784 43.7142 270.69 43.8745C270.596 44.0348 270.442 44.151 270.263 44.1977C270.083 44.2441 269.892 44.2172 269.732 44.1227C269.573 44.0282 269.457 43.874 269.41 43.6939C265.878 29.953 269.243 20.7008 280.295 13.6166C291.348 6.53242 306.282 8.18133 316.833 17.4793C329.012 28.2736 334.538 50.03 322.831 64.0152C320.06 67.2824 317.015 69.0993 314.047 69.0993H313.97Z" fill="#4F4F4F"/>
<path d="M291.652 80.092C291.652 80.092 259.058 79.3134 250.868 92.81C242.677 106.307 217.375 185.042 217.375 185.042L330.276 185.179C330.276 185.179 336.045 135.285 331.722 114.704C326.728 90.6573 330.367 74.7484 291.652 80.092Z" fill="#E67E22"/>
<path d="M273.566 81.4359C273.566 81.4359 270.643 97.5128 271.389 103.314C272.409 111.193 271.968 123.743 289.141 123.162C302.629 122.704 317.442 81.2069 317.442 81.2069C317.442 81.2069 292.779 77.0541 273.566 81.4359Z" fill="#4F4F4F"/>
<path d="M287.998 123.849C272.911 123.849 271.8 113.391 270.978 105.696C270.978 104.902 270.81 104.169 270.719 103.406C269.973 97.5584 272.866 81.9701 272.866 81.3136C272.884 81.1807 272.943 81.057 273.037 80.9608C273.13 80.8646 273.251 80.801 273.383 80.7793C292.489 76.4127 317.259 80.5045 317.533 80.5503C317.63 80.5666 317.722 80.6037 317.803 80.659C317.885 80.7143 317.954 80.7866 318.005 80.8709C318.05 80.9581 318.074 81.055 318.074 81.1533C318.074 81.2517 318.05 81.3486 318.005 81.4358C317.396 83.1458 302.887 123.361 289.079 123.834L287.998 123.849ZM274.16 81.9854C273.688 84.5962 271.389 98.1233 272.059 103.238C272.15 103.971 272.226 104.765 272.318 105.559C273.14 113.33 274.175 123.025 289.064 122.491C300.969 122.094 314.381 87.3749 316.467 81.7411C312.174 81.0999 291.013 78.2601 274.16 81.9854Z" fill="#4F4F4F"/>
<path d="M276.505 50.2135C276.093 48.8328 275.398 47.5535 274.465 46.4576C273.989 45.9201 273.359 45.5435 272.661 45.3794C271.963 45.2154 271.232 45.2721 270.567 45.5416C270.099 45.8175 269.705 46.2035 269.418 46.6663C269.132 47.1291 268.962 47.6548 268.923 48.1982C268.865 49.2832 269.047 50.3676 269.456 51.3738C270.06 53.2886 271.103 55.035 272.501 56.4732C273.213 57.1828 274.063 57.7385 274.998 58.1061C275.932 58.4737 276.932 58.6454 277.936 58.6107" fill="white"/>
<path d="M277.57 59.2368C275.527 59.1733 273.584 58.3328 272.135 56.8856C270.639 55.391 269.522 53.5586 268.877 51.5419C268.446 50.4455 268.259 49.2679 268.329 48.0914C268.376 47.4484 268.58 46.8267 268.922 46.281C269.265 45.7353 269.735 45.2822 270.293 44.9615C271.069 44.6478 271.922 44.5791 272.739 44.7646C273.555 44.9501 274.295 45.381 274.86 45.9997C275.855 47.1531 276.592 48.5066 277.022 49.9693C277.077 50.1214 277.072 50.289 277.007 50.437C276.941 50.5851 276.821 50.702 276.672 50.7632C276.518 50.8179 276.35 50.8101 276.202 50.7416C276.054 50.6732 275.939 50.5494 275.88 50.3968C275.501 49.0983 274.859 47.8923 273.993 46.8547C273.604 46.4111 273.09 46.0962 272.519 45.9518C271.949 45.8073 271.347 45.84 270.796 46.0455C270.418 46.2764 270.101 46.5956 269.873 46.9758C269.645 47.356 269.513 47.7859 269.486 48.2288C269.443 49.2258 269.614 50.2204 269.989 51.1449C270.564 52.977 271.572 54.6426 272.927 56.0001C273.577 56.6546 274.354 57.1674 275.211 57.5063C276.068 57.8453 276.985 58.003 277.905 57.9696C277.984 57.9634 278.064 57.9731 278.139 57.9984C278.215 58.0236 278.284 58.0637 278.344 58.1164C278.404 58.1691 278.452 58.2332 278.487 58.3051C278.521 58.3769 278.541 58.4549 278.545 58.5345C278.551 58.6139 278.541 58.6938 278.516 58.7694C278.491 58.845 278.451 58.9148 278.398 58.9746C278.346 59.0344 278.282 59.083 278.21 59.1175C278.138 59.1521 278.061 59.1719 277.981 59.1757L277.57 59.2368Z" fill="#4F4F4F"/>
<path d="M284.071 69.3895L282.366 86.4282C282.366 86.4282 283.188 96.1231 293.814 94.1994C296.947 93.598 299.907 92.3051 302.479 90.4143C305.052 88.5236 307.173 86.0824 308.688 83.2678L310.286 53.618C310.286 52.366 305.719 47.1598 306.998 36.3502C303.356 35.9759 299.831 34.8444 296.649 33.0279C293.467 31.2115 290.697 28.75 288.516 25.8003C288.516 25.8003 283.584 31.9074 281.513 33.7853C279.86 35.1854 278.392 36.7913 277.144 38.5641C273.871 43.526 273.993 51.6332 274.784 57.3127C275.439 62.0305 278.164 69.4963 284.071 69.3895Z" fill="white"/>
<path d="M291.135 95.1465C289.055 95.216 287.012 94.5814 285.335 93.3449C283.274 91.6197 281.954 89.1648 281.65 86.4898L283.279 70.0617C277.372 69.5579 274.724 61.9699 274.145 57.4049C273.597 53.5727 272.76 44.0304 276.611 38.1829C277.893 36.3634 279.397 34.7119 281.087 33.2667C283.097 31.4498 287.968 25.4191 288.014 25.358C288.087 25.2776 288.176 25.2141 288.276 25.1719C288.376 25.1297 288.484 25.1099 288.593 25.1138C288.702 25.1146 288.81 25.143 288.905 25.1964C289.001 25.2497 289.082 25.3263 289.141 25.4191C291.276 28.2716 293.974 30.6521 297.068 32.4121C300.161 34.1721 303.583 35.2738 307.12 35.6484C307.299 35.6752 307.462 35.7677 307.577 35.908C307.693 36.0545 307.748 36.2408 307.729 36.4271C307.016 41.6636 307.925 46.9933 310.332 51.6948C310.701 52.3059 310.939 52.9868 311.033 53.6948C311.033 53.8322 309.51 83.3293 309.51 83.3293C309.526 83.4151 309.526 83.5031 309.51 83.5889C307.957 86.5148 305.767 89.0525 303.103 91.0136C300.438 92.9748 297.368 94.3091 294.119 94.9175C293.133 95.0843 292.134 95.161 291.135 95.1465ZM283.036 86.505C283.143 87.7304 283.525 88.9155 284.155 89.9713C284.784 91.027 285.644 91.9259 286.67 92.6004C287.695 93.2749 288.86 93.7074 290.077 93.8655C291.293 94.0235 292.529 93.903 293.693 93.5129C296.696 92.9337 299.537 91.6994 302.012 89.8975C304.488 88.0955 306.538 85.7698 308.018 83.0851C309.541 53.588 309.541 53.588 309.541 53.5727C309.388 53.1256 309.2 52.6917 308.977 52.2749C306.58 47.5684 305.611 42.2602 306.191 37.0073C299.2 36.1122 292.832 32.5193 288.44 26.9917C286.416 29.5354 284.267 31.9762 282.001 34.3049C280.396 35.6487 278.964 37.1873 277.738 38.8852C274.16 44.3357 274.967 53.4658 275.485 57.2064C276.094 61.5271 278.53 68.8403 284.071 68.6877C284.169 68.6835 284.267 68.7019 284.356 68.7416C284.446 68.7813 284.526 68.8412 284.589 68.9167C284.656 68.9871 284.707 69.0714 284.739 69.1637C284.77 69.2559 284.781 69.354 284.771 69.4511L283.051 86.505H283.036Z" fill="#4F4F4F"/>
<path d="M283.371 74.5653C286.138 75.3923 289.105 75.2414 291.774 74.1378C297.864 72.0003 298.183 67.8628 298.183 67.8628C298.183 67.8628 293.083 71.069 284.071 69.3896L283.371 74.5653Z" fill="#4F4F4F"/>
<path d="M286.674 75.7413C285.529 75.7511 284.388 75.5811 283.295 75.2375C283.166 75.2226 283.044 75.1695 282.945 75.0848C282.843 75.0024 282.769 74.8915 282.731 74.7663C282.693 74.6412 282.693 74.5075 282.731 74.3825L283.401 69.2984C283.411 69.2068 283.441 69.1184 283.489 69.0394C283.536 68.9603 283.6 68.8925 283.675 68.8403C283.749 68.7864 283.833 68.7478 283.922 68.7269C284.011 68.7059 284.103 68.7029 284.193 68.7182C292.84 70.3366 297.773 67.3136 297.818 67.283C297.924 67.2199 298.045 67.1865 298.169 67.1865C298.292 67.1865 298.413 67.2199 298.519 67.283C298.627 67.3448 298.715 67.4369 298.772 67.5482C298.829 67.6594 298.852 67.7848 298.838 67.909C298.838 68.1075 298.397 72.4893 292.003 74.7642C290.294 75.3861 288.493 75.7164 286.674 75.7413ZM284.117 74.0772C286.596 74.6222 289.181 74.4203 291.546 73.497C292.717 73.1746 293.811 72.6192 294.763 71.8637C295.715 71.1083 296.506 70.1683 297.088 69.0999C293.112 70.5925 288.801 70.9519 284.634 70.1381L284.117 74.0772Z" fill="#4F4F4F"/>
<path d="M293.281 40.5488C293.281 40.5488 287.055 48.1827 288.212 49.7094C289.369 51.2362 293.114 50.656 293.114 50.656" fill="white"/>
<path d="M291.5 51.5111C290.805 51.5821 290.103 51.5001 289.443 51.2707C288.783 51.0412 288.181 50.6699 287.679 50.1828C286.385 48.4728 290.313 43.1444 292.764 40.1214C292.818 40.0514 292.887 39.9932 292.964 39.9505C293.042 39.9077 293.128 39.8812 293.216 39.8727C293.304 39.8641 293.393 39.8736 293.478 39.9006C293.562 39.9276 293.641 39.9716 293.708 40.0298C293.777 40.0848 293.834 40.1529 293.877 40.2303C293.92 40.3078 293.947 40.3929 293.957 40.4809C293.967 40.5688 293.959 40.6579 293.935 40.7429C293.91 40.828 293.869 40.9073 293.814 40.9764C290.769 44.7017 288.425 48.6102 288.76 49.3736C289.506 50.3507 292.14 50.1828 293.007 50.0454C293.101 50.0164 293.2 50.008 293.297 50.0207C293.394 50.0333 293.488 50.0668 293.571 50.1188C293.654 50.1709 293.726 50.2402 293.78 50.3222C293.834 50.4042 293.87 50.4969 293.886 50.594C293.901 50.6912 293.895 50.7905 293.869 50.8854C293.843 50.9802 293.797 51.0682 293.734 51.1436C293.671 51.219 293.592 51.2799 293.504 51.3222C293.415 51.3645 293.318 51.3873 293.22 51.3889C292.651 51.4735 292.076 51.5144 291.5 51.5111Z" fill="#4F4F4F"/>
<path d="M287.071 42.3623C287.2 41.3928 286.886 40.5507 286.37 40.4814C285.853 40.4121 285.329 41.1418 285.2 42.1113C285.071 43.0808 285.385 43.9229 285.901 43.9922C286.418 44.0615 286.942 43.3318 287.071 42.3623Z" fill="#4F4F4F"/>
<path d="M301.741 43.4509C301.753 42.4729 301.339 41.675 300.818 41.6689C300.297 41.6628 299.865 42.4507 299.854 43.4288C299.842 44.4068 300.256 45.2047 300.777 45.2108C301.298 45.2169 301.73 44.429 301.741 43.4509Z" fill="#4F4F4F"/>
<path d="M306.679 47.099C307.052 45.6417 307.698 44.2687 308.582 43.0531C309.085 42.3515 309.749 41.7805 310.516 41.3875C311.284 40.9945 312.135 40.7909 312.997 40.7935C313.525 40.8173 314.042 40.96 314.509 41.211C314.975 41.4621 315.379 41.8151 315.691 42.2439C316.065 42.8613 316.294 43.5556 316.361 44.2745C316.924 48.0762 315.661 53.0076 312.114 54.9619C311.51 55.3363 310.814 55.5346 310.104 55.5346C309.394 55.5346 308.698 55.3363 308.095 54.9619" fill="white"/>
<path d="M309.86 56.1829C309.092 56.2046 308.34 55.9622 307.729 55.4959C307.626 55.3911 307.564 55.2527 307.555 55.1059C307.545 54.9591 307.589 54.8139 307.678 54.697C307.767 54.58 307.895 54.4991 308.039 54.4692C308.182 54.4392 308.332 54.4622 308.46 54.534C308.973 54.8276 309.556 54.9743 310.147 54.9582C310.738 54.942 311.312 54.7636 311.809 54.4424C315.112 52.6255 316.3 47.9994 315.767 44.3657C315.707 43.7397 315.51 43.1348 315.189 42.5947C314.923 42.2467 314.585 41.9602 314.199 41.7547C313.813 41.5492 313.387 41.4296 312.951 41.4038C312.187 41.401 311.435 41.5827 310.756 41.9335C310.078 42.2843 309.494 42.7939 309.053 43.4191C308.218 44.5821 307.608 45.8925 307.257 47.2819C307.208 47.4359 307.101 47.5648 306.959 47.6417C306.817 47.7185 306.651 47.7373 306.496 47.6941C306.342 47.6447 306.214 47.5377 306.137 47.3954C306.06 47.2531 306.042 47.0866 306.085 46.9307C306.488 45.3963 307.175 43.9514 308.109 42.671C308.673 41.8952 309.413 41.2659 310.269 40.8357C311.124 40.4054 312.07 40.1866 313.027 40.1977C313.647 40.2245 314.253 40.3924 314.799 40.6887C315.345 40.9849 315.816 41.4017 316.178 41.9076C316.611 42.6013 316.882 43.3843 316.97 44.1978C317.564 48.2285 316.178 53.3584 312.403 55.4959C311.626 55.9352 310.752 56.1715 309.86 56.1829Z" fill="#4F4F4F"/>
<path d="M283.919 54.2441L300.285 54.6869C300.285 54.6869 298.108 63.4506 291.15 63.0078C284.193 62.565 283.919 54.2441 283.919 54.2441Z" fill="white"/>
<path d="M291.622 63.6947H291.135C283.629 63.2214 283.31 54.3661 283.31 54.2898C283.311 54.2028 283.331 54.1171 283.368 54.0383C283.405 53.9594 283.457 53.8891 283.523 53.8318C283.653 53.7047 283.828 53.6335 284.01 53.6333L300.376 54.0761C300.476 54.0778 300.574 54.102 300.664 54.1469C300.753 54.1918 300.832 54.2563 300.893 54.3356C300.954 54.418 300.996 54.5124 301.017 54.6125C301.038 54.7126 301.037 54.816 301.015 54.9158C300.924 54.9463 298.655 63.6947 291.622 63.6947ZM284.649 54.9463C284.878 56.87 285.959 62 291.165 62.3359C296.372 62.6718 298.67 57.4197 299.386 55.3433L284.649 54.9463Z" fill="#4F4F4F"/>
<path d="M145.427 124.765H219.582C220.538 124.765 221.467 125.081 222.227 125.663C222.986 126.245 223.533 127.062 223.784 127.987L237.486 178.172H285.654C286.462 178.172 287.236 178.493 287.807 179.066C288.378 179.639 288.699 180.415 288.699 181.225C288.699 182.035 288.378 182.812 287.807 183.384C287.236 183.957 286.462 184.279 285.654 184.279H159.296C158.34 184.279 157.41 183.963 156.651 183.381C155.892 182.799 155.344 181.982 155.094 181.057L141.179 130.262C141.005 129.611 140.984 128.929 141.116 128.269C141.249 127.609 141.532 126.989 141.943 126.457C142.355 125.925 142.883 125.495 143.487 125.202C144.091 124.908 144.755 124.759 145.427 124.765Z" fill="#4F4F4F"/>
<path d="M285.73 184.981H159.372C158.27 184.978 157.199 184.614 156.322 183.945C155.445 183.275 154.811 182.336 154.516 181.271L140.616 130.476C140.413 129.728 140.384 128.943 140.532 128.182C140.679 127.421 141 126.704 141.468 126.088C141.936 125.471 142.539 124.97 143.231 124.624C143.923 124.278 144.684 124.097 145.457 124.094H219.583C220.683 124.097 221.751 124.462 222.626 125.132C223.5 125.802 224.131 126.74 224.424 127.804L238.08 177.5H285.73C286.72 177.5 287.668 177.894 288.368 178.596C289.067 179.297 289.46 180.249 289.46 181.241C289.46 182.233 289.067 183.184 288.368 183.886C287.668 184.587 286.72 184.981 285.73 184.981ZM145.427 125.437C144.86 125.448 144.303 125.589 143.799 125.85C143.295 126.111 142.858 126.485 142.521 126.942C142.184 127.4 141.956 127.929 141.856 128.488C141.755 129.048 141.784 129.624 141.941 130.17L155.84 180.981C156.056 181.762 156.522 182.451 157.165 182.941C157.808 183.432 158.594 183.698 159.402 183.699H285.761C286.075 183.699 286.386 183.637 286.676 183.516C286.966 183.396 287.229 183.219 287.451 182.997C287.673 182.774 287.849 182.51 287.969 182.219C288.089 181.928 288.151 181.616 288.151 181.302C288.151 180.987 288.089 180.675 287.969 180.384C287.849 180.094 287.673 179.829 287.451 179.607C287.229 179.384 286.966 179.208 286.676 179.087C286.386 178.967 286.075 178.905 285.761 178.905H237.562C237.417 178.904 237.276 178.855 237.161 178.767C237.046 178.679 236.962 178.556 236.923 178.416L223.221 128.216C223.018 127.408 222.547 126.693 221.886 126.189C221.225 125.684 220.413 125.419 219.583 125.437H145.427Z" fill="#4F4F4F"/>
<path d="M235.461 178.355H161.26C161.058 178.355 160.864 178.274 160.721 178.131C160.579 177.988 160.499 177.794 160.499 177.592C160.499 177.389 160.579 177.195 160.721 177.052C160.864 176.909 161.058 176.828 161.26 176.828H235.461C235.663 176.828 235.857 176.909 235.999 177.052C236.142 177.195 236.222 177.389 236.222 177.592C236.222 177.794 236.142 177.988 235.999 178.131C235.857 178.274 235.663 178.355 235.461 178.355Z" fill="white"/>
<path d="M245.92 179.103H245.798C245.593 179.069 245.409 178.956 245.287 178.787C245.164 178.619 245.113 178.408 245.143 178.202C245.6 175.408 256.089 109.711 256.531 107.971C256.602 107.792 256.735 107.645 256.905 107.558C257.076 107.47 257.273 107.447 257.459 107.494C257.645 107.541 257.807 107.653 257.917 107.811C258.026 107.969 258.075 108.162 258.053 108.353C257.718 109.711 250.441 154.812 246.696 178.477C246.658 178.655 246.56 178.814 246.419 178.928C246.277 179.042 246.101 179.104 245.92 179.103Z" fill="#4F4F4F"/>
<path d="M324.201 85.2222C324.201 85.2222 354.04 128.567 357.085 128.995C360.13 129.422 384.732 96.1691 384.732 96.1691L401.904 112.796C401.904 112.796 372.522 175.256 359.414 172.187C346.306 169.118 319.406 130.964 319.406 130.964L324.201 85.2222Z" fill="#E67E22"/>
<path d="M329.103 42.9005C329.103 42.9005 333.168 35.3888 327.718 24.6709C322.268 13.953 312.951 7.8765 309.678 8.02918C307.222 8.2628 304.801 8.775 302.461 9.55594C302.461 9.55594 324.506 13.5713 329.103 42.9005Z" fill="#4F4F4F"/>
<path d="M329.103 43.5723H328.981C328.842 43.5481 328.715 43.4804 328.616 43.3789C328.518 43.2775 328.454 43.1475 328.433 43.0074C326.104 28.1214 319.147 20.0143 313.712 15.8462C310.364 13.2035 306.492 11.3087 302.355 10.2888C302.209 10.268 302.075 10.1974 301.975 10.0889C301.875 9.98043 301.816 9.84072 301.807 9.69337C301.794 9.54404 301.83 9.39457 301.91 9.26777C301.989 9.14097 302.108 9.0438 302.248 8.99106C304.642 8.17517 307.118 7.62729 309.632 7.35742H309.845C313.849 7.35742 323.014 13.9531 328.312 24.3656C333.868 35.282 329.834 42.9005 329.682 43.2212C329.628 43.3281 329.545 43.4176 329.443 43.4797C329.34 43.5418 329.223 43.5739 329.103 43.5723ZM304.836 9.55596C310.469 11.4644 324.932 18.3959 329.301 40.244C330.469 35.0576 329.688 29.6216 327.109 24.9763C321.872 14.6706 312.738 8.5483 309.708 8.70097C308.062 8.83679 306.431 9.12297 304.836 9.55596Z" fill="#4F4F4F"/>
<path d="M332.239 39.0528C332.099 39.0515 331.962 39.0068 331.848 38.9249C331.733 38.8429 331.647 38.7277 331.6 38.5948C331.535 38.4226 331.54 38.2317 331.614 38.0632C331.688 37.8947 331.825 37.7621 331.996 37.694C333.434 37.0853 334.735 36.1932 335.823 35.0708C336.911 33.9483 337.763 32.6182 338.329 31.1594C339.508 28.1503 340.027 24.9218 339.851 21.6935C339.942 17.7595 338.963 13.875 337.02 10.4565C335.49 8.25495 333.522 6.39523 331.24 4.99463C328.957 3.59402 326.411 2.68293 323.76 2.31881C321.538 1.80883 319.222 1.89839 317.046 2.57836C316.016 2.91161 315.092 3.51003 314.365 4.3138C313.639 5.11757 313.135 6.09854 312.905 7.15866C312.901 7.25842 312.877 7.35626 312.832 7.44565C312.788 7.53503 312.725 7.61391 312.648 7.67703C312.571 7.74015 312.481 7.78606 312.385 7.81169C312.289 7.83733 312.188 7.8421 312.09 7.82569C311.992 7.80928 311.898 7.77206 311.816 7.71652C311.733 7.66098 311.663 7.58839 311.61 7.5036C311.558 7.41881 311.524 7.32376 311.511 7.22479C311.498 7.12582 311.506 7.0252 311.535 6.92964C311.815 5.63683 312.425 4.43923 313.306 3.45426C314.187 2.4693 315.308 1.73078 316.559 1.31114C318.967 0.543252 321.536 0.427381 324.003 0.975258C326.845 1.36969 329.574 2.35246 332.016 3.86114C334.459 5.36983 336.562 7.37145 338.192 9.73889C340.271 13.3667 341.324 17.4947 341.237 21.6782C341.445 25.0973 340.926 28.5217 339.714 31.7243C339.074 33.3634 338.11 34.8559 336.88 36.1125C335.651 37.3691 334.181 38.364 332.559 39.0375C332.456 39.0704 332.345 39.0757 332.239 39.0528Z" fill="#4F4F4F"/>
<path d="M301.259 132.751L319.908 132.934L320.502 126.155L302.599 125.941L301.259 132.751Z" fill="white"/>
<path d="M356.506 171.087H356.247C340.004 165.286 324.627 136.857 323.958 135.651C323.885 135.47 323.881 135.268 323.948 135.085C324.014 134.901 324.145 134.749 324.317 134.656C324.488 134.563 324.688 134.537 324.877 134.583C325.066 134.629 325.232 134.743 325.343 134.903C325.495 135.193 341.1 164.034 356.765 169.561C356.862 169.593 356.952 169.645 357.029 169.713C357.107 169.78 357.17 169.863 357.215 169.955C357.26 170.047 357.287 170.148 357.293 170.25C357.3 170.353 357.286 170.456 357.252 170.553C357.199 170.709 357.098 170.844 356.964 170.94C356.831 171.035 356.671 171.087 356.506 171.087Z" fill="#4F4F4F"/>
<path d="M473.654 185.653H403.822C395.767 185.653 389.237 192.201 389.237 200.279V246.739C389.237 254.817 395.767 261.365 403.822 261.365H473.654C481.709 261.365 488.238 254.817 488.238 246.739V200.279C488.238 192.201 481.709 185.653 473.654 185.653Z" fill="white"/>
<path d="M473.654 262.144H403.792C399.715 262.14 395.806 260.514 392.924 257.623C390.041 254.732 388.42 250.812 388.416 246.724V200.28C388.42 196.191 390.041 192.271 392.924 189.38C395.806 186.489 399.715 184.863 403.792 184.859H473.624C477.701 184.863 481.609 186.489 484.492 189.38C487.375 192.271 488.996 196.191 489 200.28V246.724C488.996 250.807 487.379 254.722 484.503 257.613C481.627 260.503 477.726 262.132 473.654 262.144ZM403.792 186.432C400.131 186.436 396.621 187.896 394.032 190.492C391.444 193.088 389.988 196.608 389.984 200.28V246.724C389.988 250.395 391.444 253.915 394.032 256.511C396.621 259.107 400.131 260.568 403.792 260.572H473.624C477.285 260.568 480.795 259.107 483.383 256.511C485.972 253.915 487.428 250.395 487.432 246.724V200.28C487.428 196.608 485.972 193.088 483.383 190.492C480.795 187.896 477.285 186.436 473.624 186.432H403.792Z" fill="#4F4F4F"/>
<path d="M90.3924 261.35L414.144 261.35C420.543 261.35 425.729 256.148 425.729 249.731V197.256C425.729 190.84 420.543 185.638 414.144 185.638L90.3924 185.638C83.9939 185.638 78.8069 190.84 78.8069 197.256V249.731C78.8069 256.148 83.9939 261.35 90.3924 261.35Z" fill="white"/>
<path d="M414.144 262.144H90.3923C87.1083 262.144 83.9585 260.837 81.635 258.509C79.3114 256.182 78.004 253.025 78 249.731V197.348C78.004 194.057 79.3093 190.903 81.6296 188.576C83.9499 186.249 87.0957 184.94 90.377 184.936H414.144C417.425 184.94 420.571 186.249 422.891 188.576C425.212 190.903 426.517 194.057 426.521 197.348V249.808C426.497 253.085 425.183 256.221 422.865 258.531C420.547 260.842 417.412 262.14 414.144 262.144ZM90.3923 186.432C88.9618 186.426 87.5444 186.704 86.2219 187.251C84.8993 187.797 83.698 188.601 82.6872 189.617C81.6764 190.632 80.8763 191.838 80.3331 193.165C79.7899 194.492 79.5143 195.914 79.5224 197.348V249.808C79.5264 252.682 80.6665 255.436 82.6927 257.468C84.7189 259.5 87.4659 260.644 90.3314 260.648H414.144C417.007 260.64 419.75 259.495 421.773 257.463C423.796 255.431 424.934 252.679 424.938 249.808V197.348C424.934 194.477 423.796 191.725 421.773 189.693C419.75 187.661 417.007 186.516 414.144 186.508L90.3923 186.432Z" fill="#4F4F4F"/>
<path d="M92.7823 344.238L473.669 344.238V261.35L92.7823 261.35V344.238Z" fill="white"/>
<path d="M473.654 345.032H92.7673C92.664 345.032 92.5618 345.012 92.4666 344.971C92.3714 344.931 92.2851 344.873 92.2128 344.799C92.1405 344.725 92.0837 344.637 92.0455 344.541C92.0074 344.445 91.9888 344.342 91.9909 344.238V261.35C91.9909 261.144 92.0727 260.946 92.2183 260.799C92.3639 260.653 92.5614 260.571 92.7673 260.571H473.654C473.758 260.569 473.86 260.588 473.956 260.626C474.052 260.664 474.139 260.722 474.213 260.794C474.287 260.867 474.345 260.953 474.385 261.049C474.425 261.144 474.446 261.247 474.446 261.35V344.238C474.446 344.449 474.363 344.651 474.214 344.8C474.066 344.949 473.864 345.032 473.654 345.032ZM93.5589 343.505H472.878V262.144H93.5589V343.505Z" fill="#4F4F4F"/>
<path d="M414.144 344.437C414.041 344.439 413.938 344.42 413.842 344.382C413.746 344.344 413.659 344.287 413.585 344.214C413.511 344.142 413.453 344.055 413.413 343.96C413.373 343.864 413.352 343.762 413.352 343.658V261.35C413.399 261.184 413.499 261.038 413.637 260.935C413.774 260.831 413.942 260.774 414.114 260.774C414.286 260.774 414.453 260.831 414.591 260.935C414.728 261.038 414.828 261.184 414.875 261.35V343.658C414.876 343.857 414.8 344.048 414.664 344.193C414.528 344.338 414.342 344.425 414.144 344.437Z" fill="#4F4F4F"/>
<path d="M434.909 299.458C438.662 296.075 442.914 293.294 447.515 291.214C447.895 304.741 442.43 317.169 437.36 325.704H420.903" fill="white"/>
<path d="M437.36 326.497H420.903C420.738 326.45 420.592 326.35 420.489 326.212C420.385 326.074 420.329 325.906 420.329 325.734C420.329 325.561 420.385 325.393 420.489 325.256C420.592 325.118 420.738 325.018 420.903 324.97H436.919C441.486 317.123 446.784 305.336 446.754 292.466C442.658 294.496 438.849 297.063 435.427 300.099C435.353 300.182 435.262 300.249 435.16 300.294C435.059 300.339 434.949 300.363 434.838 300.363C434.726 300.363 434.616 300.339 434.515 300.294C434.413 300.248 434.323 300.182 434.249 300.099C434.174 300.016 434.118 299.918 434.084 299.812C434.05 299.706 434.039 299.593 434.051 299.483C434.063 299.372 434.098 299.265 434.154 299.168C434.21 299.072 434.286 298.989 434.376 298.924C438.2 295.474 442.535 292.641 447.225 290.527C447.336 290.47 447.459 290.441 447.583 290.441C447.708 290.441 447.83 290.47 447.941 290.527C448.048 290.597 448.137 290.691 448.201 290.803C448.264 290.914 448.301 291.04 448.306 291.168C448.702 305.092 442.932 317.84 438.045 326.1C437.973 326.218 437.872 326.316 437.753 326.385C437.633 326.454 437.498 326.493 437.36 326.497Z" fill="#4F4F4F"/>
<path d="M411.404 303.092C415.438 281.946 431.971 268.633 431.971 268.633C435.06 278.595 436.096 289.082 435.016 299.458C434.151 308.4 432.24 317.209 429.322 325.703H411.51" fill="white"/>
<path d="M429.215 326.497H411.51C411.392 326.531 411.268 326.537 411.148 326.514C411.027 326.492 410.914 326.441 410.816 326.367C410.718 326.293 410.639 326.198 410.584 326.088C410.529 325.978 410.501 325.857 410.501 325.734C410.501 325.611 410.529 325.49 410.584 325.38C410.639 325.27 410.718 325.174 410.816 325.1C410.914 325.026 411.027 324.976 411.148 324.953C411.268 324.931 411.392 324.937 411.51 324.97H428.652C431.453 316.702 433.287 308.135 434.118 299.443C435.164 289.574 434.28 279.596 431.514 270.068C428.058 273.121 415.499 285.473 412.089 303.29C412.048 303.493 411.93 303.673 411.759 303.79C411.588 303.907 411.379 303.952 411.175 303.916C411.074 303.898 410.977 303.86 410.891 303.803C410.804 303.747 410.73 303.674 410.672 303.589C410.614 303.504 410.573 303.408 410.552 303.307C410.532 303.206 410.531 303.101 410.551 303C414.601 281.793 431.24 268.205 431.408 268.068C431.508 267.99 431.625 267.937 431.749 267.913C431.873 267.889 432.002 267.895 432.123 267.93C432.244 267.966 432.354 268.03 432.444 268.118C432.534 268.206 432.602 268.314 432.641 268.434C435.761 278.5 436.798 289.099 435.686 299.58C434.823 308.586 432.896 317.458 429.946 326.008C429.89 326.156 429.789 326.282 429.658 326.369C429.527 326.457 429.373 326.501 429.215 326.497Z" fill="#4F4F4F"/>
<path d="M402.574 325.703H418.255C418.407 321.123 417.356 314.008 412.317 304.863C411.967 304.252 411.647 303.672 411.312 303.107C402.178 287.687 393.927 287.839 393.927 287.839C390.425 304.084 397.839 318.543 402.574 325.703Z" fill="white"/>
<path d="M418.255 326.497H402.574C402.445 326.494 402.318 326.461 402.205 326.4C402.091 326.339 401.993 326.252 401.919 326.146C397.124 318.879 389.588 304.206 393.165 287.687C393.201 287.514 393.294 287.359 393.43 287.248C393.566 287.137 393.736 287.076 393.911 287.076C394.307 287.076 402.787 287.076 411.997 302.695L413.002 304.481C418.254 314.024 419.183 321.276 419.092 325.734C419.09 325.84 419.067 325.945 419.023 326.042C418.979 326.139 418.916 326.226 418.838 326.297C418.759 326.369 418.667 326.423 418.567 326.458C418.467 326.492 418.36 326.506 418.255 326.497ZM403.031 324.971H417.493C417.493 320.68 416.428 313.978 411.647 305.29L410.658 303.535C403.366 291.168 396.606 289.107 394.566 288.756C391.506 304.13 398.403 317.856 403 324.925L403.031 324.971Z" fill="#4F4F4F"/>
<path d="M405.436 350.635H436.173L441.12 325.718H400.473L405.436 350.635Z" fill="#4F4F4F"/>
<path d="M387.35 97.1923C387.35 97.1923 396.606 73.7565 398.235 74.3824C399.864 75.0084 397.017 87.1004 397.017 87.1004C397.017 87.1004 408.603 74.4435 410.11 75.268C411.617 76.0924 410.658 79.2223 406.304 85.65C406.304 85.65 413.992 76.7337 415.225 78.581C416.458 80.4284 408.877 88.4287 408.877 88.4287C408.877 88.4287 416.138 80.7949 417.174 82.3216C418.209 83.8484 410.308 91.8639 410.308 91.8639C410.308 91.8639 417.676 83.2377 418.194 85.9095C418.711 88.5814 404.081 105.941 399.925 110.719" fill="white"/>
<path d="M399.894 111.437C399.706 111.437 399.523 111.372 399.377 111.253C399.236 111.108 399.158 110.914 399.158 110.711C399.158 110.509 399.236 110.315 399.377 110.169C406.897 101.604 417.204 88.5963 417.493 86.1687C416.273 86.8687 415.169 87.7546 414.22 88.7948C413.17 90.0009 412.028 91.2223 410.916 92.3521C410.775 92.4875 410.587 92.563 410.391 92.563C410.196 92.563 410.007 92.4875 409.866 92.3521C409.719 92.2176 409.63 92.0318 409.615 91.833C409.601 91.6342 409.664 91.4374 409.79 91.2834C410.688 90.2452 411.845 88.9474 413.048 87.7718C414.42 86.3051 415.569 84.6434 416.458 82.8404C413.851 84.526 411.502 86.5833 409.485 88.9474C409.34 89.0883 409.147 89.167 408.945 89.167C408.743 89.167 408.549 89.0883 408.404 88.9474C408.333 88.8765 408.276 88.792 408.238 88.699C408.199 88.606 408.179 88.5062 408.179 88.4054C408.179 88.3047 408.199 88.2049 408.238 88.1119C408.276 88.0188 408.333 87.9344 408.404 87.8634C411.936 84.1076 414.768 80.1227 414.646 79.0998C413.596 79.2525 410.155 82.3823 406.897 86.1535C406.768 86.2974 406.59 86.387 406.398 86.404C406.205 86.421 406.014 86.3642 405.862 86.2451C405.708 86.1293 405.604 85.9581 405.573 85.7674C405.542 85.5767 405.585 85.3813 405.695 85.2221C409.851 79.1151 410.186 76.9776 410.003 76.26C409.985 76.1691 409.943 76.0848 409.881 76.0157C408.45 76.4585 402.482 82.2907 397.611 87.6191C397.491 87.7388 397.337 87.8179 397.171 87.8453C397.004 87.8727 396.833 87.847 396.682 87.7718C396.535 87.69 396.418 87.5623 396.349 87.4081C396.281 87.2539 396.264 87.0815 396.301 86.9168C397.289 83.1953 397.861 79.3753 398.007 75.5272C396.301 77.8478 391.826 88.0008 388.096 97.4668C388.059 97.56 388.004 97.645 387.934 97.717C387.864 97.7889 387.781 97.8464 387.689 97.8861C387.504 97.9662 387.294 97.9692 387.106 97.8943C386.918 97.8194 386.768 97.6727 386.688 97.4866C386.608 97.3005 386.605 97.0902 386.68 96.9019C396.18 72.7943 397.702 73.3744 398.509 73.6798C399.027 73.863 400.518 74.4279 398.372 84.5198C408.618 73.5882 410.003 74.3516 410.475 74.6111C410.722 74.7486 410.938 74.9364 411.108 75.1626C411.279 75.3887 411.4 75.6481 411.464 75.9241C411.632 76.6264 411.617 77.7868 410.414 80.2754C412.089 78.7486 413.778 77.512 414.814 77.5883C415.022 77.5965 415.225 77.6532 415.407 77.7539C415.59 77.8546 415.746 77.9966 415.864 78.1685C416.412 78.9929 415.956 80.3976 415.027 81.9854C415.564 81.591 416.204 81.3627 416.869 81.3289C417.054 81.34 417.235 81.394 417.396 81.4867C417.557 81.5794 417.694 81.7083 417.798 81.8632C418.193 82.474 417.919 83.4663 417.234 84.6878C417.489 84.6205 417.756 84.6205 418.011 84.6878C418.255 84.7556 418.474 84.895 418.64 85.088C418.805 85.2811 418.909 85.5191 418.939 85.7718C419.624 89.3597 400.671 111.009 400.458 111.223C400.383 111.294 400.294 111.35 400.197 111.387C400.101 111.424 399.998 111.441 399.894 111.437Z" fill="#4F4F4F"/>
<path d="M397.017 87.1001C398.133 87.8082 398.966 88.8873 399.37 90.1488C399.773 91.4102 399.722 92.7738 399.225 94.0011" fill="white"/>
<path d="M399.224 94.7644H398.966C398.776 94.6955 398.621 94.5538 398.536 94.3706C398.45 94.1874 398.44 93.9776 398.509 93.7873C398.952 92.7278 399.009 91.5454 398.669 90.4481C398.33 89.3507 397.615 88.4085 396.652 87.7871C396.48 87.6797 396.357 87.5097 396.309 87.313C396.261 87.1163 396.291 86.9085 396.393 86.7336C396.497 86.5629 396.664 86.44 396.857 86.3914C397.051 86.3429 397.256 86.3726 397.428 86.474C398.695 87.2742 399.641 88.4958 400.1 89.9249C400.559 91.354 400.503 92.8996 399.94 94.2911C399.886 94.4355 399.787 94.559 399.659 94.644C399.53 94.729 399.378 94.7711 399.224 94.7644Z" fill="#4F4F4F"/>
<path d="M124.585 164.538H118.739C117.999 164.538 117.399 165.139 117.399 165.881V168.446C117.399 169.188 117.999 169.79 118.739 169.79H124.585C125.325 169.79 125.925 169.188 125.925 168.446V165.881C125.925 165.139 125.325 164.538 124.585 164.538Z" fill="white"/>
<path d="M124.585 170.477H118.739C118.198 170.477 117.679 170.261 117.297 169.878C116.914 169.494 116.699 168.974 116.699 168.431V165.881C116.699 165.339 116.914 164.818 117.297 164.435C117.679 164.051 118.198 163.835 118.739 163.835H124.585C125.126 163.835 125.645 164.051 126.028 164.435C126.41 164.818 126.625 165.339 126.625 165.881V168.431C126.625 168.974 126.41 169.494 126.028 169.878C125.645 170.261 125.126 170.477 124.585 170.477ZM118.739 165.286C118.654 165.286 118.57 165.303 118.491 165.336C118.412 165.369 118.341 165.418 118.282 165.479C118.222 165.54 118.175 165.613 118.144 165.692C118.113 165.772 118.098 165.857 118.1 165.942V168.492C118.098 168.578 118.113 168.663 118.144 168.742C118.175 168.822 118.222 168.894 118.282 168.955C118.341 169.017 118.412 169.065 118.491 169.098C118.57 169.132 118.654 169.149 118.739 169.149H124.585C124.67 169.149 124.755 169.132 124.833 169.098C124.912 169.065 124.983 169.017 125.043 168.955C125.102 168.894 125.149 168.822 125.18 168.742C125.212 168.663 125.227 168.578 125.225 168.492V165.942C125.227 165.857 125.212 165.772 125.18 165.692C125.149 165.613 125.102 165.54 125.043 165.479C124.983 165.418 124.912 165.369 124.833 165.336C124.755 165.303 124.67 165.286 124.585 165.286H118.739Z" fill="#4F4F4F"/>
<path d="M103.47 185.394C103.885 180.843 105.982 176.612 109.347 173.532C112.713 170.451 117.106 168.743 121.662 168.743C126.219 168.743 130.611 170.451 133.977 173.532C137.343 176.612 139.439 180.843 139.855 185.394H103.47Z" fill="white"/>
<path d="M139.855 186.096H103.469C103.378 186.096 103.288 186.077 103.204 186.042C103.12 186.006 103.043 185.954 102.98 185.889C102.916 185.824 102.866 185.746 102.832 185.661C102.799 185.576 102.782 185.485 102.784 185.393C102.784 180.372 104.773 175.557 108.313 172.006C111.854 168.456 116.655 166.461 121.662 166.461C126.669 166.461 131.47 168.456 135.011 172.006C138.551 175.557 140.54 180.372 140.54 185.393C140.542 185.485 140.525 185.576 140.492 185.661C140.458 185.746 140.408 185.824 140.344 185.889C140.281 185.954 140.204 186.006 140.12 186.042C140.036 186.077 139.946 186.096 139.855 186.096ZM104.185 184.706H139.2C139.2 180.05 137.355 175.584 134.072 172.291C130.789 168.998 126.336 167.148 121.692 167.148C117.049 167.148 112.596 168.998 109.313 172.291C106.029 175.584 104.185 180.05 104.185 184.706Z" fill="#4F4F4F"/>
<path d="M139.855 179.378H103.47C102.091 179.378 100.973 180.499 100.973 181.882V183.119C100.973 184.501 102.091 185.622 103.47 185.622H139.855C141.234 185.622 142.352 184.501 142.352 183.119V181.882C142.352 180.499 141.234 179.378 139.855 179.378Z" fill="white"/>
<path d="M139.855 186.31H103.469C102.624 186.31 101.813 185.974 101.214 185.376C100.615 184.778 100.276 183.966 100.272 183.119V181.867C100.276 181.019 100.615 180.207 101.214 179.609C101.813 179.011 102.624 178.676 103.469 178.676H139.855C140.7 178.676 141.511 179.011 142.11 179.609C142.709 180.207 143.048 181.019 143.052 181.867V183.119C143.048 183.966 142.709 184.778 142.11 185.376C141.511 185.974 140.7 186.31 139.855 186.31ZM103.469 180.065C102.993 180.065 102.536 180.255 102.199 180.593C101.862 180.931 101.673 181.389 101.673 181.867V183.119C101.673 183.596 101.862 184.055 102.199 184.393C102.536 184.73 102.993 184.92 103.469 184.92H139.855C140.331 184.92 140.788 184.73 141.125 184.393C141.462 184.055 141.651 183.596 141.651 183.119V181.867C141.651 181.389 141.462 180.931 141.125 180.593C140.788 180.255 140.331 180.065 139.855 180.065H103.469Z" fill="#4F4F4F"/>
<path d="M208.682 27.6782H135.074V80.4127H208.682V27.6782Z" fill="white"/>
<path d="M208.682 81.1153H135.074C134.981 81.1154 134.889 81.0967 134.803 81.0604C134.717 81.0242 134.639 80.9711 134.574 80.9043C134.509 80.8374 134.457 80.7582 134.423 80.6712C134.389 80.5842 134.372 80.4913 134.374 80.3978V27.6785C134.372 27.585 134.389 27.492 134.423 27.4051C134.457 27.3181 134.509 27.2388 134.574 27.172C134.639 27.1052 134.717 27.0521 134.803 27.0158C134.889 26.9796 134.981 26.9609 135.074 26.9609H208.682C208.869 26.9649 209.047 27.0423 209.178 27.1764C209.309 27.3106 209.382 27.4908 209.382 27.6785V80.3978C209.382 80.5855 209.309 80.7657 209.178 80.8998C209.047 81.034 208.869 81.1113 208.682 81.1153ZM135.851 79.6954H208.058V28.3808H135.851V79.6954Z" fill="#E4E5E7"/>
<path d="M199.045 43.3123H144.711C144.619 43.3144 144.527 43.2977 144.441 43.2631C144.355 43.2286 144.277 43.1769 144.211 43.1113C144.146 43.0457 144.094 42.9674 144.06 42.8812C144.026 42.7951 144.009 42.7028 144.011 42.61C144.011 42.4238 144.085 42.2451 144.216 42.1134C144.347 41.9817 144.525 41.9077 144.711 41.9077H199.045C199.23 41.9116 199.406 41.9869 199.536 42.1177C199.667 42.2486 199.742 42.425 199.746 42.61C199.746 42.7963 199.672 42.9749 199.541 43.1066C199.409 43.2383 199.231 43.3123 199.045 43.3123Z" fill="#E4E5E7"/>
<path d="M199.046 54.748H144.712C144.542 54.723 144.386 54.6375 144.274 54.5071C144.162 54.3768 144.1 54.2103 144.1 54.0381C144.1 53.8659 144.162 53.6994 144.274 53.569C144.386 53.4387 144.542 53.3532 144.712 53.3281H199.046C199.216 53.3532 199.371 53.4387 199.483 53.569C199.595 53.6994 199.657 53.8659 199.657 54.0381C199.657 54.2103 199.595 54.3768 199.483 54.5071C199.371 54.6375 199.216 54.723 199.046 54.748Z" fill="#E4E5E7"/>
<path d="M199.045 66.1685H144.711C144.525 66.1685 144.347 66.0945 144.216 65.9628C144.085 65.8311 144.011 65.6524 144.011 65.4662C144.009 65.3734 144.026 65.2811 144.06 65.1949C144.094 65.1088 144.146 65.0305 144.211 64.9649C144.277 64.8993 144.355 64.8476 144.441 64.813C144.527 64.7785 144.619 64.7618 144.711 64.7638H199.045C199.231 64.7638 199.409 64.8378 199.541 64.9695C199.672 65.1013 199.746 65.2799 199.746 65.4662C199.742 65.6512 199.667 65.8276 199.536 65.9585C199.406 66.0893 199.23 66.1646 199.045 66.1685Z" fill="#E4E5E7"/>
<path d="M171.003 30.9304C170.818 30.9304 170.639 30.8564 170.508 30.7247C170.377 30.593 170.303 30.4144 170.303 30.2281V22.8385C170.303 22.6523 170.377 22.4736 170.508 22.3419C170.639 22.2102 170.818 22.1362 171.003 22.1362C171.188 22.1401 171.364 22.2154 171.495 22.3462C171.625 22.4771 171.7 22.6535 171.704 22.8385V30.167C171.71 30.2638 171.697 30.3608 171.665 30.4522C171.632 30.5436 171.582 30.6275 171.517 30.6988C171.451 30.7701 171.372 30.8274 171.284 30.8672C171.195 30.9071 171.1 30.9285 171.003 30.9304Z" fill="#E4E5E7"/>
</g>
<defs>
<clipPath id="clip0">
<rect width="566" height="350" fill="white"/>
</clipPath>
</defs>
</svg>
