<?xml version="1.0" encoding="utf-8"?><svg width="42" height="38" viewBox="0 0 42 38" xmlns="http://www.w3.org/2000/svg" xmlns:xlink="http://www.w3.org/1999/xlink"><svg width="14" height="14" fill="none" viewBox="0 0 14 14" id="arrow-left" xmlns="http://www.w3.org/2000/svg"><path d="M11.813 7H2.187M6.125 3.063L2.187 7l3.938 3.938" stroke="#6A6C6F" stroke-width="2" stroke-linecap="round" stroke-linejoin="round"/></svg><svg width="12" height="10" fill="none" viewBox="0 0 12 10" id="checked-icon" y="28" xmlns="http://www.w3.org/2000/svg"><path d="M10.813 1.938L4.686 8.062 1.626 5" stroke="#E67E22" stroke-width="2" stroke-linecap="round" stroke-linejoin="round"/></svg><svg width="14" height="14" fill="none" viewBox="0 0 14 14" id="drop-menu-icon" x="14" xmlns="http://www.w3.org/2000/svg"><path d="M11.375 5.25L7 9.625 2.625 5.25" stroke="#6A6C6F" stroke-width="2" stroke-linecap="round" stroke-linejoin="round"/></svg><svg width="14" height="14" fill="none" viewBox="0 0 14 14" id="facebook-icon" y="14" xmlns="http://www.w3.org/2000/svg"><path d="M8.044 13V7.535h1.844l.274-2.14H8.044V4.033c0-.618.172-1.04 1.058-1.04h1.123V1.084A14.892 14.892 0 008.58 1c-1.63 0-2.748.995-2.748 2.821v1.57H4v2.14h1.836V13h2.208z" fill="#2F80ED"/></svg><svg width="14" height="14" fill="none" viewBox="0 0 14 14" id="google-icon" x="14" y="14" xmlns="http://www.w3.org/2000/svg"><path d="M12.72 5.858h-.47v-.025H7v2.334h3.297A3.499 3.499 0 013.5 7 3.5 3.5 0 017 3.5c.892 0 1.704.337 2.322.886l1.65-1.65A5.806 5.806 0 007 1.166a5.834 5.834 0 105.72 4.692z" fill="#FFC107"/><path d="M1.84 4.285L3.755 5.69A3.498 3.498 0 017 3.5c.892 0 1.704.337 2.322.886l1.65-1.65A5.806 5.806 0 007 1.166a5.83 5.83 0 00-5.16 3.119z" fill="#FF3D00"/><path d="M7 12.833a5.806 5.806 0 003.911-1.514L9.106 9.791c-.606.46-1.345.71-2.106.709a3.498 3.498 0 01-3.29-2.318L1.806 9.648A5.829 5.829 0 007 12.833z" fill="#4CAF50"/><path d="M12.72 5.857h-.47v-.024H7v2.334h3.297A3.512 3.512 0 019.105 9.79l1.806 1.528c-.128.116 1.922-1.402 1.922-4.32 0-.39-.04-.772-.113-1.142z" fill="#1976D2"/></svg><svg width="14" height="14" fill="none" viewBox="0 0 14 14" id="slick-arrow-next" x="28" xmlns="http://www.w3.org/2000/svg"><path d="M5.25 2.625L9.625 7 5.25 11.375" stroke="#fff" stroke-width="2" stroke-linecap="round" stroke-linejoin="round"/></svg><svg width="14" height="14" fill="none" viewBox="0 0 14 14" id="slick-arrow-prev" x="28" y="14" xmlns="http://www.w3.org/2000/svg"><path d="M8.75 11.375L4.375 7 8.75 2.625" stroke="#fff" stroke-width="2" stroke-linecap="round" stroke-linejoin="round"/></svg></svg>