<svg width="1440" height="900" viewBox="0 0 1440 900" fill="none" xmlns="http://www.w3.org/2000/svg">
<g filter="url(#filter0_f)">
<ellipse rx="348.366" ry="334.77" transform="matrix(0.589438 -0.807814 -0.807814 -0.589438 808.39 428.282)" fill="url(#paint0_linear)"/>
</g>
<g opacity="0.8" filter="url(#filter1_f)">
<circle cx="500.174" cy="966.174" r="379.184" transform="rotate(-39.96 500.174 966.174)" fill="url(#paint1_linear)"/>
</g>
<mask id="mask0" mask-type="alpha" maskUnits="userSpaceOnUse" x="-77" y="-229" width="1192" height="524">
<path d="M-56.8166 -48.656C63.6837 -33.1136 315.174 6.39321 357.134 40.0818C409.583 82.1925 611.133 69.4835 648.647 202.221C686.161 334.958 807.939 250.475 823.762 167.939C839.584 85.4032 930.802 -52.0578 1031.64 -19.7956" stroke="black"/>
<path d="M282.182 -226.39C243.844 -170.811 221.584 -61.7216 439.243 -69.9926C711.317 -80.3314 692.773 -231.68 774.16 -154.768C855.546 -77.8557 906.272 26.3036 1102.33 0.137961" stroke="black"/>
<path d="M-48.7081 -57.173C68.3856 -41.3319 313.373 -1.78462 354.72 31.8917C406.301 73.7847 604.127 62.0004 643.38 191.399C686.615 320.647 804.97 234.533 822.392 155.886C839.814 77.2392 930.044 -54.3286 1033.2 -23.4915" stroke="black"/>
<path d="M-40.5998 -65.6872C73.0874 -49.5475 311.571 -9.95965 352.306 23.7044C403.018 65.3797 597.12 54.5202 638.113 180.581C687.069 306.339 802.001 218.594 821.022 143.836C840.043 69.078 929.286 -56.5966 1034.77 -27.1846" stroke="black"/>
<path d="M-32.4923 -74.1983C77.7883 -57.7599 309.769 -18.1316 349.891 15.5202C399.735 56.9779 590.112 47.0431 632.845 169.765C687.522 292.034 799.032 202.658 819.652 131.789C840.272 60.92 928.527 -58.8615 1036.33 -30.8745" stroke="black"/>
<path d="M-24.3845 -82.7055C82.4895 -65.9684 307.966 -26.2996 347.476 7.33995C396.452 48.5799 583.105 39.5698 627.577 158.954C687.975 277.732 796.062 186.725 818.281 119.746C840.501 52.7658 927.768 -61.1225 1037.9 -34.5606" stroke="black"/>
<path d="M-16.2776 -91.2084C87.1899 -74.1725 306.163 -34.4632 345.061 -0.835936C393.169 40.1864 576.097 32.101 622.308 148.147C688.427 263.436 793.092 170.798 816.91 107.707C840.728 44.616 927.008 -63.3791 1039.46 -38.2422" stroke="black"/>
<path d="M-8.17055 -99.706C91.8904 -82.3714 304.36 -42.6216 342.645 -9.00663C389.885 31.798 569.089 24.6374 617.039 137.345C688.879 249.144 790.122 154.875 815.539 95.6733C840.957 36.4715 926.249 -65.6305 1041.02 -41.9187" stroke="black"/>
<path d="M-0.0644796 -108.197C96.5899 -90.5641 302.556 -50.7739 340.229 -17.1711C386.6 23.4158 562.08 17.1799 611.77 126.549C689.33 234.858 787.151 138.959 814.167 83.646C841.184 28.3331 925.488 -67.8757 1042.58 -45.589" stroke="black"/>
<path d="M8.04151 -116.681C101.289 -98.7494 300.752 -58.9186 337.813 -25.3282C383.316 15.0411 555.071 9.72992 606.5 115.76C689.782 220.58 784.18 123.05 812.795 71.6261C841.411 20.2021 924.728 -70.1134 1044.15 -49.2518" stroke="black"/>
<path d="M16.1468 -125.156C105.988 -106.926 298.948 -67.0544 335.395 -33.4762C380.03 6.67538 548.061 2.28891 601.23 104.981C690.232 206.311 781.208 107.15 811.422 59.6152C841.637 12.0802 923.967 -72.3422 1045.71 -52.9057" stroke="black"/>
<path d="M24.2507 -133.62C110.685 -115.091 297.142 -75.1788 332.977 -41.6129C376.744 -1.67897 541.05 -5.14073 595.958 94.213C690.682 192.054 778.234 91.2616 810.048 47.6156C841.862 3.96964 923.204 -74.5596 1047.27 -56.5481" stroke="black"/>
<path d="M32.0557 -138.157C115.084 -119.329 295.037 -79.3763 330.259 -45.8227C373.158 -6.10641 533.74 -8.64344 590.387 87.3719C690.832 181.723 774.962 79.3 808.375 39.543C841.788 -0.21401 922.142 -72.85 1048.53 -56.2636" stroke="black"/>
<path d="M39.7422 -141.147C119.364 -122.021 292.813 -82.0279 327.424 -48.4864C369.454 -8.98787 526.311 -10.6002 584.698 82.0768C690.864 172.938 771.572 68.8844 806.584 33.0164C841.596 -2.85168 920.962 -69.5945 1049.67 -54.4332" stroke="black"/>
<path d="M47.4292 -144.138C123.644 -124.713 290.59 -84.6794 324.588 -51.1502C365.75 -11.8693 518.883 -12.5569 579.009 76.7817C690.896 164.153 768.181 58.4688 804.793 26.4897C841.404 -5.48935 919.783 -66.339 1050.81 -52.6028" stroke="black"/>
<path d="M55.1162 -147.129C127.925 -127.405 288.367 -87.3309 321.753 -53.814C362.046 -14.7508 511.455 -14.5137 573.321 71.4866C690.928 155.369 764.791 48.0532 803.002 19.9631C841.212 -8.12703 918.603 -63.0835 1051.96 -50.7723" stroke="black"/>
<path d="M62.8027 -150.12C132.205 -130.097 286.144 -89.9824 318.917 -56.4778C358.342 -17.6323 504.026 -16.4704 567.631 66.1915C690.96 146.584 761.401 37.6376 801.21 13.4364C841.019 -10.7647 917.423 -59.828 1053.1 -48.9419" stroke="black"/>
<path d="M70.4897 -153.11C136.485 -132.789 283.921 -92.6341 316.081 -59.1417C354.638 -20.5138 496.598 -18.4273 561.943 60.8963C690.992 137.799 758.01 27.2218 799.419 6.90967C840.827 -13.4025 916.244 -56.5726 1054.24 -47.1116" stroke="black"/>
<path d="M78.1763 -156.101C140.765 -135.481 281.697 -95.2856 313.246 -61.8055C350.934 -23.3953 489.17 -20.384 556.254 55.6012C691.024 129.014 754.62 16.8062 797.627 0.383027C840.635 -16.0402 915.064 -53.3171 1055.38 -45.2811" stroke="black"/>
<path d="M85.8633 -159.092C145.045 -138.173 279.474 -97.9371 310.41 -64.4692C347.231 -26.2768 481.742 -22.3407 550.565 50.3061C691.057 120.229 751.23 6.39059 795.836 -6.14362C840.443 -18.6778 913.884 -50.0616 1056.53 -43.4507" stroke="black"/>
<path d="M93.5503 -162.083C149.326 -140.865 277.251 -100.589 307.575 -67.133C343.527 -29.1582 474.313 -24.2975 544.876 45.011C691.089 111.445 747.839 -4.02502 794.045 -12.6703C840.251 -21.3155 912.704 -46.8061 1057.67 -41.6203" stroke="black"/>
<path d="M101.237 -165.073C153.606 -143.557 275.028 -103.24 304.739 -69.7968C339.823 -32.0397 466.885 -26.2542 539.187 39.7159C691.121 102.66 744.449 -14.4406 792.254 -19.1969C840.059 -23.9532 911.524 -43.5506 1058.81 -39.7898" stroke="black"/>
<path d="M108.924 -168.064C157.886 -146.249 272.805 -105.892 301.904 -72.4606C336.119 -34.9211 459.457 -28.2109 533.498 34.4208C691.153 93.8752 741.059 -24.8562 790.463 -25.7235C839.867 -26.5908 910.345 -40.2951 1059.95 -37.9594" stroke="black"/>
<path d="M116.61 -171.055C162.166 -148.941 270.582 -108.543 299.068 -75.1245C332.415 -37.8027 452.028 -30.1678 527.809 29.1256C691.185 85.0903 737.668 -35.272 788.671 -32.2503C839.674 -29.2286 909.165 -37.0397 1061.1 -36.1291" stroke="black"/>
<path d="M124.297 -174.046C166.447 -151.633 268.359 -111.195 296.232 -77.7883C328.711 -40.6842 444.6 -32.1245 522.121 23.8305C691.217 76.3056 734.278 -45.6876 786.88 -38.777C839.483 -31.8663 907.985 -33.7842 1062.24 -34.2986" stroke="black"/>
<path d="M131.984 -177.036C170.727 -154.325 266.136 -113.846 293.397 -80.4521C325.008 -43.5656 437.172 -34.0813 516.432 18.5354C691.249 67.5208 730.888 -56.1032 785.089 -45.3036C839.291 -34.504 906.806 -30.5287 1063.38 -32.4682" stroke="black"/>
<path d="M139.671 -180.027C175.007 -157.017 263.912 -116.498 290.561 -83.1158C321.303 -46.4471 429.744 -36.038 510.743 13.2403C691.281 58.736 727.497 -66.5188 783.298 -51.8302C839.098 -37.1416 905.626 -27.2732 1064.52 -30.6378" stroke="black"/>
<path d="M147.358 -183.018C179.288 -159.709 261.689 -119.149 287.726 -85.7796C317.6 -49.3286 422.315 -37.9947 505.054 7.94516C691.314 49.9513 724.107 -76.9344 781.507 -58.3569C838.906 -39.7793 904.446 -24.0177 1065.67 -28.8073" stroke="black"/>
<path d="M155.044 -186.009C183.567 -162.401 259.466 -121.801 284.89 -88.4434C313.896 -52.21 414.887 -39.9515 499.365 2.65007C691.345 41.1665 720.716 -87.3501 779.715 -64.8835C838.714 -42.417 903.266 -20.7622 1066.81 -26.9769" stroke="black"/>
<path d="M162.731 -188.999C187.848 -165.093 257.243 -124.452 282.054 -91.1072C310.192 -55.0915 407.459 -41.9082 493.676 -2.64503C691.378 32.3818 717.326 -97.7657 777.924 -71.4102C838.522 -45.0547 902.087 -17.5067 1067.95 -25.1464" stroke="black"/>
<path d="M170.418 -191.99C192.128 -167.785 255.02 -127.104 279.219 -93.771C306.488 -57.9729 400.031 -43.865 487.988 -7.94013C691.41 23.597 713.936 -108.181 776.133 -77.9368C838.33 -47.6923 900.907 -14.2512 1069.1 -23.316" stroke="black"/>
<path d="M178.105 -194.981C196.408 -170.477 252.796 -129.756 276.383 -96.4349C302.784 -60.8545 392.602 -45.8218 482.298 -13.2354C691.442 14.8121 710.545 -118.597 774.341 -84.4636C838.138 -50.3301 899.727 -10.9958 1070.24 -21.4857" stroke="black"/>
<path d="M185.792 -197.972C200.689 -173.169 250.573 -132.407 273.548 -99.0986C299.08 -63.736 385.174 -47.7786 476.61 -18.5305C691.474 6.02736 707.155 -129.013 772.55 -90.9902C837.946 -52.9678 898.547 -7.74028 1071.38 -19.6553" stroke="black"/>
<path d="M193.479 -200.962C204.969 -175.861 248.35 -135.059 270.712 -101.762C295.376 -66.6174 377.746 -49.7353 470.921 -23.8256C691.506 -2.75741 703.764 -139.428 770.759 -97.5169C837.753 -55.6055 897.368 -4.48477 1072.52 -17.8248" stroke="black"/>
<path d="M201.166 -203.953C209.249 -178.553 246.127 -137.71 267.876 -104.426C291.673 -69.4989 370.317 -51.692 465.232 -29.1207C691.538 -11.5422 700.374 -149.844 768.968 -104.044C837.561 -58.2431 896.188 -1.22926 1073.67 -15.9944" stroke="black"/>
<path d="M208.853 -206.944C213.53 -181.245 243.904 -140.362 265.041 -107.09C287.969 -72.3804 362.889 -53.6488 459.543 -34.4158C691.571 -20.3269 696.984 -160.259 767.177 -110.57C837.369 -60.8808 895.008 2.02625 1074.81 -14.1639" stroke="black"/>
<path d="M216.539 -209.934C217.81 -183.937 241.68 -143.013 262.205 -109.754C284.265 -75.2618 355.461 -55.6055 453.854 -39.7109C691.602 -29.1117 693.593 -170.675 765.385 -117.097C837.177 -63.5185 893.828 5.28175 1075.95 -12.3335" stroke="black"/>
<path d="M224.227 -212.925C222.091 -186.629 239.458 -145.665 259.37 -112.418C280.562 -78.1434 348.033 -57.5623 448.166 -45.006C691.635 -37.8965 690.204 -181.091 763.595 -123.624C836.986 -66.1562 892.649 8.53719 1077.09 -10.5031" stroke="black"/>
<path d="M232.449 -215.875C226.906 -189.281 237.77 -148.275 257.07 -115.041C277.393 -80.984 341.14 -59.4782 443.012 -50.2603C692.203 -46.6404 687.349 -191.466 762.339 -130.109C837.329 -68.7531 892.005 11.8335 1078.77 -8.63185" stroke="black"/>
<path d="M242.074 -218.718C233.125 -191.825 237.486 -150.779 256.173 -117.556C275.628 -83.7176 335.651 -61.2871 439.262 -55.4075C694.174 -55.2773 685.897 -201.733 762.486 -136.488C839.076 -71.2429 892.764 15.2369 1081.85 -6.65354" stroke="black"/>
<path d="M253.643 -221.413C241.287 -194.221 239.144 -153.135 257.219 -119.924C275.806 -86.303 332.104 -62.9478 437.455 -60.4066C698.087 -63.766 686.388 -211.853 764.577 -142.719C842.765 -73.5845 895.466 18.7885 1086.88 -4.52705" stroke="black"/>
<path d="M267.176 -223.958C251.413 -196.467 242.767 -155.34 260.229 -122.142C277.948 -88.7386 330.522 -64.4586 437.612 -65.2558C703.965 -72.1049 688.844 -221.823 768.631 -148.799C848.419 -75.7763 900.132 22.4899 1093.87 -2.25074" stroke="black"/>
</mask>
<g mask="url(#mask0)">
<rect x="104.638" y="-78.4421" width="1020" height="389" transform="rotate(-0.542191 104.638 -78.4421)" fill="url(#paint2_linear)"/>
</g>
<defs>
<filter id="filter0_f" x="131.617" y="-251.46" width="1353.55" height="1359.48" filterUnits="userSpaceOnUse" color-interpolation-filters="sRGB">
<feFlood flood-opacity="0" result="BackgroundImageFix"/>
<feBlend mode="normal" in="SourceGraphic" in2="BackgroundImageFix" result="shape"/>
<feGaussianBlur stdDeviation="100.5" result="effect1_foregroundBlur"/>
</filter>
<filter id="filter1_f" x="-235" y="231" width="1470.35" height="1470.35" filterUnits="userSpaceOnUse" color-interpolation-filters="sRGB">
<feFlood flood-opacity="0" result="BackgroundImageFix"/>
<feBlend mode="normal" in="SourceGraphic" in2="BackgroundImageFix" result="shape"/>
<feGaussianBlur stdDeviation="100.5" result="effect1_foregroundBlur"/>
</filter>
<linearGradient id="paint0_linear" x1="0" y1="334.77" x2="696.733" y2="334.77" gradientUnits="userSpaceOnUse">
<stop stop-color="#FBED96"/>
<stop offset="1" stop-color="#ABECD6"/>
</linearGradient>
<linearGradient id="paint1_linear" x1="120.99" y1="966.174" x2="879.358" y2="966.174" gradientUnits="userSpaceOnUse">
<stop stop-color="#E65300"/>
<stop offset="1" stop-color="#F9CA23"/>
</linearGradient>
<linearGradient id="paint2_linear" x1="520.138" y1="-11.4422" x2="878.638" y2="248.558" gradientUnits="userSpaceOnUse">
<stop stop-color="#E7DF99"/>
<stop offset="0.604167" stop-color="#ABECD6"/>
<stop offset="1" stop-color="#51D1A6"/>
</linearGradient>
</defs>
</svg>
