<svg width="149" height="90" viewBox="0 0 149 90" fill="none" xmlns="http://www.w3.org/2000/svg">
<g clip-path="url(#clip0)">
<path d="M5.09195 89.504C4.04748 89.504 3.14043 89.4283 2.37081 89.2768C1.61494 89.1391 0.900298 88.905 0.226884 88.5745V85.3936C0.859068 85.903 1.57371 86.2887 2.37081 86.5503C3.16791 86.8119 3.93066 86.9427 4.65905 86.9427C5.26375 86.9427 5.73789 86.8257 6.08146 86.5916C6.42505 86.3575 6.59683 85.9857 6.59683 85.4762C6.59683 85.1044 6.43879 84.8083 6.12269 84.588C5.82034 84.3677 5.40805 84.168 4.88581 83.989C4.37732 83.81 3.81384 83.6103 3.1954 83.39C2.65942 83.211 2.14405 82.9769 1.6493 82.6877C1.16828 82.3985 0.769738 82.0061 0.453646 81.5103C0.151297 81.0146 0.00012207 80.3536 0.00012207 79.5274C0.00012207 78.7701 0.185655 78.0609 0.556719 77.3999C0.927784 76.7252 1.505 76.1812 2.28835 75.7681C3.07171 75.355 4.07496 75.1484 5.2981 75.1484C6.13643 75.1484 6.84421 75.2241 7.42142 75.3756C8.01238 75.5272 8.62395 75.7544 9.25613 76.0573V79.2589C8.77511 78.8871 8.21852 78.5497 7.58634 78.2468C6.96789 77.9439 6.3151 77.7717 5.62794 77.7304C4.99576 77.7028 4.46664 77.8061 4.0406 78.0402C3.61457 78.2743 3.40155 78.6392 3.40155 79.135C3.40155 79.5205 3.51836 79.8235 3.752 80.0438C3.98564 80.2641 4.30172 80.45 4.70028 80.6015C5.11257 80.7392 5.57983 80.8907 6.10208 81.0559C6.84421 81.2762 7.51075 81.5379 8.1017 81.8408C8.69267 82.1437 9.15993 82.55 9.5035 83.0595C9.84709 83.569 10.0189 84.2369 10.0189 85.0631C10.0189 85.903 9.82647 86.6605 9.44166 87.3352C9.05685 87.9962 8.49338 88.5263 7.75125 88.9257C7.02286 89.3112 6.13643 89.504 5.09195 89.504Z" fill="#1D1D1D"/>
<path d="M12.3721 89.2355V75.4583H15.7735L19.6284 80.8287L23.5658 75.4583H26.8848V89.2355H23.5452V79.8992L19.5048 85.3109L15.5673 79.9198V89.2355H12.3721Z" fill="#1D1D1D"/>
<path d="M28.6104 89.2355L33.8052 75.4583H37.454L42.3191 89.2355H38.897L37.8869 86.2611H32.7539L31.7644 89.2355H28.6104ZM33.5579 83.8031H37.0623L35.2895 78.5772L33.5579 83.8031Z" fill="#1D1D1D"/>
<path d="M44.0593 89.2355V75.4583H50.7591C52.312 75.4583 53.5283 75.8231 54.4079 76.553C55.2874 77.269 55.7272 78.3569 55.7272 79.8166C55.7272 80.3949 55.6173 80.9595 55.3974 81.5103C55.1913 82.0474 54.8751 82.5294 54.4491 82.9562C54.0368 83.3693 53.5215 83.6654 52.903 83.8444L56.4281 89.2355H52.1815L49.4604 84.4847H47.3989V89.2355H44.0593ZM47.3989 82.0267H50.2025C50.7934 82.0267 51.2607 81.8684 51.6043 81.5516C51.9478 81.2349 52.1197 80.7117 52.1197 79.9818C52.1197 79.3484 51.9685 78.8664 51.6662 78.5359C51.3637 78.2054 50.924 78.0402 50.3468 78.0402H47.3989V82.0267Z" fill="#1D1D1D"/>
<path d="M61.2586 89.2355V78.0402H57.4037V75.4583H68.515V78.0402H64.5982V89.2355H61.2586Z" fill="#1D1D1D"/>
<path d="M75.0892 89.504C74.0447 89.504 73.1377 89.4283 72.368 89.2768C71.6122 89.1391 70.8976 88.905 70.2241 88.5745V85.3936C70.8563 85.903 71.571 86.2887 72.368 86.5503C73.1652 86.8119 73.928 86.9427 74.6563 86.9427C75.261 86.9427 75.7352 86.8257 76.0787 86.5916C76.4224 86.3575 76.5941 85.9857 76.5941 85.4762C76.5941 85.1044 76.4361 84.8083 76.1199 84.588C75.8176 84.3677 75.4053 84.168 74.883 83.989C74.3746 83.81 73.8111 83.6103 73.1926 83.39C72.6566 83.211 72.1413 82.9769 71.6465 82.6877C71.1656 82.3985 70.767 82.0061 70.4508 81.5103C70.1485 81.0146 69.9973 80.3536 69.9973 79.5274C69.9973 78.7701 70.1829 78.0609 70.5539 77.3999C70.925 76.7252 71.5022 76.1812 72.2856 75.7681C73.0689 75.355 74.0723 75.1484 75.2953 75.1484C76.1338 75.1484 76.8415 75.2241 77.4187 75.3756C78.0097 75.5272 78.6212 75.7544 79.2534 76.0573V79.2589C78.7725 78.8871 78.2159 78.5497 77.5836 78.2468C76.9652 77.9439 76.3124 77.7717 75.6252 77.7304C74.993 77.7028 74.4639 77.8061 74.0378 78.0402C73.6118 78.2743 73.3988 78.6392 73.3988 79.135C73.3988 79.5205 73.5157 79.8235 73.7492 80.0438C73.9829 80.2641 74.299 80.45 74.6975 80.6015C75.1098 80.7392 75.5771 80.8907 76.0993 81.0559C76.8415 81.2762 77.508 81.5379 78.099 81.8408C78.69 82.1437 79.1572 82.55 79.5008 83.0595C79.8444 83.569 80.0162 84.2369 80.0162 85.0631C80.0162 85.903 79.8238 86.6605 79.4389 87.3352C79.0542 87.9962 78.4906 88.5263 77.7485 88.9257C77.0202 89.3112 76.1338 89.504 75.0892 89.504Z" fill="#E67E22"/>
<path d="M82.3693 89.2355V75.4583H91.7902V78.0402H85.7088V81.0352H90.9862V83.6378H85.7088V86.6535H91.7902V89.2355H82.3693Z" fill="#E67E22"/>
<path d="M94.5892 89.2355V75.4583H97.4341L103.516 83.6585V75.4583H106.588V89.2355H104.073L97.6609 80.8287V89.2355H94.5892Z" fill="#E67E22"/>
<path d="M109.506 89.2355V75.4583H115.031C117.368 75.4583 119.086 76.0435 120.185 77.214C121.285 78.3707 121.834 80.0851 121.834 82.3572C121.834 84.6156 121.285 86.33 120.185 87.5004C119.086 88.6571 117.368 89.2355 115.031 89.2355H109.506ZM112.846 86.6535H114.639C115.876 86.6535 116.811 86.3093 117.443 85.6208C118.089 84.9322 118.412 83.8444 118.412 82.3572C118.412 80.8563 118.089 79.7615 117.443 79.073C116.811 78.3844 115.876 78.0402 114.639 78.0402H112.846V86.6535Z" fill="#E67E22"/>
<path d="M124.162 89.2355V75.4583H133.583V78.0402H127.502V81.0352H132.779V83.6378H127.502V86.6535H133.583V89.2355H124.162Z" fill="#E67E22"/>
<path d="M136.382 89.2355V75.4583H143.082C144.635 75.4583 145.851 75.8231 146.73 76.553C147.611 77.269 148.05 78.3569 148.05 79.8166C148.05 80.3949 147.94 80.9595 147.72 81.5103C147.514 82.0474 147.198 82.5294 146.772 82.9562C146.359 83.3693 145.844 83.6654 145.226 83.8444L148.751 89.2355H144.504L141.783 84.4847H139.721V89.2355H136.382ZM139.721 82.0267H142.525C143.117 82.0267 143.584 81.8684 143.927 81.5516C144.271 81.2349 144.442 80.7117 144.442 79.9818C144.442 79.3484 144.292 78.8664 143.989 78.5359C143.687 78.2054 143.247 78.0402 142.669 78.0402H139.721V82.0267Z" fill="#E67E22"/>
<path fill-rule="evenodd" clip-rule="evenodd" d="M67.2688 32.5861C68.15 33.7058 67.9585 35.3293 66.8409 36.2123L28.0854 66.8341C26.9678 67.717 25.3476 67.5251 24.4663 66.4054C23.5852 65.2856 23.7767 63.6622 24.8942 62.7792L63.6498 32.1574C64.7673 31.2745 66.3875 31.4664 67.2688 32.5861Z" fill="#E67E22"/>
<path fill-rule="evenodd" clip-rule="evenodd" d="M23.1461 0.594687C23.6578 -0.0799366 24.6018 -0.198205 25.2548 0.330528L59.7507 28.2661C60.4035 28.7948 60.518 29.7704 60.0063 30.4449C59.4945 31.1195 58.5505 31.2378 57.8976 30.7091L23.4018 2.77355C22.7488 2.24483 22.6343 1.26931 23.1461 0.594687Z" fill="#1D1D1D"/>
<rect x="22.8262" width="81.5217" height="3.26733" rx="1.63366" fill="#1D1D1D"/>
<rect x="22.8262" y="65.3464" width="104.348" height="3.26733" rx="1.63366" fill="#1D1D1D"/>
<rect x="26.087" width="68.6139" height="3.26087" rx="1.63043" transform="rotate(90 26.087 0)" fill="#1D1D1D"/>
<rect x="127.174" y="21.2375" width="47.3762" height="3.26087" rx="1.63043" transform="rotate(90 127.174 21.2375)" fill="#1D1D1D"/>
<path fill-rule="evenodd" clip-rule="evenodd" d="M88.3743 38.146C88.9011 37.4952 89.8701 37.3833 90.5386 37.8962L124.956 64.3015C125.625 64.8143 125.74 65.7577 125.213 66.4084C124.686 67.0592 123.717 67.171 123.049 66.6581L88.6308 40.2529C87.9624 39.7401 87.8475 38.7967 88.3743 38.146Z" fill="#1D1D1D"/>
<path fill-rule="evenodd" clip-rule="evenodd" d="M125.626 1.7807C126.495 2.91028 126.286 4.5315 125.158 5.40179L75.9919 43.3563C74.8646 44.2265 73.2465 44.0164 72.3779 42.8868C71.5094 41.7572 71.7192 40.1359 72.8465 39.2657L122.012 1.31117C123.14 0.440885 124.758 0.651098 125.626 1.7807Z" fill="#E67E22"/>
<path fill-rule="evenodd" clip-rule="evenodd" d="M67.27 32.5873C68.1505 33.7076 67.958 35.3309 66.84 36.2132L33.5988 62.4457C32.4808 63.328 30.8606 63.1351 29.9801 62.0148C29.0995 60.8947 29.2921 59.2712 30.4101 58.389L63.6513 32.1564C64.7693 31.2741 66.3894 31.4671 67.27 32.5873Z" fill="#E67E22"/>
<path fill-rule="evenodd" clip-rule="evenodd" d="M76.3406 42.908C75.4601 44.0285 73.84 44.2216 72.7219 43.3395L63.7544 36.265C62.6362 35.3829 62.4434 33.7596 63.3238 32.6391C64.2042 31.5187 65.8243 31.3256 66.9425 32.2077L75.91 39.2822C77.0282 40.1643 77.221 41.7877 76.3406 42.908Z" fill="#E67E22"/>
<path fill-rule="evenodd" clip-rule="evenodd" d="M124.728 0C126.079 -3.18058e-06 127.174 1.18665 127.174 2.65048V15.3198C127.174 16.7836 126.079 17.9703 124.728 17.9703C123.377 17.9703 122.283 16.7836 122.283 15.3198V2.6505C122.283 1.18666 123.377 3.18059e-06 124.728 0Z" fill="#E67E22"/>
<path fill-rule="evenodd" clip-rule="evenodd" d="M110.334 1.36245e-05L124.449 0C125.954 -1.47029e-06 127.174 1.09712 127.174 2.45048C127.174 3.80385 125.954 4.90097 124.449 4.90097L110.334 4.90099C108.828 4.90099 107.609 3.80387 107.609 2.4505C107.609 1.09714 108.828 1.50948e-05 110.334 1.36245e-05Z" fill="#E67E22"/>
</g>
<defs>
<clipPath id="clip0">
<rect width="148.838" height="89.8515" fill="white"/>
</clipPath>
</defs>
</svg>
