<svg width="766" height="472" viewBox="0 0 766 472" fill="none" xmlns="http://www.w3.org/2000/svg">
<path d="M60.1754 324.438C60.1754 324.438 57.2443 350.291 68.3743 361.657C79.5044 373.022 117.137 375.756 119.392 379.572C121.647 383.388 159.116 468.415 159.116 468.415C165.265 474.373 208.309 459.926 209.457 445.622C209.457 445.622 175.309 375.45 173.669 367.248C172.029 359.045 185.291 323.704 185.065 307.788L60.1754 324.438Z" fill="#E4E5E7"/>
<path d="M185.127 307.788C185.353 323.704 172.091 359.024 173.731 367.247C175.37 375.471 209.519 445.622 209.519 445.622C208.514 457.661 177.912 469.782 164.568 469.782C162.665 469.983 160.752 469.498 159.177 468.414C159.177 468.414 121.708 383.388 119.454 379.572C117.199 375.756 79.648 373.022 68.4359 361.657C57.2239 350.291 60.237 324.438 60.237 324.438L185.271 307.788H185.127ZM185.271 305.747H185.004L59.9706 322.398C59.514 322.454 59.0899 322.662 58.7664 322.988C58.4429 323.314 58.239 323.738 58.1873 324.193C58.0643 325.295 55.2972 351.148 67.0421 363.064C74.4212 370.553 91.9053 374.369 104.675 377.144C109.984 378.307 116.584 379.756 117.814 380.694C120.11 384.898 147.064 445.826 157.353 469.21C157.467 469.451 157.62 469.671 157.804 469.863C159.747 471.354 162.189 472.048 164.63 471.802C178.629 471.802 210.482 459.232 211.63 445.785C211.659 445.42 211.588 445.053 211.425 444.724C201.955 425.258 177.113 373.308 175.801 366.819C175.104 363.33 177.851 352.536 180.618 342.211C183.774 329.968 187.361 316.256 187.238 307.727C187.232 307.439 187.166 307.156 187.042 306.895C186.918 306.635 186.741 306.404 186.521 306.217C186.15 305.901 185.677 305.727 185.189 305.727L185.271 305.747Z" fill="#4F4F4F"/>
<path d="M169.877 324.663C166.06 329.749 163.848 335.85 163.523 342.191C163.256 352.066 175.821 372.981 175.821 372.981L204.108 354.76L189.759 321.663L169.877 324.663Z" fill="white"/>
<path d="M175.821 373.961H175.596C175.329 373.885 175.097 373.719 174.94 373.491C174.427 372.614 162.211 352.209 162.498 342.129C162.842 335.573 165.164 329.273 169.16 324.051C169.319 323.854 169.545 323.723 169.795 323.683L189.554 320.643C189.779 320.605 190.009 320.643 190.21 320.75C190.41 320.857 190.569 321.028 190.661 321.235L205.009 354.331C205.102 354.554 205.114 354.803 205.043 355.033C204.972 355.264 204.822 355.463 204.62 355.597L176.334 373.818C176.178 373.91 176.002 373.959 175.821 373.961ZM170.533 325.622C166.975 330.447 164.896 336.194 164.548 342.17C164.322 350.495 173.792 367.39 176.17 371.492L202.816 354.331L189.083 322.745L170.533 325.622Z" fill="#4F4F4F"/>
<path d="M359.251 395.243C359.251 395.243 265.271 326.336 210.421 325.867C196.547 325.901 182.693 326.882 168.955 328.805C136.548 332.886 104.06 340.191 81.4516 341.374C36.6035 343.741 2.80349 329.907 2.04509 283.282C1.38918 243.391 20.2467 235.8 60.0524 224.231C79.7298 218.538 117.732 212.396 153.664 201.785C175.555 195.378 196.708 187.359 212.388 176.81C253.875 148.957 284.129 86.437 284.129 86.437L359.251 395.243Z" fill="white"/>
<path d="M359.252 396.324C359.033 396.326 358.818 396.262 358.637 396.141C341.348 383.738 323.43 372.228 304.954 361.656C265.394 339.211 232.742 327.111 210.503 326.968C196.641 326.992 182.799 327.988 169.078 329.947C155.775 331.641 142.554 333.845 129.764 336.069C111.829 339.068 94.9184 341.905 81.5132 342.598C52.3865 344.149 30.8233 338.64 17.5001 326.275C6.862 316.399 1.32773 302.013 1.10226 283.425C0.425853 242.615 20.7797 234.718 59.8475 223.373C68.1694 220.966 79.6889 218.497 93.0326 215.619C111.624 211.539 132.695 207.111 153.438 201.03C179.06 193.541 198.184 185.4 211.896 176.197C252.666 148.814 283.063 86.8448 283.371 86.2123C283.461 86.0201 283.61 85.8607 283.795 85.7565C283.981 85.6522 284.195 85.6083 284.407 85.6307C284.619 85.6532 284.819 85.7409 284.978 85.8818C285.138 86.0226 285.249 86.2095 285.297 86.4163L360.297 395.08C360.347 395.282 360.333 395.495 360.256 395.689C360.179 395.883 360.043 396.048 359.866 396.161C359.687 396.286 359.47 396.344 359.252 396.324ZM208.576 324.908H210.421C233.357 325.112 265.476 336.885 305.918 359.922C330.617 374.001 351.012 388.183 357.591 392.896L283.801 89.5383C277.652 101.495 249.427 153.283 212.901 177.809C199.004 187.155 179.695 195.378 153.889 202.928C133.064 209.049 111.952 213.559 93.3196 217.558C80.0169 220.415 68.5384 222.884 60.278 225.271C21.1486 236.636 2.3526 243.86 3.00851 283.323C3.31597 301.238 8.62478 315.134 18.8324 324.622C31.7457 336.599 52.776 341.925 81.3492 340.415C94.5904 339.721 111.48 336.906 129.374 333.906C142.165 331.866 155.406 329.56 168.75 327.785C181.962 325.961 195.279 324.986 208.617 324.867L208.576 324.908Z" fill="#4F4F4F"/>
<path d="M392.006 403.282C357.653 410.057 318.216 364.248 294.07 294.953C281.892 259.747 274.569 223.057 272.302 185.89C268.059 112.167 286.917 54.4831 321.455 47.6475C364.171 39.2407 414.594 112.045 434.087 210.233C453.58 308.421 434.743 394.876 392.006 403.282Z" fill="#E4E5E7"/>
<path d="M328.28 46.9944C369.398 46.9944 415.619 117.228 434.087 210.233C453.58 308.461 434.743 394.876 392.006 403.282C389.759 403.731 387.473 403.956 385.181 403.956C352.549 403.956 316.699 359.698 294.07 294.953C281.892 259.747 274.569 223.057 272.302 185.89C268.059 112.167 286.917 54.483 321.455 47.6474C323.703 47.2059 325.989 46.9872 328.28 46.9944ZM328.28 44.9539C325.858 44.9489 323.441 45.1812 321.065 45.6477C286.22 52.5037 265.722 108.903 270.252 186.012C272.543 223.365 279.899 260.238 292.123 295.627C315.572 362.677 352.098 405.996 385.181 405.996C387.603 405.995 390.02 405.755 392.396 405.282C413.918 401.058 430.254 378.185 438.392 340.885C446.386 304.156 445.586 257.613 436.096 209.845C427.159 164.791 411.294 123.145 391.412 92.6195C371.529 62.094 348.962 44.9539 328.28 44.9539Z" fill="#4F4F4F"/>
<path d="M363.536 268.856L294.07 294.953C281.891 259.747 274.569 223.057 272.302 185.89L351.012 184.727L363.536 268.856Z" fill="#4F4F4F"/>
<path d="M294.07 295.974C293.921 296.005 293.768 296.005 293.619 295.974C293.495 295.916 293.384 295.833 293.292 295.732C293.201 295.63 293.131 295.511 293.086 295.382C280.896 260.085 273.56 223.309 271.277 186.053C271.268 185.916 271.287 185.778 271.333 185.649C271.379 185.519 271.45 185.4 271.544 185.298C271.636 185.195 271.75 185.112 271.877 185.056C272.004 185 272.142 184.971 272.281 184.972L350.991 183.809C351.236 183.811 351.472 183.901 351.657 184.062C351.841 184.223 351.961 184.444 351.995 184.686L364.56 268.733C364.59 268.964 364.542 269.197 364.423 269.397C364.304 269.596 364.121 269.751 363.904 269.835L294.419 295.933C294.306 295.968 294.188 295.982 294.07 295.974ZM273.388 186.89C275.714 223.252 282.882 259.145 294.705 293.627L362.347 268.203L350.048 185.767L273.388 186.89Z" fill="#4F4F4F"/>
<path d="M363.543 268.846C374.398 267.196 380.313 247.047 376.754 223.842C373.196 200.637 361.511 183.163 350.656 184.813C339.801 186.462 333.887 206.611 337.445 229.816C341.004 253.021 352.688 270.495 363.543 268.846Z" fill="white"/>
<path d="M362.101 269.978C351.032 269.978 339.964 252.981 336.438 229.985C334.653 219.668 335.072 209.093 337.668 198.949C340.292 190.052 344.842 184.666 350.52 183.829C356.197 182.992 362.142 186.726 367.307 194.46C372.822 203.365 376.384 213.329 377.761 223.7C381.471 247.818 375.281 268.101 363.7 269.856C363.171 269.937 362.636 269.978 362.101 269.978ZM352.098 185.747C351.675 185.706 351.25 185.706 350.827 185.747C345.99 186.461 342.013 191.338 339.636 199.439C337.122 209.291 336.724 219.56 338.467 229.576C341.931 252.185 353.102 269.264 363.392 267.733C373.682 266.203 379.216 246.512 375.69 223.904C374.328 213.815 370.836 204.128 365.442 195.48C361.301 189.155 356.566 185.747 352.098 185.747Z" fill="#4F4F4F"/>
<path d="M45.725 331.172C45.5401 331.175 45.3581 331.127 45.199 331.033C45.0399 330.939 44.9098 330.804 44.8231 330.641C30.147 303.483 27.1544 281.405 27.2159 267.672C27.2159 252.716 30.8234 244.309 30.9874 243.962C31.0363 243.834 31.1107 243.716 31.2061 243.617C31.3016 243.518 31.4162 243.439 31.5431 243.385C31.6699 243.331 31.8064 243.303 31.9443 243.303C32.0822 243.303 32.2188 243.331 32.3457 243.384C32.4727 243.438 32.5876 243.516 32.6833 243.615C32.7791 243.714 32.8538 243.831 32.9031 243.959C32.9523 244.087 32.9751 244.224 32.9699 244.362C32.9648 244.499 32.9319 244.633 32.8731 244.758C32.7297 245.084 18.9965 278.568 46.6268 329.682C46.6906 329.8 46.73 329.929 46.7428 330.062C46.7556 330.195 46.7415 330.329 46.7014 330.456C46.6613 330.584 46.5959 330.702 46.5092 330.804C46.4225 330.906 46.3161 330.989 46.1964 331.05C46.0527 331.131 45.8902 331.173 45.725 331.172Z" fill="#E4E5E7"/>
<path d="M166.966 70.011C166.966 70.011 163.666 54.4217 166.392 54.3197C169.119 54.2177 171.291 62.0123 171.291 62.0123C171.291 62.0123 178.547 46.321 180.29 48.3615C182.032 50.402 184.82 56.7683 184.061 58.7068C183.303 60.6452 178.158 75.6223 178.158 75.6223L166.966 70.011Z" fill="white"/>
<path d="M178.158 76.6629C178.001 76.6705 177.845 76.6352 177.707 76.5609L166.515 70.9291C166.377 70.8568 166.256 70.7555 166.16 70.6322C166.065 70.509 165.997 70.3667 165.962 70.215C165.286 67.0114 163.215 56.3397 165.06 53.9932C165.211 53.79 165.405 53.6224 165.628 53.5025C165.851 53.3826 166.098 53.3132 166.351 53.2994H166.454C168.77 53.2994 170.553 56.6458 171.476 59.2372C173.976 54.0748 177.625 47.4841 179.675 47.1984C179.93 47.1614 180.191 47.1908 180.431 47.2838C180.672 47.3767 180.885 47.5301 181.048 47.7289C182.708 49.7694 186.008 56.4622 185.004 59.0944C184.266 60.992 179.162 75.8263 179.101 75.9895C179.052 76.125 178.976 76.2491 178.877 76.3544C178.778 76.4596 178.659 76.5437 178.527 76.6017C178.408 76.6413 178.283 76.662 178.158 76.6629ZM167.909 69.3172L177.604 74.2143C178.834 70.6843 182.524 59.931 183.139 58.3598C183.631 57.1151 181.601 51.7487 179.798 49.3613C178.342 50.504 174.878 56.809 172.275 62.4408C172.189 62.633 172.042 62.7925 171.858 62.8954C171.673 62.9983 171.46 63.0392 171.25 63.0121C171.042 62.9982 170.843 62.92 170.681 62.7883C170.52 62.6567 170.403 62.4781 170.348 62.2775C169.467 59.1148 167.766 55.646 166.638 55.3603C165.962 56.5234 166.515 62.7672 167.868 69.3172H167.909Z" fill="#4F4F4F"/>
<path d="M84.6288 106.433C84.6288 106.433 129.538 109.923 138.844 104.842L163.666 67.5215L183.057 76.622C183.057 76.622 169.508 116.758 158.46 128.471C140.607 147.263 83.7679 139.183 83.7679 139.183L84.6288 106.433Z" fill="#E67E22"/>
<path d="M43.7572 210.906C43.7572 210.906 19.1605 170.627 18.2176 142.448C17.2747 114.269 35.4558 110.372 41.7485 109.229C48.0412 108.086 81.2878 99.6387 95.3899 113.31C109.492 126.981 114.903 199.602 114.903 199.602L43.7572 210.906Z" fill="#E67E22"/>
<path d="M114.596 185.074C114.596 185.074 131.588 189.828 158.44 203.703C170.738 210.07 186.931 290.689 186.931 290.689C186.931 290.689 186.111 304.054 170.676 303.789L119.884 217.721C119.884 217.721 101.682 186.196 114.596 185.074Z" fill="#4F4F4F"/>
<path d="M171.127 304.727H170.656C170.48 304.727 170.307 304.679 170.155 304.59C170.004 304.5 169.879 304.371 169.795 304.217L119.003 218.272C118.449 217.313 105.639 194.909 109.799 186.931C110.251 186.072 110.924 185.347 111.748 184.831C112.573 184.315 113.52 184.026 114.493 183.992C114.622 183.972 114.754 183.972 114.883 183.992C115.047 183.992 132.285 188.93 158.911 202.703C164.302 205.478 170.82 221.068 178.301 249.206C183.815 269.958 187.894 290.179 187.935 290.383C187.946 290.471 187.946 290.56 187.935 290.648C187.935 290.811 186.89 304.727 171.127 304.727ZM114.514 186.033C113.913 186.061 113.33 186.245 112.823 186.567C112.316 186.89 111.902 187.338 111.624 187.869C108.59 193.685 117.199 211.049 120.786 217.252L171.25 302.687C184.369 302.687 185.762 292.015 185.906 290.668C181.397 268.223 167.704 209.559 157.968 204.519C144.064 197.083 129.522 190.897 114.514 186.033Z" fill="#4F4F4F"/>
<path d="M41.0925 202.132C41.0925 202.132 98.7309 197.01 112.013 193.46C112.013 193.46 112.792 193.46 124.885 210.539C136.979 227.618 132.572 312.297 132.572 312.297C132.572 312.297 121.155 327.581 110.599 326.826L87.109 233.555C87.109 233.555 66.3657 236.616 53.8214 229.74C45.0075 224.883 43.9007 212.457 41.0925 202.132Z" fill="#4F4F4F"/>
<path d="M111.357 327.907H110.517C110.299 327.895 110.092 327.813 109.926 327.673C109.759 327.533 109.643 327.343 109.595 327.132L86.3301 234.739C82.1076 235.249 64.6644 236.902 53.3294 230.658C45.7454 226.577 43.6137 217.272 41.5435 208.355C41.0925 206.315 40.6211 204.275 40.1087 202.438C40.0663 202.294 40.0572 202.142 40.082 201.993C40.1069 201.845 40.165 201.704 40.2522 201.581C40.3388 201.463 40.4491 201.364 40.5761 201.29C40.7031 201.216 40.844 201.169 40.9901 201.153C41.564 201.153 98.7105 196.011 111.747 192.501C111.869 192.479 111.994 192.479 112.116 192.501C112.608 192.501 113.366 192.623 125.705 210.008C138.045 227.393 133.781 308.931 133.597 312.399C133.582 312.599 133.511 312.79 133.392 312.95C132.92 313.624 122.098 327.907 111.357 327.907ZM87.109 232.556C87.3396 232.553 87.5642 232.629 87.7465 232.77C87.9288 232.91 88.058 233.108 88.1134 233.331L111.398 325.867C120.376 325.867 130.112 313.807 131.568 311.951C131.834 306.258 135.421 227.169 124.045 211.151C115.272 198.806 112.526 195.48 111.747 194.603C98.608 197.888 50.8903 202.295 42.4249 203.071C42.8348 204.642 43.2038 206.254 43.5932 207.886C45.643 216.375 47.6927 225.149 54.3543 228.862C66.4477 235.494 86.8015 232.596 87.0065 232.556H87.109Z" fill="#4F4F4F"/>
<path d="M56.527 87.7836C55.5021 87.5796 54.2723 79.6217 54.0673 78.7647C52.7236 74.1992 52.3055 69.4132 52.8375 64.6854C52.9937 61.8529 53.8226 59.0976 55.2562 56.6459C55.999 55.4389 57.1318 54.5189 58.4688 54.037C59.8059 53.555 61.2677 53.5396 62.6147 53.9933C63.3506 54.52 64.2133 54.8438 65.1154 54.9319C65.772 54.785 66.3749 54.4601 66.8576 53.9933C68.9875 52.262 71.4481 50.9788 74.0904 50.2213C76.7327 49.4637 79.502 49.2475 82.2306 49.5858C84.9527 49.9761 87.5147 51.1038 89.6367 52.8455C91.7586 54.5872 93.3588 56.876 94.2625 59.4618C94.0576 58.3803 95.5948 57.6457 96.5992 58.1355C97.529 58.7464 98.1889 59.6881 98.444 60.7677C99.7554 63.7994 99.9585 67.1927 99.0179 70.3579C97.6856 73.6023 94.119 73.7451 90.819 73.7451C81.4107 73.7859 66.5912 89.8649 56.527 87.7836Z" fill="white"/>
<path d="M58.4128 88.9876C57.7244 88.9883 57.0377 88.92 56.3631 88.7836C55.2357 88.5591 54.6003 87.192 53.309 80.0503C53.309 79.5402 53.145 79.1525 53.104 78.9893C51.751 74.3067 51.34 69.4042 51.8946 64.5631C52.0839 61.5764 52.9756 58.6758 54.4978 56.0951C55.3654 54.6892 56.6929 53.6234 58.2569 53.0772C59.821 52.5309 61.5263 52.5374 63.0862 53.0956C63.3267 53.2019 63.5595 53.3247 63.7831 53.4629C64.1598 53.7241 64.5972 53.8856 65.0539 53.9322C65.4825 53.7965 65.8748 53.5663 66.2018 53.2589C68.4424 51.4222 71.0361 50.0605 73.8241 49.257C76.612 48.4535 79.5354 48.2252 82.4151 48.5862C84.989 48.9782 87.432 49.9748 89.5421 51.4935C91.6522 53.0122 93.3687 55.0092 94.5495 57.3194C94.942 57.1283 95.3732 57.029 95.8101 57.029C96.247 57.029 96.6782 57.1283 97.0707 57.3194C97.664 57.6705 98.1802 58.1369 98.5887 58.6908C98.9972 59.2447 99.2896 59.8747 99.4484 60.5434C100.863 63.7887 101.053 67.4337 99.9813 70.807C98.321 74.8879 93.8321 74.8879 90.901 74.8879C86.8015 74.8879 81.3493 78.2751 76.02 81.5603C70.0347 85.0903 63.8241 88.9876 58.4128 88.9876ZM56.9985 86.9472C62.0408 87.8042 68.6204 83.7436 74.9951 79.8259C80.7958 76.2346 86.2891 72.8679 90.9215 72.8474C94.2421 72.8474 97.0707 72.623 98.116 70.0928C98.9643 67.1625 98.754 64.029 97.5216 61.2371C97.3414 60.4184 96.8678 59.693 96.1893 59.1967C96.0893 59.1522 95.9811 59.1292 95.8716 59.1292C95.7621 59.1292 95.6538 59.1522 95.5539 59.1967C95.452 59.2256 95.3644 59.291 95.3079 59.3803C95.3519 59.639 95.296 59.9046 95.1516 60.1241C95.0072 60.3435 94.7848 60.5006 94.529 60.5638C94.2767 60.6216 94.0117 60.5822 93.7874 60.4535C93.563 60.3248 93.3959 60.1163 93.3197 59.87C92.4827 57.4593 90.9926 55.3259 89.0139 53.7055C87.0353 52.0851 84.6452 51.0407 82.1077 50.6878C79.5174 50.362 76.8876 50.5687 74.3809 51.2953C71.8741 52.0218 69.5438 53.2526 67.5341 54.9116C66.8964 55.5024 66.0979 55.8928 65.2384 56.0339C64.3698 56.0592 63.5157 55.8091 62.7992 55.3197L62.2253 55.0137C61.0893 54.6513 59.8636 54.6818 58.7473 55.1004C57.631 55.519 56.6896 56.301 56.0761 57.3194C54.756 59.654 53.9851 62.2563 53.8214 64.9304C53.3075 69.5209 53.7115 74.1673 55.0102 78.6016C55.0102 78.7852 55.0102 79.1933 55.2152 79.7647C55.5416 82.1778 56.1186 84.5506 56.937 86.8451L56.9985 86.9472Z" fill="#4F4F4F"/>
<path d="M85.3667 103.169L84.6698 118.35C83.3906 120.741 81.2816 122.587 78.736 123.545C76.1903 124.502 73.3818 124.505 70.8341 123.553C60.9749 120.554 60.0935 113.351 60.0935 113.351L61.8563 85.2535C61.8563 85.2535 70.1987 80.846 72.7198 63.3999C72.7198 63.3999 94.488 62.5021 94.037 70.7252C94.037 70.7252 96.0868 85.8656 94.6725 93.5378C93.2581 101.21 85.5102 103.067 85.3667 103.169Z" fill="white"/>
<path d="M74.9746 125.226C73.4725 125.214 71.9805 124.98 70.5472 124.533C60.1551 121.37 59.1097 113.8 59.0687 113.494L60.8315 85.2125C60.8417 85.0369 60.8982 84.8671 60.9954 84.7203C61.0925 84.5734 61.2269 84.4546 61.3849 84.3759C61.3849 84.3759 69.2969 79.9073 71.6336 63.2774C71.671 63.0407 71.7894 62.8242 71.9687 62.6644C72.1479 62.5045 72.3771 62.4111 72.6174 62.4C73.2529 62.4 88.5028 61.7878 93.4017 66.7462C93.9536 67.2673 94.3831 67.9033 94.6594 68.6087C94.9358 69.3142 95.0523 70.0717 95.0005 70.8272C95.0005 71.2761 97.0502 86.0287 95.6154 93.8029C95.1108 96.1715 93.9833 98.3642 92.3483 100.157C90.7133 101.949 88.6294 103.277 86.3096 104.005L85.6127 118.493C85.6341 118.621 85.6341 118.752 85.6127 118.88C84.5633 120.782 83.0252 122.371 81.156 123.486C79.2868 124.601 77.1536 125.202 74.9746 125.226ZM62.8402 85.8655L61.0365 113.432C61.0365 113.432 61.9998 119.819 71.0596 122.574C73.3362 123.461 75.8593 123.496 78.1593 122.67C80.4594 121.844 82.3797 120.215 83.563 118.085L84.2599 103.128C84.2697 102.972 84.3133 102.82 84.3876 102.683C84.4619 102.546 84.5652 102.426 84.6903 102.332C84.8263 102.255 84.9707 102.193 85.1208 102.148C87.1904 101.572 89.0671 100.454 90.5558 98.911C92.0445 97.368 93.0909 95.4563 93.5862 93.3744C94.9595 85.9471 92.9712 70.9292 92.9507 70.9292C92.9921 70.4326 92.9216 69.9331 92.7443 69.4671C92.567 69.0011 92.2874 68.5804 91.9259 68.2357C88.6053 64.8894 78.1927 64.3792 73.4783 64.4813C71.2851 79.2543 64.7465 84.6004 62.8402 85.8655Z" fill="#4F4F4F"/>
<path d="M67.7595 85.0902C67.4724 83.7026 66.7555 82.4395 65.7097 81.4786C64.7033 80.6067 63.5519 79.9162 62.3072 79.4381C61.6708 79.1179 60.9704 78.9436 60.2575 78.928C59.7474 78.9671 59.2515 79.1131 58.8022 79.3565C57.6885 79.8212 56.7793 80.6683 56.24 81.7438C55.9086 82.6507 55.81 83.6256 55.953 84.5801C56.0093 85.6209 56.2022 86.6499 56.527 87.6408C56.8813 88.6261 57.4289 89.5314 58.1378 90.3042C58.8467 91.0769 59.7028 91.7017 60.6564 92.1422C61.61 92.5826 62.6421 92.83 63.6926 92.87C64.7431 92.9099 65.7911 92.7415 66.7756 92.3747" fill="white"/>
<path d="M64.0086 94.0276C62.7067 94.0322 61.4195 93.7537 60.2371 93.2114C58.0707 92.1928 56.3925 90.3684 55.5637 88.1306C55.1934 87.056 54.966 85.9379 54.8873 84.8046C54.7383 83.6825 54.8649 82.5413 55.2562 81.4786C55.8992 80.1845 56.9809 79.1582 58.3103 78.5811C58.8856 78.2888 59.5118 78.1087 60.1551 78.0506C61.0349 78.046 61.9042 78.2414 62.6967 78.6219C64.042 79.1271 65.29 79.8587 66.3863 80.7849C67.5824 81.8623 68.4011 83.2922 68.723 84.8658C68.7709 85.1309 68.7116 85.404 68.558 85.6257C68.4044 85.8474 68.169 85.9997 67.9031 86.0493C67.6343 86.0974 67.3574 86.039 67.1314 85.8864C66.9054 85.7339 66.7483 85.4994 66.6937 85.2331C66.4857 84.0628 65.8948 82.9939 65.0129 82.1928C64.078 81.4419 63.0254 80.8491 61.8973 80.438C61.3952 80.1799 60.8427 80.0337 60.2781 80.0095C59.9052 80.0499 59.5434 80.1607 59.2122 80.3359C58.3331 80.6992 57.6085 81.3557 57.1625 82.1928C56.8996 82.9528 56.8223 83.7641 56.937 84.5597C56.9939 85.5122 57.1801 86.4525 57.4904 87.3552C57.7872 88.2218 58.2533 89.0213 58.8619 89.7077C59.4705 90.3941 60.2095 90.9538 61.0365 91.3545C62.7175 92.1145 64.631 92.1878 66.3658 91.5586C66.6187 91.4656 66.8982 91.4756 67.1437 91.5864C67.3892 91.6972 67.581 91.8998 67.6776 92.1503C67.7266 92.2747 67.7501 92.4077 67.7467 92.5413C67.7432 92.6749 67.7129 92.8065 67.6575 92.9283C67.6021 93.05 67.5227 93.1595 67.424 93.2502C67.3254 93.3408 67.2095 93.4109 67.0832 93.4562C66.1016 93.8306 65.0597 94.0242 64.0086 94.0276Z" fill="#4F4F4F"/>
<path d="M80.8983 79.54C80.8983 79.54 85.9611 87.4571 84.6903 88.7834C83.4195 90.1097 79.9349 89.1303 79.9349 89.1303" fill="white"/>
<path d="M82.3945 90.5178C81.4716 90.5034 80.5548 90.3661 79.6684 90.1097C79.5338 90.0735 79.4077 90.0113 79.2973 89.9266C79.1868 89.8419 79.0942 89.7364 79.0248 89.6161C78.9553 89.4958 78.9103 89.363 78.8924 89.2254C78.8744 89.0878 78.8839 88.948 78.9202 88.814C78.9566 88.68 79.0191 88.5545 79.1041 88.4445C79.1892 88.3346 79.2952 88.2424 79.4161 88.1733C79.5369 88.1041 79.6703 88.0593 79.8086 88.0415C79.9468 88.0236 80.0872 88.033 80.2218 88.0692C81.3902 88.3957 83.3784 88.5997 83.9523 88.0692C83.0941 85.2147 81.7715 82.5195 80.0373 80.091C79.9073 79.864 79.8697 79.5961 79.9322 79.3424C79.9947 79.0887 80.1526 78.8685 80.3734 78.7272C80.5941 78.586 80.8609 78.5344 81.1187 78.5831C81.3765 78.6318 81.6057 78.7771 81.7591 78.9891C85.4076 84.7024 86.6374 88.2325 85.4281 89.4976C85.0171 89.8615 84.5367 90.1394 84.0155 90.3147C83.4943 90.49 82.9431 90.5591 82.3945 90.5178Z" fill="#4F4F4F"/>
<path d="M74.7292 79.2782C75.4422 79.264 76.0039 78.4396 75.9838 77.4369C75.9636 76.4341 75.3692 75.6327 74.6562 75.6469C73.9432 75.6611 73.3814 76.4855 73.4016 77.4883C73.4217 78.491 74.0161 79.2924 74.7292 79.2782Z" fill="#4F4F4F"/>
<path d="M85.375 80.6369C86.0879 80.6202 86.6467 79.7938 86.623 78.7911C86.5992 77.7884 86.002 76.9891 85.289 77.0058C84.576 77.0226 84.0173 77.849 84.041 78.8516C84.0648 79.8543 84.662 80.6536 85.375 80.6369Z" fill="#4F4F4F"/>
<path d="M80.2424 97.333C78.9448 97.3524 77.6562 97.1167 76.4504 96.6393C74.9348 95.9542 73.605 94.9194 72.5712 93.6206C71.5375 92.3219 70.8296 90.7966 70.5062 89.1711C70.4698 89.0371 70.4604 88.8973 70.4783 88.7597C70.4962 88.6221 70.5412 88.4893 70.6107 88.369C70.6802 88.2487 70.7728 88.1432 70.8832 88.0585C70.9936 87.9738 71.1197 87.9116 71.2543 87.8754C71.3889 87.8392 71.5293 87.8298 71.6676 87.8476C71.8058 87.8655 71.9392 87.9103 72.0601 87.9794C72.1809 88.0486 72.2869 88.1408 72.372 88.2507C72.4571 88.3607 72.5196 88.4862 72.5559 88.6202C72.8086 89.9383 73.3687 91.1789 74.1911 92.2422C75.0135 93.3054 76.0752 94.1615 77.2908 94.7416C81.8617 96.578 87.7444 93.2113 87.8059 93.1704C88.04 93.0366 88.3177 93.0001 88.5786 93.0688C88.8396 93.1376 89.0628 93.3061 89.1997 93.5377C89.3352 93.7739 89.3724 94.0534 89.3035 94.3166C89.2345 94.5797 89.0648 94.8055 88.8308 94.9457C86.1987 96.4084 83.2549 97.2267 80.2424 97.333Z" fill="#4F4F4F"/>
<path d="M85.3667 103.169C85.3667 103.169 75.7944 104.903 70.3422 101.475C70.3422 101.475 75.9379 114.493 84.8952 113.575L85.3667 103.169Z" fill="#4F4F4F"/>
<path d="M83.973 114.636C74.9951 114.636 69.6248 102.393 69.3994 101.863C69.3147 101.664 69.2968 101.443 69.3486 101.234C69.4003 101.024 69.5188 100.837 69.6863 100.7C69.8591 100.566 70.0719 100.493 70.291 100.493C70.5101 100.493 70.7229 100.566 70.8957 100.7C75.938 103.883 85.1003 102.271 85.2438 102.25C85.395 102.22 85.5513 102.224 85.7006 102.263C85.8499 102.302 85.9882 102.374 86.1047 102.475C86.2232 102.574 86.3165 102.7 86.377 102.842C86.4376 102.983 86.4636 103.137 86.4531 103.291L85.9612 113.698C85.9532 113.941 85.8578 114.174 85.6924 114.353C85.5269 114.533 85.3024 114.648 85.0593 114.677L83.973 114.636ZM72.6175 103.638C74.6672 107.005 78.6027 112.534 83.9115 112.596L84.3009 104.434C80.3929 104.971 76.4156 104.7 72.6175 103.638Z" fill="#4F4F4F"/>
<path d="M28.4867 114.698C13.6262 123.186 -5.62079 195.99 5.93969 202.948C24.1413 213.783 80.6523 193.991 80.6523 193.991L73.3348 172.259C73.3348 172.259 36.1322 177.687 34.6974 170.219C33.2626 162.751 51.3002 124.716 47.7542 119.799C44.2081 114.881 28.4867 114.698 28.4867 114.698Z" fill="#E67E22"/>
<path d="M70.2601 180.217C76.504 179.851 82.6895 178.811 88.7077 177.116C93.122 175.491 97.7208 174.415 102.4 173.912C108.622 173.496 114.869 174.187 120.847 175.953C121.086 175.999 121.307 176.112 121.483 176.279C122.118 176.973 120.909 177.871 119.966 178.014C117.513 178.381 115.019 178.381 112.567 178.014C118.696 179.482 124.597 181.768 130.112 184.808C130.748 185.155 131.465 185.727 131.26 186.4C131.055 187.073 129.846 187.114 129.046 186.869L114.985 182.36C118.601 183.326 122.03 184.884 125.131 186.971C125.582 187.277 126.074 187.685 126.033 188.216C126.033 189.134 124.578 189.134 123.717 188.808C119.413 187.277 115.251 185.379 111.275 183.135L120.274 188.44C120.458 189.114 119.802 189.767 119.126 189.869C118.413 189.916 117.702 189.761 117.076 189.42L107.258 185.074L113.407 188.4C114.37 188.93 115.457 189.807 115.19 190.869C114.924 191.93 113.018 191.95 111.767 191.562C106.789 190.079 101.66 189.148 96.4762 188.787C94.635 188.419 92.7576 188.261 90.8804 188.318C88.0711 189.011 85.3278 189.946 82.6815 191.113L70.5676 195.439" fill="white"/>
<path d="M70.6702 196.378C70.4519 196.372 70.2426 196.291 70.0778 196.148C69.9131 196.005 69.8032 195.81 69.7669 195.596C69.7306 195.381 69.7702 195.161 69.8789 194.973C69.9875 194.784 70.1585 194.639 70.3627 194.562L82.4766 190.236C83.276 189.971 84.0959 189.624 84.9158 189.297C86.7961 188.44 88.7703 187.803 90.7985 187.4C92.1673 187.252 93.5508 187.321 94.898 187.604C95.4945 187.717 96.0966 187.799 96.7017 187.849C101.959 188.202 107.158 189.154 112.198 190.685C112.863 190.904 113.582 190.904 114.247 190.685C114.322 190.644 114.38 190.58 114.411 190.501C114.411 190.154 113.96 189.604 113.059 189.114L106.909 185.788C106.697 185.675 106.537 185.484 106.464 185.255C106.391 185.026 106.411 184.778 106.52 184.564C106.623 184.346 106.807 184.177 107.033 184.093C107.259 184.01 107.509 184.017 107.729 184.115L117.548 188.318C117.994 188.562 118.493 188.695 119.003 188.706H119.187L110.824 183.768C110.719 183.707 110.627 183.625 110.553 183.528C110.479 183.432 110.425 183.321 110.395 183.203C110.364 183.086 110.358 182.963 110.375 182.843C110.393 182.723 110.434 182.607 110.496 182.503C110.621 182.291 110.823 182.136 111.061 182.072C111.298 182.007 111.552 182.037 111.767 182.156C115.694 184.381 119.809 186.258 124.066 187.767C124.393 187.889 124.744 187.93 125.09 187.89L124.66 187.583C122.541 186.159 120.265 184.981 117.875 184.074L114.739 183.074C114.509 182.999 114.316 182.838 114.202 182.625C114.087 182.413 114.06 182.164 114.124 181.931C114.196 181.697 114.355 181.499 114.568 181.378C114.782 181.257 115.033 181.221 115.272 181.278C116.359 181.584 117.445 181.931 118.49 182.319L129.374 185.808C129.73 185.906 130.105 185.906 130.461 185.808C130.461 185.808 130.174 185.604 129.702 185.359C124.259 182.355 118.433 180.097 112.382 178.646C112.147 178.592 111.942 178.449 111.812 178.247C111.682 178.045 111.636 177.8 111.685 177.565C111.735 177.33 111.873 177.123 112.071 176.986C112.27 176.85 112.513 176.794 112.751 176.83C115.115 177.187 117.52 177.187 119.884 176.83C120.119 176.799 120.343 176.715 120.54 176.585C114.717 174.888 108.637 174.239 102.584 174.667C98.5536 175.072 94.5882 175.97 90.778 177.34L89.1177 177.85C83.0312 179.556 76.7775 180.603 70.4652 180.972C70.2161 180.99 69.9701 180.91 69.7789 180.75C69.5877 180.59 69.4663 180.363 69.4403 180.115C69.4233 179.87 69.504 179.627 69.6651 179.44C69.8262 179.253 70.0546 179.136 70.3012 179.115C76.4812 178.76 82.6045 177.741 88.5643 176.075L90.2041 175.565C94.1698 174.132 98.3024 173.206 102.502 172.81C108.806 172.379 115.136 173.07 121.196 174.851C121.605 174.946 121.981 175.151 122.282 175.443C122.482 175.651 122.618 175.91 122.676 176.192C122.734 176.473 122.711 176.765 122.61 177.034C122.38 177.49 122.041 177.883 121.623 178.178C121.205 178.473 120.72 178.662 120.212 178.728H119.597C123.422 180.047 127.125 181.692 130.666 183.645C132.531 184.666 132.408 185.869 132.265 186.339C132.194 186.561 132.079 186.768 131.928 186.947C131.777 187.125 131.592 187.272 131.383 187.379C130.569 187.678 129.676 187.678 128.862 187.379L126.689 186.686C126.965 187.047 127.097 187.498 127.058 187.951C127.038 188.208 126.957 188.457 126.822 188.677C126.686 188.896 126.5 189.081 126.279 189.216C125.842 189.417 125.367 189.521 124.886 189.521C124.404 189.521 123.929 189.417 123.492 189.216C122.781 188.971 122.098 188.706 121.442 188.42C121.396 188.72 121.284 189.006 121.114 189.257C120.932 189.539 120.692 189.78 120.409 189.963C120.126 190.146 119.807 190.267 119.474 190.318C118.615 190.388 117.754 190.211 116.994 189.808L116.461 189.583C116.576 189.983 116.576 190.407 116.461 190.807C116.379 191.087 116.24 191.347 116.053 191.572C115.866 191.796 115.636 191.981 115.375 192.113C114.238 192.536 112.986 192.536 111.849 192.113C106.946 190.64 101.893 189.716 96.7837 189.359C96.1278 189.359 95.4719 189.195 94.734 189.093C93.6027 188.856 92.4421 188.787 91.2905 188.889C89.4129 189.279 87.5843 189.875 85.8382 190.665C84.9773 191.032 84.1369 191.358 83.317 191.664C79.2176 193.072 75.1181 194.521 71.2031 195.97C71.0834 196.168 70.8931 196.313 70.6702 196.378Z" fill="#4F4F4F"/>
<path d="M101.437 123.594C103.753 125.43 111.173 166.995 114.903 182.217L101.437 123.594Z" fill="white"/>
<path d="M114.903 183.135C114.691 183.137 114.485 183.067 114.318 182.938C114.15 182.808 114.032 182.626 113.981 182.421C112.649 176.932 110.824 168.138 108.918 158.751C106.069 144.856 102.195 125.839 100.719 124.288C100.625 124.213 100.546 124.119 100.488 124.013C100.431 123.907 100.395 123.791 100.384 123.671C100.372 123.551 100.385 123.43 100.422 123.315C100.458 123.2 100.517 123.094 100.596 123.002C100.756 122.811 100.985 122.689 101.233 122.662C101.482 122.636 101.731 122.706 101.928 122.859C103.486 124.104 105.905 135.102 110.66 158.384C112.567 167.709 114.37 176.524 115.703 181.993C115.759 182.23 115.72 182.481 115.593 182.69C115.467 182.9 115.264 183.052 115.026 183.115L114.903 183.135Z" fill="#4F4F4F"/>
<path d="M179.654 191.746L179.47 197.969L95.9227 220.353L96.6196 213.865L179.654 191.746Z" fill="white"/>
<path d="M95.8818 221.374C95.6407 221.373 95.4079 221.286 95.2259 221.129C95.0983 221.024 94.9994 220.888 94.9385 220.735C94.8776 220.581 94.8566 220.415 94.8774 220.251L95.5538 213.763C95.5732 213.556 95.6566 213.361 95.7925 213.204C95.9284 213.046 96.11 212.935 96.3122 212.885L179.347 190.767C179.501 190.725 179.663 190.72 179.82 190.752C179.976 190.784 180.123 190.852 180.249 190.95C180.378 191.047 180.481 191.174 180.548 191.32C180.616 191.466 180.647 191.626 180.638 191.787L180.454 197.908C180.445 198.127 180.367 198.338 180.231 198.51C180.094 198.682 179.907 198.807 179.695 198.867L96.1483 221.312C96.066 221.355 95.9744 221.376 95.8818 221.374ZM97.5216 214.681L97.0706 218.986L178.424 197.194L178.547 193.113L97.5216 214.681Z" fill="#4F4F4F"/>
<path d="M179.654 191.746C179.654 191.746 158.358 177.463 157.722 177.728C157.087 177.993 71.3876 198.561 71.3876 198.561L96.6197 213.865L179.654 191.746Z" fill="white"/>
<path d="M96.6197 214.885C96.432 214.889 96.2471 214.839 96.0868 214.742L70.8546 199.357C70.6846 199.246 70.5498 199.089 70.4663 198.905C70.3828 198.721 70.3539 198.516 70.3832 198.316C70.4131 198.118 70.5009 197.933 70.6358 197.784C70.7707 197.636 70.9466 197.53 71.1416 197.48C100.453 190.44 156.185 177.075 157.415 176.687C157.948 176.483 158.46 176.279 180.228 190.807C180.393 190.916 180.522 191.07 180.601 191.251C180.68 191.431 180.704 191.631 180.672 191.825C180.639 192.019 180.551 192.199 180.418 192.345C180.284 192.49 180.112 192.594 179.921 192.644L96.8862 214.865L96.6197 214.885ZM74.0727 198.969L96.8247 212.783L177.256 191.338C169.857 186.42 159.546 179.687 157.722 178.789C152.393 180.136 95.5538 193.807 74.0317 198.969H74.0727Z" fill="#4F4F4F"/>
<path d="M95.9228 220.353L71.5515 204.478L71.3876 198.561L96.6198 213.865L95.9228 220.353Z" fill="white"/>
<path d="M95.8819 221.374C95.686 221.37 95.4948 221.314 95.3285 221.21L70.9572 205.335C70.8169 205.244 70.7009 205.12 70.6188 204.974C70.5368 204.829 70.4911 204.666 70.4857 204.499L70.3218 198.581C70.3192 198.4 70.3654 198.221 70.4554 198.063C70.5455 197.905 70.6763 197.774 70.8342 197.684C70.9938 197.594 71.1738 197.547 71.3569 197.547C71.54 197.547 71.72 197.594 71.8796 197.684L97.1117 213.008C97.2805 213.106 97.417 213.25 97.5044 213.424C97.5917 213.598 97.6262 213.794 97.6037 213.987L96.9068 220.455C96.8932 220.63 96.8328 220.798 96.7318 220.942C96.6309 221.085 96.4931 221.199 96.3328 221.272C96.1947 221.346 96.0387 221.381 95.8819 221.374ZM72.515 203.907L95.062 218.578L95.5129 214.497L72.4535 200.5L72.515 203.907Z" fill="#4F4F4F"/>
<path d="M179.654 191.746L189.514 135.347L101.724 161.098L96.6198 213.865L179.654 191.746Z" fill="white"/>
<path d="M96.6197 214.885C96.477 214.889 96.3352 214.862 96.2037 214.807C96.0722 214.752 95.954 214.669 95.857 214.565C95.76 214.461 95.6865 214.337 95.6413 214.202C95.5961 214.067 95.5803 213.925 95.5949 213.783L100.699 160.996C100.717 160.792 100.797 160.599 100.929 160.442C101.061 160.285 101.238 160.172 101.437 160.119L189.227 134.368C189.391 134.317 189.566 134.308 189.735 134.344C189.904 134.38 190.06 134.458 190.19 134.572C190.32 134.687 190.419 134.834 190.476 134.999C190.534 135.163 190.548 135.339 190.518 135.51L180.659 191.93C180.628 192.12 180.541 192.297 180.41 192.438C180.279 192.58 180.109 192.68 179.921 192.725L96.8862 214.865L96.6197 214.885ZM102.769 161.833L97.8701 212.457L178.834 190.889L188.304 136.735L102.769 161.833Z" fill="#4F4F4F"/>
<path d="M53.3089 205.029C53.0864 205.033 52.8689 204.963 52.6909 204.83C52.5128 204.697 52.3841 204.509 52.3251 204.295C52.2874 204.166 52.2755 204.032 52.2901 203.898C52.3048 203.765 52.3456 203.636 52.4103 203.519C52.475 203.401 52.5624 203.298 52.6673 203.214C52.7723 203.13 52.8928 203.067 53.022 203.03L69.9732 198.031L68.149 178.116L35.0663 178.605C34.9189 178.608 34.7727 178.578 34.638 178.518C34.5034 178.458 34.3837 178.37 34.2874 178.258C34.1869 178.146 34.1127 178.012 34.0702 177.868C34.0277 177.723 34.0179 177.571 34.0415 177.422L42.6913 125.512C42.7137 125.379 42.7622 125.252 42.8341 125.138C42.9061 125.024 43.0001 124.925 43.1106 124.847C43.2211 124.769 43.3461 124.714 43.4781 124.685C43.6102 124.655 43.7469 124.652 43.8802 124.675C44.1406 124.743 44.3648 124.908 44.5061 125.136C44.6473 125.364 44.6948 125.638 44.6386 125.9L36.1937 176.606L68.9894 176.116C69.2421 176.115 69.4859 176.209 69.6721 176.379C69.8582 176.55 69.9731 176.783 69.9937 177.034L72.0435 198.724C72.0633 198.956 72.003 199.188 71.8725 199.381C71.742 199.574 71.5492 199.717 71.326 199.785L53.5549 205.029H53.3089Z" fill="#4F4F4F"/>
<path d="M182.462 276.487C183.795 274.936 185.209 273.467 186.685 272.059C189.903 268.998 196.933 264.244 199.906 270.182C201.689 273.855 200.234 279.201 199.209 282.894C197.178 289.988 193.57 296.536 188.653 302.054C184.389 306.931 169.836 314.95 169.488 302.789C169.532 300.583 169.984 298.404 170.82 296.361C173.454 289.086 177.399 282.351 182.462 276.487Z" fill="white"/>
<path d="M174.878 310.134C174.076 310.144 173.278 310.012 172.521 309.747C170.779 309.135 168.688 307.421 168.565 302.829C168.586 300.498 169.052 298.192 169.938 296.035C172.599 288.647 176.609 281.812 181.765 275.875C183.098 274.324 184.533 272.814 186.029 271.386C187.033 270.427 192.301 265.713 196.728 266.509C197.631 266.671 198.478 267.054 199.194 267.625C199.909 268.195 200.471 268.933 200.828 269.774C202.878 273.855 201.238 279.425 200.213 283.159C198.128 290.382 194.444 297.047 189.431 302.666C186.808 305.584 180.044 310.134 174.878 310.134ZM195.704 268.284C193.162 268.284 189.739 270.427 187.32 272.732C185.885 274.12 184.492 275.569 183.221 277.079C178.218 282.851 174.327 289.491 171.742 296.667C170.942 298.612 170.511 300.688 170.471 302.789C170.471 305.645 171.476 307.4 173.198 308.012C177.133 309.42 184.881 305.013 187.976 301.462C192.813 296.057 196.359 289.633 198.348 282.67C199.311 279.221 200.746 273.977 199.106 270.61C198.883 270.046 198.522 269.546 198.057 269.155C197.592 268.763 197.037 268.492 196.441 268.366C196.198 268.316 195.952 268.289 195.704 268.284Z" fill="#4F4F4F"/>
<path d="M131.67 289.281C132.628 288.427 133.85 287.923 135.134 287.853C135.955 287.953 136.733 288.27 137.389 288.771C138.607 289.757 139.589 291.002 140.262 292.414C140.936 293.826 141.285 295.37 141.283 296.933C141.228 300.07 140.61 303.173 139.459 306.094C136.343 315.134 131.711 324.091 123.943 329.723C122.561 330.785 121.008 331.605 119.351 332.151C104.88 336.498 109.267 321.255 112.116 314.216C116.162 304.246 122.937 295.607 131.67 289.281Z" fill="white"/>
<path d="M114.883 333.886C113.986 333.949 113.086 333.815 112.247 333.494C111.408 333.173 110.649 332.673 110.025 332.029C106.171 327.846 109.595 317.97 111.255 313.909C115.372 303.773 122.251 294.981 131.117 288.526C132.257 287.54 133.706 286.977 135.216 286.934C136.225 287.018 137.187 287.394 137.983 288.016C139.32 289.093 140.397 290.455 141.135 292.002C141.873 293.549 142.253 295.241 142.247 296.953C142.198 300.201 141.566 303.414 140.381 306.441C136.487 317.725 131.301 325.622 124.537 330.519C123.069 331.644 121.419 332.514 119.659 333.09C118.114 333.584 116.505 333.852 114.883 333.886ZM134.97 288.791C133.95 288.923 132.994 289.357 132.224 290.036C123.646 296.258 116.981 304.737 112.977 314.522C110.537 320.521 108.877 327.928 111.398 330.703C112.751 332.172 115.334 332.355 119.085 331.233C120.639 330.709 122.094 329.93 123.389 328.927C129.846 324.255 134.806 316.685 138.578 305.748C139.701 302.934 140.298 299.94 140.34 296.912C140.355 295.486 140.048 294.074 139.441 292.781C138.834 291.489 137.944 290.348 136.835 289.444C136.329 289.039 135.718 288.784 135.073 288.71L134.97 288.791Z" fill="#4F4F4F"/>
<path d="M131.957 242.207C131.691 242.207 131.435 242.102 131.247 241.914C131.059 241.727 130.953 241.472 130.953 241.207C130.953 241.064 130.625 226.393 127.345 218.762C127.273 218.638 127.228 218.5 127.213 218.357C127.199 218.215 127.214 218.071 127.259 217.934C127.304 217.798 127.377 217.673 127.474 217.567C127.57 217.46 127.689 217.376 127.82 217.318C127.952 217.26 128.095 217.231 128.239 217.232C128.383 217.233 128.525 217.264 128.656 217.323C128.787 217.382 128.905 217.468 129 217.576C129.096 217.683 129.167 217.809 129.21 217.946C132.654 225.863 132.982 240.391 132.982 241.064C132.985 241.198 132.961 241.332 132.912 241.456C132.863 241.581 132.79 241.695 132.696 241.792C132.603 241.888 132.492 241.966 132.368 242.02C132.245 242.073 132.112 242.102 131.978 242.105L131.957 242.207Z" fill="white"/>
<path d="M75.7535 124.9L69.6043 126.675L71.4081 130.756C71.4081 130.756 59.5811 148.039 16.7623 145.57L4.03345 155.099L15.7989 161.71C15.7989 161.71 54.3953 163.751 74.6056 131.348L78.4181 130.287L75.7535 124.9Z" fill="#4F4F4F"/>
<path d="M646.299 41.0718L673.797 65.1679C674.115 65.4467 674.5 65.6384 674.915 65.7243C675.33 65.8101 675.76 65.7872 676.164 65.6576C676.567 65.5281 676.93 65.2965 677.216 64.9854C677.503 64.6744 677.703 64.2946 677.798 63.8832L689.3 13.901C689.4 13.4689 689.379 13.0179 689.24 12.5967C689.101 12.1755 688.849 11.8 688.512 11.5107C688.175 11.2214 687.764 11.0293 687.326 10.9551C686.887 10.8808 686.436 10.9272 686.021 11.0894L629.581 33.1687C629.089 33.3611 628.673 33.7069 628.395 34.1545C628.117 34.602 627.992 35.1272 628.039 35.6514C628.086 36.1756 628.301 36.6706 628.654 37.0625C629.007 37.4543 629.478 37.7218 629.996 37.825L646.299 41.0718Z" fill="#E67E22" stroke="#E67E22" stroke-linecap="round" stroke-linejoin="round"/>
<path d="M646.299 41.0719L687.924 11.1362" stroke="#4F4F4F" stroke-width="2" stroke-linecap="round" stroke-linejoin="round"/>
<path d="M650.475 62.6222L651.181 63.3308C651.191 63.3212 651.2 63.3115 651.209 63.3016L650.475 62.6222ZM646.299 60.8995H645.299V60.8995L646.299 60.8995ZM647.299 41.0715C647.299 40.5192 646.851 40.0715 646.299 40.0715C645.747 40.0715 645.299 40.5192 645.299 41.0715H647.299ZM658.509 52.4737L649.742 61.9428L651.209 63.3016L659.977 53.8326L658.509 52.4737ZM649.77 61.9136C649.568 62.1147 649.31 62.2522 649.028 62.308L649.417 64.2698C650.085 64.1376 650.699 63.811 651.181 63.3308L649.77 61.9136ZM649.028 62.308C648.747 62.3637 648.455 62.3351 648.191 62.2258L647.428 64.0747C648.057 64.3343 648.749 64.4021 649.417 64.2698L649.028 62.308ZM648.191 62.2258C647.926 62.1166 647.7 61.9319 647.542 61.6958L645.881 62.8102C646.26 63.3753 646.799 63.8152 647.428 64.0747L648.191 62.2258ZM647.542 61.6958C647.383 61.4597 647.299 61.1826 647.299 60.8995L645.299 60.8995C645.299 61.5801 645.502 62.245 645.881 62.8102L647.542 61.6958ZM647.299 60.8995V41.0715H645.299V60.8995H647.299Z" fill="#4F4F4F"/>
<path d="M431.959 298.278L423.745 310.524C423.454 310.958 423.043 311.301 422.562 311.512C422.082 311.722 421.551 311.792 421.032 311.712C420.512 311.633 420.027 311.407 419.632 311.062C419.238 310.717 418.95 310.267 418.804 309.765L403.522 257.41C403.318 256.711 403.401 255.959 403.754 255.321C404.106 254.683 404.698 254.21 405.401 254.006L463.663 237.144C464.365 236.941 465.12 237.023 465.761 237.374C466.402 237.725 466.877 238.315 467.081 239.014L479.397 281.208C479.601 281.908 479.518 282.659 479.165 283.297C478.813 283.936 478.221 284.409 477.518 284.612L433.05 297.482L431.959 298.278Z" fill="#E67E22" stroke="#E67E22" stroke-width="2" stroke-linecap="round" stroke-linejoin="round"/>
<path d="M428.942 265.782L450.128 259.651" stroke="#4F4F4F" stroke-width="2" stroke-linecap="round" stroke-linejoin="round"/>
<path d="M432.791 278.968L453.977 272.836" stroke="#4F4F4F" stroke-width="2" stroke-linecap="round" stroke-linejoin="round"/>
<path d="M452.556 102.759L490.868 108.535C492.984 108.854 494.947 107.486 495.252 105.48L499.119 80.046C499.424 78.0393 497.956 76.154 495.84 75.835L488.382 74.7107L464.721 71.1435L457.528 70.059C455.412 69.74 453.45 71.1082 453.144 73.1148L449.277 98.5485C448.972 100.555 450.44 102.44 452.556 102.759Z" stroke="#4F4F4F" stroke-width="2" stroke-linecap="round" stroke-linejoin="round"/>
<path d="M477.734 115.754L462.956 113.526" stroke="#4F4F4F" stroke-width="2" stroke-linecap="round" stroke-linejoin="round"/>
<path d="M471.464 107.282L470.345 114.64" stroke="#4F4F4F" stroke-width="2" stroke-linecap="round" stroke-linejoin="round"/>
<path d="M470.189 87.2593L470.019 88.3804C469.838 89.5698 470.109 90.7776 470.773 91.738C471.437 92.6984 472.439 93.3328 473.559 93.5016C474.679 93.6704 475.825 93.3598 476.744 92.6382C477.664 91.9165 478.282 90.8429 478.463 89.6535L478.634 88.5324" fill="#E67E22"/>
<path d="M470.189 87.2593L470.019 88.3804C469.838 89.5698 470.109 90.7776 470.773 91.738C471.437 92.6984 472.439 93.3328 473.559 93.5016C474.679 93.6704 475.825 93.3598 476.744 92.6382C477.664 91.9165 478.282 90.8429 478.463 89.6535L478.634 88.5324" stroke="#4F4F4F" stroke-linecap="round" stroke-linejoin="round"/>
<path d="M466.696 74.9055C466.884 73.6587 467.318 72.4612 467.972 71.3821C468.627 70.3029 469.49 69.3635 470.511 68.618C471.532 67.8724 472.691 67.3354 473.921 67.038C475.152 66.7406 476.429 66.6887 477.68 66.8851C482.897 67.7113 486.418 72.6647 485.625 77.8808L485.483 78.8131C484.768 83.5188 485.341 86.3985 485.985 88.0222C486.055 88.1958 486.077 88.3846 486.05 88.5696C486.023 88.7545 485.947 88.9291 485.831 89.0757C485.714 89.2222 485.561 89.3356 485.387 89.4044C485.212 89.4732 485.022 89.4949 484.837 89.4674L463.986 86.3239C463.8 86.2954 463.625 86.2187 463.479 86.1016C463.333 85.9844 463.22 85.8309 463.152 85.6565C463.085 85.4821 463.064 85.2931 463.094 85.1084C463.123 84.9237 463.2 84.75 463.318 84.6046C464.416 83.2435 465.821 80.6621 466.536 75.9566L466.696 74.9055Z" fill="#E67E22" stroke="#E67E22" stroke-linecap="round" stroke-linejoin="round"/>
<path d="M734.409 210.967L718.993 264.671C718.679 265.767 717.94 266.693 716.94 267.246C715.939 267.8 714.759 267.935 713.659 267.621L622.39 241.643C621.29 241.33 620.359 240.594 619.804 239.598C619.248 238.602 619.113 237.426 619.427 236.331L634.843 182.627L694.113 163.748L734.409 210.967Z" fill="#E67E22" stroke="#E67E22" stroke-width="2" stroke-linecap="round" stroke-linejoin="round"/>
<path d="M667.27 223.736L620.148 238.333" stroke="#4F4F4F" stroke-width="2" stroke-linecap="round" stroke-linejoin="round"/>
<path d="M716.928 267.354L685.377 228.291" stroke="#4F4F4F" stroke-width="2" stroke-linecap="round" stroke-linejoin="round"/>
<path d="M734.532 211.186L685.377 228.291L667.274 223.138L634.623 182.748" stroke="#4F4F4F" stroke-width="2" stroke-linecap="round" stroke-linejoin="round"/>
<path d="M586.94 377.27L567.829 379.273C566.07 379.457 564.794 381.026 564.979 382.778L568.666 417.667C568.851 419.418 570.427 420.689 572.186 420.505L591.297 418.502C593.056 418.318 594.332 416.748 594.147 414.997L593.793 411.649L590.814 383.456L590.46 380.108C590.275 378.357 588.699 377.086 586.94 377.27Z" stroke="#4F4F4F" stroke-width="2" stroke-linecap="round" stroke-linejoin="round"/>
<path d="M572.411 385.385L583.736 384.198" stroke="#4F4F4F" stroke-width="2" stroke-linecap="round" stroke-linejoin="round"/>
<path d="M589.509 404.971L589.618 406.005C589.734 407.102 590.255 408.111 591.067 408.81C591.879 409.508 592.916 409.84 593.948 409.732C594.981 409.624 595.925 409.085 596.573 408.233C597.221 407.381 597.52 406.286 597.404 405.189L597.295 404.156" fill="#E67E22"/>
<path d="M589.509 404.971L589.618 406.005C589.734 407.102 590.255 408.111 591.067 408.81C591.879 409.508 592.916 409.84 593.948 409.732C594.981 409.624 595.925 409.085 596.573 408.233C597.221 407.381 597.52 406.286 597.404 405.189L597.295 404.156" stroke="#4F4F4F" stroke-width="2" stroke-linecap="round" stroke-linejoin="round"/>
<path d="M583.973 395.842C583.85 394.693 583.956 393.531 584.286 392.423C584.617 391.315 585.164 390.283 585.896 389.386C586.629 388.49 587.532 387.747 588.554 387.199C589.576 386.652 590.697 386.312 591.852 386.198C596.672 385.729 600.946 389.312 601.454 394.121L601.545 394.981C602.004 399.319 603.181 401.742 604.129 403.034C604.231 403.172 604.295 403.334 604.314 403.504C604.333 403.675 604.306 403.847 604.237 404.004C604.168 404.16 604.058 404.296 603.919 404.398C603.781 404.499 603.617 404.562 603.446 404.58L584.221 406.594C584.05 406.612 583.877 406.584 583.72 406.514C583.563 406.444 583.428 406.333 583.327 406.194C583.227 406.055 583.165 405.892 583.148 405.722C583.13 405.551 583.159 405.379 583.23 405.223C583.888 403.763 584.534 401.15 584.075 396.811L583.973 395.842Z" fill="#E67E22"/>
</svg>
