<svg width="14" height="14" viewBox="0 0 14 14" fill="none" xmlns="http://www.w3.org/2000/svg">
<path d="M12.7199 5.85762H12.25V5.83342H7.00002V8.16675H10.2967C9.81577 9.52504 8.5234 10.5001 7.00002 10.5001C5.06715 10.5001 3.50002 8.93296 3.50002 7.00008C3.50002 5.06721 5.06715 3.50008 7.00002 3.50008C7.89223 3.50008 8.70394 3.83666 9.32198 4.38646L10.9719 2.7365C9.9301 1.76554 8.53652 1.16675 7.00002 1.16675C3.77856 1.16675 1.16669 3.77862 1.16669 7.00008C1.16669 10.2215 3.77856 12.8334 7.00002 12.8334C10.2215 12.8334 12.8334 10.2215 12.8334 7.00008C12.8334 6.60896 12.7931 6.22717 12.7199 5.85762Z" fill="#FFC107"/>
<path d="M1.83923 4.28496L3.75577 5.6905C4.27436 4.40658 5.53028 3.50008 6.99998 3.50008C7.89219 3.50008 8.7039 3.83666 9.32194 4.38646L10.9719 2.7365C9.93007 1.76554 8.53648 1.16675 6.99998 1.16675C4.7594 1.16675 2.81632 2.43171 1.83923 4.28496Z" fill="#FF3D00"/>
<path d="M7.00001 12.8333C8.50676 12.8333 9.87584 12.2567 10.911 11.319L9.10555 9.79121C8.50021 10.2516 7.76052 10.5006 7.00001 10.5C5.48276 10.5 4.19447 9.5325 3.70913 8.18237L1.80688 9.648C2.7723 11.5371 4.73289 12.8333 7.00001 12.8333Z" fill="#4CAF50"/>
<path d="M12.7199 5.85746H12.25V5.83325H7V8.16659H10.2967C10.0666 8.81304 9.65223 9.37793 9.10467 9.79146L9.10554 9.79088L10.911 11.3186C10.7832 11.4347 12.8333 9.91658 12.8333 6.99992C12.8333 6.60879 12.7931 6.227 12.7199 5.85746Z" fill="#1976D2"/>
</svg>
